<svg xml:space="preserve" width="2941.946" height="971.067" viewBox="0 0 2941.945 971.067" xmlns="http://www.w3.org/2000/svg"><defs><clipPath clipPathUnits="userSpaceOnUse" id="a"><path d="M23152.4 10495.4c-167.8 154.2-345.9 295-531.9 423.1l-479.1 290.9c-532.4 282.5-1115.4 466.1-1721.2 535.8 0 0-802.9 107.8-1072.2 123.5-3056.4 178.5-12246.43 24.4-12246.43 24.4l-3894.94-359.2-1335.78-166.8V10907s4432.12-1336.3 7712.12-1598.8c1868.33-149.5 5110.73-177.5 6813.83-129.3 1183.6 33.6 4729.6 249 4729.6 249 505.4 12.4 1007 89.7 1492.7 229.9l343 99c323.8 93.5 428.6 500.2 190.3 738.6z"/></clipPath><clipPath clipPathUnits="userSpaceOnUse" id="b"><path d="M14697.2 9921.6h823V8577h-823z"/></clipPath><clipPath clipPathUnits="userSpaceOnUse" id="c"><path d="M12724 10164.1h823V8819.5h-823z"/></clipPath></defs><path d="M1217.7 15923h362.96l1929.24-3358.6-799.05-4L1217.7 15923" style="fill:#e5e8e9;fill-opacity:1;fill-rule:nonzero;stroke:none" transform="matrix(.13333 0 0 -.13333 -162.36 2123.067)"/><path d="m3509.9 12564.4 272.22-467c103.49-177.6 56.77-404.5-108.42-526.7l-467.07-36.8-495.78 1026.5 799.05 4" style="fill:#28a0f9;fill-opacity:1;fill-rule:nonzero;stroke:none" transform="matrix(.13333 0 0 -.13333 -162.36 2123.067)"/><path d="m3673.7 11570.7 3427.87 322.4c-513.46 166.4-980.52 451.4-1363.32 832l-2864.62 2847.4c-230.33 229-543.53 354.9-868.23 349.2l-424.74-7.5 2203.56-3817.4c102.4-177.4 55.38-403.4-109.28-525.2l-1.24-.9" style="fill:#f60;fill-opacity:1;fill-rule:nonzero;stroke:none" transform="matrix(.13333 0 0 -.13333 -162.36 2123.067)"/><path d="m12730 9036.6 267.9 167.6 42.9-8.8-254.1-179.2-56.7 20.4" style="fill:#e6e6e6;fill-opacity:1;fill-rule:nonzero;stroke:none" transform="matrix(.13333 0 0 -.13333 -162.36 2123.067)"/><path d="M23152.4 10495.4c-167.8 154.2-345.9 295-531.9 423.1l-479.1 290.9c-532.4 282.5-1115.4 466.1-1721.2 535.8 0 0-802.9 107.8-1072.2 123.5-3056.4 178.5-12246.43 24.4-12246.43 24.4l-3894.94-359.2-1335.78-166.8V10907s4432.12-1336.3 7712.12-1598.8c1868.33-149.5 5110.73-177.5 6813.83-129.3 1183.6 33.6 4729.6 249 4729.6 249 505.4 12.4 1007 89.7 1492.7 229.9l343 99c323.8 93.5 428.6 500.2 190.3 738.6" style="fill:#e5e8e9;fill-opacity:1;fill-rule:nonzero;stroke:none" transform="matrix(.13333 0 0 -.13333 -162.36 2123.067)"/><g clip-path="url(#a)" transform="matrix(.13333 0 0 -.13333 -162.36 2123.067)"><path d="M1296.67 10404.8H23461v247l-22164.33 71.5v-318.5" style="fill:#28a0f9;fill-opacity:1;fill-rule:nonzero;stroke:none"/></g><path d="M21077 11064.7c0-56 35.8-105.7 88.9-123.4l307.7-102.5c152.8-51 319.2-42.6 466.1 23.4 82.7 37.1 172.4 56.3 263 56.3h417.8c-154.3 106.3-314.2 203.4-479.1 290.9h-919.7c-79.9 0-144.7-64.8-144.7-144.7M19287.3 11141.8h131.9c27.8 0 50.4-22.5 50.4-50.4v-213.8c0-27.9-22.6-50.4-50.4-50.4h-131.9c-27.8 0-50.4 22.5-50.4 50.4v213.8c0 27.9 22.6 50.4 50.4 50.4M18880.9 11141.8h131.9c27.8 0 50.4-22.5 50.4-50.4v-213.8c0-27.9-22.6-50.4-50.4-50.4h-131.9c-27.9 0-50.4 22.5-50.4 50.4v213.8c0 27.9 22.5 50.4 50.4 50.4M18474.4 11141.8h132c27.8 0 50.3-22.5 50.3-50.4v-213.8c0-27.9-22.5-50.4-50.3-50.4h-132c-27.8 0-50.4 22.5-50.4 50.4v213.8c0 27.9 22.6 50.4 50.4 50.4M18068 11141.8h131.9c27.9 0 50.4-22.5 50.4-50.4v-213.8c0-27.9-22.5-50.4-50.4-50.4H18068c-27.8 0-50.4 22.5-50.4 50.4v213.8c0 27.9 22.6 50.4 50.4 50.4M17661.6 11141.8h131.9c27.8 0 50.4-22.5 50.4-50.4v-213.8c0-27.9-22.6-50.4-50.4-50.4h-131.9c-27.8 0-50.4 22.5-50.4 50.4v213.8c0 27.9 22.6 50.4 50.4 50.4M17255.2 11141.8h131.9c27.8 0 50.4-22.5 50.4-50.4v-213.8c0-27.9-22.6-50.4-50.4-50.4h-131.9c-27.9 0-50.4 22.5-50.4 50.4v213.8c0 27.9 22.5 50.4 50.4 50.4M16848.8 11141.8h131.9c27.8 0 50.4-22.5 50.4-50.4v-213.8c0-27.9-22.6-50.4-50.4-50.4h-131.9c-27.9 0-50.4 22.5-50.4 50.4v213.8c0 27.9 22.5 50.4 50.4 50.4M16442.3 11141.8h131.9c27.9 0 50.4-22.5 50.4-50.4v-213.8c0-27.9-22.5-50.4-50.4-50.4h-131.9c-27.8 0-50.4 22.5-50.4 50.4v213.8c0 27.9 22.6 50.4 50.4 50.4M16035.9 11141.8h131.9c27.9 0 50.4-22.5 50.4-50.4v-213.8c0-27.9-22.5-50.4-50.4-50.4h-131.9c-27.8 0-50.4 22.5-50.4 50.4v213.8c0 27.9 22.6 50.4 50.4 50.4M15629.5 11141.8h131.9c27.8 0 50.4-22.5 50.4-50.4v-213.8c0-27.9-22.6-50.4-50.4-50.4h-131.9c-27.8 0-50.4 22.5-50.4 50.4v213.8c0 27.9 22.6 50.4 50.4 50.4M15223.1 11141.8h131.9c27.8 0 50.4-22.5 50.4-50.4v-213.8c0-27.9-22.6-50.4-50.4-50.4h-131.9c-27.9 0-50.4 22.5-50.4 50.4v213.8c0 27.9 22.5 50.4 50.4 50.4M14816.6 11141.8h132c27.8 0 50.4-22.5 50.4-50.4v-213.8c0-27.9-22.6-50.4-50.4-50.4h-132c-27.8 0-50.3 22.5-50.3 50.4v213.8c0 27.9 22.5 50.4 50.3 50.4M14410.2 11141.8h131.9c27.9 0 50.4-22.5 50.4-50.4v-213.8c0-27.9-22.5-50.4-50.4-50.4h-131.9c-27.8 0-50.4 22.5-50.4 50.4v213.8c0 27.9 22.6 50.4 50.4 50.4M14003.8 11141.8h131.9c27.9 0 50.4-22.5 50.4-50.4v-213.8c0-27.9-22.5-50.4-50.4-50.4h-131.9c-27.8 0-50.4 22.5-50.4 50.4v213.8c0 27.9 22.6 50.4 50.4 50.4M13597.4 11141.8h131.9c27.8 0 50.4-22.5 50.4-50.4v-213.8c0-27.9-22.6-50.4-50.4-50.4h-131.9c-27.8 0-50.4 22.5-50.4 50.4v213.8c0 27.9 22.6 50.4 50.4 50.4M11873.4 11141.8h131.9c27.8 0 50.4-22.5 50.4-50.4v-213.8c0-27.9-22.6-50.4-50.4-50.4h-131.9c-27.9 0-50.4 22.5-50.4 50.4v213.8c0 27.9 22.5 50.4 50.4 50.4M11466.9 11141.8h132c27.8 0 50.4-22.5 50.4-50.4v-213.8c0-27.9-22.6-50.4-50.4-50.4h-132c-27.8 0-50.3 22.5-50.3 50.4v213.8c0 27.9 22.5 50.4 50.3 50.4M11060.5 11141.8h131.9c27.9 0 50.4-22.5 50.4-50.4v-213.8c0-27.9-22.5-50.4-50.4-50.4h-131.9c-27.8 0-50.4 22.5-50.4 50.4v213.8c0 27.9 22.6 50.4 50.4 50.4M10654.1 11141.8h131.9c27.9 0 50.4-22.5 50.4-50.4v-213.8c0-27.9-22.5-50.4-50.4-50.4h-131.9c-27.8 0-50.4 22.5-50.4 50.4v213.8c0 27.9 22.6 50.4 50.4 50.4M10247.7 11141.8h131.9c27.8 0 50.4-22.5 50.4-50.4v-213.8c0-27.9-22.6-50.4-50.4-50.4h-131.9c-27.9 0-50.4 22.5-50.4 50.4v213.8c0 27.9 22.5 50.4 50.4 50.4M9841.26 11141.8h131.92c27.82 0 50.42-22.5 50.42-50.4v-213.8c0-27.9-22.6-50.4-50.42-50.4h-131.92c-27.83 0-50.4 22.5-50.4 50.4v213.8c0 27.9 22.57 50.4 50.4 50.4M9434.84 11141.8h131.92c27.83 0 50.39-22.5 50.39-50.4v-213.8c0-27.9-22.56-50.4-50.39-50.4h-131.92c-27.83 0-50.4 22.5-50.4 50.4v213.8c0 27.9 22.57 50.4 50.4 50.4M9028.42 11141.8h131.92c27.83 0 50.39-22.5 50.39-50.4v-213.8c0-27.9-22.56-50.4-50.39-50.4h-131.92c-27.83 0-50.4 22.5-50.4 50.4v213.8c0 27.9 22.57 50.4 50.4 50.4M8622 11141.8h131.92c27.83 0 50.39-22.5 50.39-50.4v-213.8c0-27.9-22.56-50.4-50.39-50.4H8622c-27.83 0-50.4 22.5-50.4 50.4v213.8c0 27.9 22.57 50.4 50.4 50.4M8215.58 11141.8h131.92c27.83 0 50.39-22.5 50.39-50.4v-213.8c0-27.9-22.56-50.4-50.39-50.4h-131.92c-27.84 0-50.4 22.5-50.4 50.4v213.8c0 27.9 22.56 50.4 50.4 50.4M7809.16 11141.8h131.92c27.83 0 50.39-22.5 50.39-50.4v-213.8c0-27.9-22.56-50.4-50.39-50.4h-131.92c-27.84 0-50.4 22.5-50.4 50.4v213.8c0 27.9 22.56 50.4 50.4 50.4M7402.73 11141.8h131.92c27.84 0 50.39-22.5 50.39-50.4v-213.8c0-27.9-22.55-50.4-50.39-50.4h-131.92c-27.83 0-50.39 22.5-50.39 50.4v213.8c0 27.9 22.56 50.4 50.39 50.4M6996.31 11141.8h131.92c27.83 0 50.39-22.5 50.39-50.4v-213.8c0-27.9-22.56-50.4-50.39-50.4h-131.92c-27.83 0-50.39 22.5-50.39 50.4v213.8c0 27.9 22.56 50.4 50.39 50.4M6589.89 11141.8h131.92c27.83 0 50.39-22.5 50.39-50.4v-213.8c0-27.9-22.56-50.4-50.39-50.4h-131.92c-27.83 0-50.39 22.5-50.39 50.4v213.8c0 27.9 22.56 50.4 50.39 50.4M6183.47 11141.8h131.92c27.83 0 50.39-22.5 50.39-50.4v-213.8c0-27.9-22.56-50.4-50.39-50.4h-131.92c-27.84 0-50.39 22.5-50.39 50.4v213.8c0 27.9 22.55 50.4 50.39 50.4" style="fill:#646568;fill-opacity:1;fill-rule:nonzero;stroke:none" transform="matrix(.13333 0 0 -.13333 -162.36 2123.067)"/><path d="m7671.56 10737.6-1107.37 926.3-738.68-6.8 377.91-933 1468.14 13.5" style="fill:#9e9e9e;fill-opacity:1;fill-rule:nonzero;stroke:none" transform="matrix(.13333 0 0 -.13333 -162.36 2123.067)"/><path d="m17316 9820.9 418.7 164.4s-1000.4 335.7-2680.9 320.4c-1680.5-15.4-4242.7-96.9-5812.46 167.5 0 0 3546.76-818.6 3870.06-827.5 323.3-9 4204.6 175.2 4204.6 175.2" style="fill:#f60;fill-opacity:1;fill-rule:nonzero;stroke:none" transform="matrix(.13333 0 0 -.13333 -162.36 2123.067)"/><path d="M17734.7 9985.3s-6676.7 22.2-10063.14 752.3l-1468.14-13.5s3465.34-1276.4 7121.88-1243c0 0 4415.9-209.3 4409.4 504.2M1224.89 11288.1l3689.96-105.3c194.21-5.5 264.16-259 100.29-363.3a196.846 196.846 0 0 0-132.49-29.1l-3657.76 497.7" style="fill:#b1b3b5;fill-opacity:1;fill-rule:nonzero;stroke:none" transform="matrix(.13333 0 0 -.13333 -162.36 2123.067)"/><path d="M13691.7 9246.8V9192l319.6-185.2v428l-319.6-188" style="fill:#1a1a1a;fill-opacity:1;fill-rule:nonzero;stroke:none" transform="matrix(.13333 0 0 -.13333 -162.36 2123.067)"/><path d="M14011.3 9434.8v56.3l225.7 65.2v-698.4l-225.7 87.8v489.1" style="fill:#3d3c3c;fill-opacity:1;fill-rule:nonzero;stroke:none" transform="matrix(.13333 0 0 -.13333 -162.36 2123.067)"/><path d="m16306.3 8781.5-158.4-62.6v1018l158.4-62.6v-892.8" style="fill:#666;fill-opacity:1;fill-rule:nonzero;stroke:none" transform="matrix(.13333 0 0 -.13333 -162.36 2123.067)"/><path d="M15795 9815.8c234.7 0 352-78.9 352-78.9v-1018s-117.3-78.9-352-78.9c-307.8 0-1017.3 77.2-1381.4 119.3-128 14.9-224.4 120.1-224.4 245.2v446.8c0 125.1 96.4 230.4 224.4 245.2 364.1 42.1 1073.6 119.3 1381.4 119.3" style="fill:#c2bbbe;fill-opacity:1;fill-rule:nonzero;stroke:none" transform="matrix(.13333 0 0 -.13333 -162.36 2123.067)"/><g clip-path="url(#b)" transform="matrix(.13333 0 0 -.13333 -162.36 2123.067)"><path d="M15795 9815.8c234.7 0 352-78.9 352-78.9v-1018s-117.3-78.9-352-78.9c-307.8 0-1017.3 77.2-1381.4 119.3-128 14.9-224.4 120.1-224.4 245.2v446.8c0 125.1 96.4 230.4 224.4 245.2 364.1 42.1 1073.6 119.3 1381.4 119.3" style="fill:#d6d6d6;fill-opacity:1;fill-rule:nonzero;stroke:none"/></g><path d="M15805.6 9815.8c21.5 0 41.6-.9 61-2.2V8642.2c-19.4-1.3-39.5-2.2-61-2.2-18.8 0-39.2.3-60.9.9v1174c21.7.6 42.1.9 60.9.9M15664.9 9812.5c21.4 0 41.5 2.4 61 1.1V8642.2c-19.5-1.3-39.6 1.1-61 1.1-18.8 0-39.2 2.5-60.9 3v1163.2c21.7.6 42.1 3 60.9 3" style="fill:#e6e6e6;fill-opacity:1;fill-rule:nonzero;stroke:none" transform="matrix(.13333 0 0 -.13333 -162.36 2123.067)"/><path d="M11718.4 9489.4v-54.9l319.7-185.2v428l-319.7-187.9" style="fill:#1a1a1a;fill-opacity:1;fill-rule:nonzero;stroke:none" transform="matrix(.13333 0 0 -.13333 -162.36 2123.067)"/><path d="M12038.1 9677.3v56.3l225.6 65.3v-698.5l-225.6 87.8v489.1" style="fill:#3d3c3c;fill-opacity:1;fill-rule:nonzero;stroke:none" transform="matrix(.13333 0 0 -.13333 -162.36 2123.067)"/><path d="m14333 9024-158.4-62.5v1017.9l158.4-62.5V9024" style="fill:#666;fill-opacity:1;fill-rule:nonzero;stroke:none" transform="matrix(.13333 0 0 -.13333 -162.36 2123.067)"/><path d="M13821.8 10058.3c234.6 0 351.9-78.9 351.9-78.9V8961.5s-117.3-78.9-351.9-78.9c-307.8 0-1017.3 77.2-1381.4 119.3-128.1 14.8-224.4 120.1-224.4 245.1v446.8c0 125.1 96.3 230.4 224.4 245.2 364.1 42.1 1073.6 119.3 1381.4 119.3" style="fill:#c2bbbe;fill-opacity:1;fill-rule:nonzero;stroke:none" transform="matrix(.13333 0 0 -.13333 -162.36 2123.067)"/><g clip-path="url(#c)" transform="matrix(.13333 0 0 -.13333 -162.36 2123.067)"><path d="M13821.8 10058.3c234.6 0 351.9-78.9 351.9-78.9V8961.5s-117.3-78.9-351.9-78.9c-307.8 0-1017.3 77.2-1381.4 119.3-128.1 14.8-224.4 120.1-224.4 245.1v446.8c0 125.1 96.3 230.4 224.4 245.2 364.1 42.1 1073.6 119.3 1381.4 119.3" style="fill:#d6d6d6;fill-opacity:1;fill-rule:nonzero;stroke:none"/></g><path d="M13832.4 10058.3c21.4 0 41.5-.9 61-2.1V8884.7c-19.5-1.3-39.6-2.1-61-2.1-18.8 0-39.2.3-60.9.9v1173.9c21.7.6 42.1.9 60.9.9M13691.7 10055c21.4 0 41.5 2.4 60.9 1.2V8884.7c-19.4-1.3-39.5 1.1-60.9 1.1-18.9 0-39.3 2.5-61 3.1V10052c21.7.6 42.1 3 61 3" style="fill:#e6e6e6;fill-opacity:1;fill-rule:nonzero;stroke:none" transform="matrix(.13333 0 0 -.13333 -162.36 2123.067)"/><path d="M20041.6 11450.2h110.9c133 0 240.8-107.8 240.8-240.8v-449.8c0-133-107.8-240.8-240.8-240.8h-110.9c-133 0-240.8 107.8-240.8 240.8v449.8c0 133 107.8 240.8 240.8 240.8" style="fill:#dedde2;fill-opacity:1;fill-rule:nonzero;stroke:none" transform="matrix(.13333 0 0 -.13333 -162.36 2123.067)"/><path d="M20041.6 11444c-129.5 0-234.7-105.2-234.7-234.6v-449.8c0-129.4 105.2-234.6 234.7-234.6h110.9c129.4 0 234.7 105.2 234.7 234.6v449.8c0 129.4-105.3 234.6-234.7 234.6zm110.9-931.3h-110.9c-136.2 0-247 110.8-247 246.9v449.8c0 136.1 110.8 246.9 247 246.9h110.9c136.1 0 246.9-110.8 246.9-246.9v-449.8c0-136.1-110.8-246.9-246.9-246.9" style="fill:#999;fill-opacity:1;fill-rule:nonzero;stroke:none" transform="matrix(.13333 0 0 -.13333 -162.36 2123.067)"/><path d="M20235.9 11081.1c0-71.9-58.3-130.1-130.2-130.1-71.9 0-130.1 58.2-130.1 130.1 0 71.9 58.2 130.1 130.1 130.1 71.9 0 130.2-58.2 130.2-130.1" style="fill:#646568;fill-opacity:1;fill-rule:nonzero;stroke:none" transform="matrix(.13333 0 0 -.13333 -162.36 2123.067)"/><path d="M12642.6 11450.2h110.9c133 0 240.8-107.8 240.8-240.8v-449.8c0-133-107.8-240.8-240.8-240.8h-110.9c-133 0-240.9 107.8-240.9 240.8v449.8c0 133 107.9 240.8 240.9 240.8" style="fill:#dedde2;fill-opacity:1;fill-rule:nonzero;stroke:none" transform="matrix(.13333 0 0 -.13333 -162.36 2123.067)"/><path d="M12642.6 11444c-129.5 0-234.7-105.2-234.7-234.6v-449.8c0-129.4 105.2-234.6 234.7-234.6h110.9c129.4 0 234.7 105.2 234.7 234.6v449.8c0 129.4-105.3 234.6-234.7 234.6zm110.9-931.3h-110.9c-136.2 0-247 110.8-247 246.9v449.8c0 136.1 110.8 246.9 247 246.9h110.9c136.1 0 246.9-110.8 246.9-246.9v-449.8c0-136.1-110.8-246.9-246.9-246.9" style="fill:#999;fill-opacity:1;fill-rule:nonzero;stroke:none" transform="matrix(.13333 0 0 -.13333 -162.36 2123.067)"/><path d="M12836.9 11081.1c0-71.9-58.3-130.1-130.2-130.1-71.9 0-130.1 58.2-130.1 130.1 0 71.9 58.2 130.1 130.1 130.1 71.9 0 130.2-58.2 130.2-130.1" style="fill:#646568;fill-opacity:1;fill-rule:nonzero;stroke:none" transform="matrix(.13333 0 0 -.13333 -162.36 2123.067)"/></svg>