<svg xml:space="preserve" width="5385.218" height="971.042" viewBox="0 0 5385.216 971.042" xmlns:xlink="http://www.w3.org/1999/xlink" xmlns="http://www.w3.org/2000/svg"><defs><linearGradient id="d"><stop style="stop-color:#535353;stop-opacity:1" offset="0"/><stop style="stop-color:#5c5c5c;stop-opacity:1" offset=".044"/><stop style="stop-color:#ececec;stop-opacity:1" offset=".495"/><stop style="stop-color:#e6e6e6;stop-opacity:1" offset="1"/></linearGradient><linearGradient id="a"><stop style="stop-color:#b3b3b3;stop-opacity:1" offset="0"/><stop style="stop-color:#ececec;stop-opacity:1" offset=".495"/><stop style="stop-color:#e6e6e6;stop-opacity:1" offset="1"/></linearGradient><linearGradient id="b"><stop style="stop-color:#f9f9f9;stop-opacity:1" offset="0"/><stop style="stop-color:#ececec;stop-opacity:1" offset=".495"/><stop style="stop-color:#e6e6e6;stop-opacity:1" offset="1"/></linearGradient><linearGradient xlink:href="#a" id="e" x1="-489.34" y1="589.053" x2="-2453.717" y2="589.053" gradientUnits="userSpaceOnUse"/><linearGradient xlink:href="#b" id="g" gradientUnits="userSpaceOnUse" x1="-162.138" y1="589.053" x2="-2453.717" y2="589.053" gradientTransform="matrix(1 0 0 .8836 0 58.772)"/><linearGradient id="c" gradientUnits="userSpaceOnUse" x1="174.074" y1="215.549" x2="132.276" y2="141.753"><stop offset="0" style="stop-color:#fb7655"/><stop offset="0" style="stop-color:#fb7655"/><stop offset=".41" style="stop-color:#e42b1e"/><stop offset=".99" style="stop-color:#900"/><stop offset="1" style="stop-color:#900"/></linearGradient><linearGradient id="n" gradientUnits="userSpaceOnUse" x1="194.895" y1="153.558" x2="141.028" y2="117.409"><stop offset="0" style="stop-color:#871101"/><stop offset="0" style="stop-color:#871101"/><stop offset=".99" style="stop-color:#911209"/><stop offset="1" style="stop-color:#911209"/></linearGradient><linearGradient id="o" gradientUnits="userSpaceOnUse" x1="151.795" y1="217.785" x2="97.93" y2="181.638"><stop offset="0" style="stop-color:#871101"/><stop offset="0" style="stop-color:#871101"/><stop offset=".99" style="stop-color:#911209"/><stop offset="1" style="stop-color:#911209"/></linearGradient><linearGradient id="p" gradientUnits="userSpaceOnUse" x1="38.696" y1="127.391" x2="47.047" y2="181.661"><stop offset="0" style="stop-color:#fff"/><stop offset="0" style="stop-color:#fff"/><stop offset=".23" style="stop-color:#e57252"/><stop offset=".46" style="stop-color:#de3b20"/><stop offset=".99" style="stop-color:#a60003"/><stop offset="1" style="stop-color:#a60003"/></linearGradient><linearGradient id="q" gradientUnits="userSpaceOnUse" x1="96.133" y1="76.715" x2="99.21" y2="132.102"><stop offset="0" style="stop-color:#fff"/><stop offset="0" style="stop-color:#fff"/><stop offset=".23" style="stop-color:#e4714e"/><stop offset=".56" style="stop-color:#be1a0d"/><stop offset=".99" style="stop-color:#a80d00"/><stop offset="1" style="stop-color:#a80d00"/></linearGradient><linearGradient id="r" gradientUnits="userSpaceOnUse" x1="147.103" y1="25.521" x2="156.314" y2="65.216"><stop offset="0" style="stop-color:#fff"/><stop offset="0" style="stop-color:#fff"/><stop offset=".18" style="stop-color:#e46342"/><stop offset=".4" style="stop-color:#c82410"/><stop offset=".99" style="stop-color:#a80d00"/><stop offset="1" style="stop-color:#a80d00"/></linearGradient><linearGradient id="s" gradientUnits="userSpaceOnUse" x1="118.976" y1="11.541" x2="158.669" y2="-8.305"><stop offset="0" style="stop-color:#fff"/><stop offset="0" style="stop-color:#fff"/><stop offset=".54" style="stop-color:#c81f11"/><stop offset=".99" style="stop-color:#bf0905"/><stop offset="1" style="stop-color:#bf0905"/></linearGradient><linearGradient id="t" gradientUnits="userSpaceOnUse" x1="3.903" y1="113.555" x2="7.17" y2="146.263"><stop offset="0" style="stop-color:#fff"/><stop offset="0" style="stop-color:#fff"/><stop offset=".31" style="stop-color:#de4024"/><stop offset=".99" style="stop-color:#bf190b"/><stop offset="1" style="stop-color:#bf190b"/></linearGradient><linearGradient id="u" gradientUnits="userSpaceOnUse" x1="-18.556" y1="155.105" x2="135.015" y2="-2.809"><stop offset="0" style="stop-color:#bd0012"/><stop offset="0" style="stop-color:#bd0012"/><stop offset=".07" style="stop-color:#fff"/><stop offset=".17" style="stop-color:#fff"/><stop offset=".27" style="stop-color:#c82f1c"/><stop offset=".33" style="stop-color:#820c01"/><stop offset=".46" style="stop-color:#a31601"/><stop offset=".72" style="stop-color:#b31301"/><stop offset=".99" style="stop-color:#e82609"/><stop offset="1" style="stop-color:#e82609"/></linearGradient><linearGradient id="v" gradientUnits="userSpaceOnUse" x1="99.075" y1="171.033" x2="52.818" y2="159.617"><stop offset="0" style="stop-color:#8c0c01"/><stop offset="0" style="stop-color:#8c0c01"/><stop offset=".54" style="stop-color:#990c00"/><stop offset=".99" style="stop-color:#a80d0e"/><stop offset="1" style="stop-color:#a80d0e"/></linearGradient><linearGradient id="w" gradientUnits="userSpaceOnUse" x1="178.526" y1="115.515" x2="137.433" y2="78.684"><stop offset="0" style="stop-color:#7e110b"/><stop offset="0" style="stop-color:#7e110b"/><stop offset=".99" style="stop-color:#9e0c00"/><stop offset="1" style="stop-color:#9e0c00"/></linearGradient><linearGradient id="x" gradientUnits="userSpaceOnUse" x1="193.624" y1="47.937" x2="173.154" y2="26.054"><stop offset="0" style="stop-color:#79130d"/><stop offset="0" style="stop-color:#79130d"/><stop offset=".99" style="stop-color:#9e120b"/><stop offset="1" style="stop-color:#9e120b"/></linearGradient><linearGradient id="A" gradientUnits="userSpaceOnUse" x1="26.67" y1="197.336" x2="9.989" y2="140.742"><stop offset="0" style="stop-color:#8b2114"/><stop offset="0" style="stop-color:#8b2114"/><stop offset=".43" style="stop-color:#9e100a"/><stop offset=".99" style="stop-color:#b3100c"/><stop offset="1" style="stop-color:#b3100c"/></linearGradient><linearGradient id="B" gradientUnits="userSpaceOnUse" x1="154.641" y1="9.798" x2="192.039" y2="26.306"><stop offset="0" style="stop-color:#b31000"/><stop offset="0" style="stop-color:#b31000"/><stop offset=".44" style="stop-color:#910f08"/><stop offset=".99" style="stop-color:#791c12"/><stop offset="1" style="stop-color:#791c12"/></linearGradient><linearGradient y2="141.753" x2="132.276" y1="215.549" x1="174.074" gradientUnits="userSpaceOnUse" id="m" xlink:href="#c"/><linearGradient xlink:href="#b" id="l" gradientUnits="userSpaceOnUse" x1="-489.34" y1="589.053" x2="-2453.717" y2="589.053"/><linearGradient xlink:href="#b" id="k" gradientUnits="userSpaceOnUse" x1="-489.34" y1="589.053" x2="-2453.717" y2="589.053"/><linearGradient xlink:href="#b" id="j" gradientUnits="userSpaceOnUse" x1="-489.34" y1="589.053" x2="-2453.717" y2="589.053"/><linearGradient xlink:href="#b" id="i" gradientUnits="userSpaceOnUse" x1="-489.34" y1="589.053" x2="-2453.717" y2="589.053"/><linearGradient xlink:href="#b" id="h" gradientUnits="userSpaceOnUse" x1="-489.34" y1="589.053" x2="-2453.717" y2="589.053"/><linearGradient xlink:href="#d" id="f" gradientUnits="userSpaceOnUse" x1="-470.941" y1="589.053" x2="-1876.04" y2="589.053"/><clipPath clipPathUnits="userSpaceOnUse" id="C"><path d="M23152.4 10495.4c-167.8 154.2-345.9 295-531.9 423.1l-479.1 290.9c-532.4 282.5-1115.4 466.1-1721.2 535.8 0 0-802.9 107.8-1072.2 123.5-3056.4 178.5-12246.43 24.4-12246.43 24.4l-3894.94-359.2-1335.78-166.8V10907s4432.12-1336.3 7712.12-1598.8c1868.33-149.5 5110.73-177.5 6813.83-129.3 1183.6 33.6 4729.6 249 4729.6 249 505.4 12.4 1007 89.7 1492.7 229.9l343 99c323.8 93.5 428.6 500.2 190.3 738.6z"/></clipPath><clipPath clipPathUnits="userSpaceOnUse" id="D"><path d="M14697.2 9921.6h823V8577h-823z"/></clipPath><clipPath clipPathUnits="userSpaceOnUse" id="E"><path d="M12724 10164.1h823V8819.5h-823z"/></clipPath><radialGradient id="y" cx="143.832" cy="79.388" r="50.358" gradientUnits="userSpaceOnUse"><stop offset="0" style="stop-color:#a80d00"/><stop offset="0" style="stop-color:#a80d00"/><stop offset=".99" style="stop-color:#7e0e08"/><stop offset="1" style="stop-color:#7e0e08"/></radialGradient><radialGradient id="z" cx="74.092" cy="145.751" r="66.944" gradientUnits="userSpaceOnUse"><stop offset="0" style="stop-color:#a30c00"/><stop offset="0" style="stop-color:#a30c00"/><stop offset=".99" style="stop-color:#800e08"/><stop offset="1" style="stop-color:#800e08"/></radialGradient></defs><path style="fill:none;stroke:#000;stroke-width:4.599;stroke-linecap:butt;stroke-linejoin:miter;stroke-miterlimit:4;stroke-dasharray:none;stroke-opacity:.612621" d="m-471.294 257.967 246.328 249.226M-471.294 751.867l246.328-244.674M-224.966 507.193H289.11" transform="matrix(1.02651 0 0 1 2435.686 133.947)"/><g style="fill:url(#e);fill-opacity:1" transform="translate(2443.35 133.947)"><g style="fill:url(#f)"><path style="color:#000;fill:url(#g);stroke-width:.94;-inkscape-stroke:none" d="M-2415.702 231.773h1917.23a27.118 27.118 0 0 1 27.178 27.177v491.934a27.118 27.118 0 0 1-27.178 27.178h-1917.23a27.118 27.118 0 0 1-27.178-27.178V258.95a27.118 27.118 0 0 1 27.178-27.177z"/><path style="color:#000;fill:#b3b3b3;fill-opacity:.681144;-inkscape-stroke:none" d="M-2415.703 231.303c-15.309 0-27.647 12.34-27.647 27.648v491.932c0 15.309 12.338 27.648 27.647 27.648h1917.232c15.31 0 27.647-12.34 27.647-27.648V258.95c0-15.309-12.338-27.648-27.647-27.648zm0 .94h1917.232a26.64 26.64 0 0 1 26.707 26.708v491.932a26.64 26.64 0 0 1-26.707 26.709h-1917.232a26.64 26.64 0 0 1-26.707-26.71v-491.93a26.64 26.64 0 0 1 26.707-26.71z"/></g><g transform="translate(-909.228 304.917) scale(.78125)" style="fill:url(#h)"><path style="fill:#264de4" d="M74.633 100.62h362.734l-33.046 370.199L255.778 512l-148.134-41.123z"/><path style="fill:#2965f1" d="M256 130.894v349.629l120.03-33.277 28.24-316.352z"/><path style="fill:#ebebeb" d="M256 313.627v-45.41H150.31l4.07 45.41zM256 221.716v-45.411H142.132l4.128 45.411zM177.419 336.333h-21.01l6.362 71.301 93.02 25.823.209-.058v-47.246l-.199.053-50.574-13.656-3.233-36.217z"/><path d="M160 0h55v23h-32v23h32v23h-55zM226 0h55v20h-32v4h32v46h-55V49h32v-4h-32zM292 0h55v20h-32v4h32v46h-55V49h32v-4h-32z" style="fill:#666"/><path style="fill:#fff" d="M255.843 313.627h55.918l-5.271 58.894-50.647 13.67v47.244l93.094-25.801.683-7.672 10.671-119.551 1.108-12.194 8.198-91.912H255.843v45.411h63.988l-4.132 46.501h-59.856z"/></g><g transform="translate(-1324.19 304.917) scale(.78125)" style="fill:url(#i)"><path d="M108.4 0h23v22.8h21.2V0h23v69h-23V46h-21v23h-23.2M206 23h-20.3V0h63.7v23H229v46h-23m53.5-69h24.1l14.8 24.3L313.2 0h24.1v69h-23V34.8l-16.1 24.8-16.1-24.8V69h-22.6m89.2-69h23v46.2h32.6V69h-55.6" style="fill:#666"/><path fill="#e44d26" d="m107.6 471-33-370.4h362.8l-33 370.2L255.7 512"/><path fill="#f16529" d="M256 480.5V131h148.3L376 447"/><path fill="#ebebeb" d="M142 176.3h114v45.4h-64.2l4.2 46.5h60v45.3H154.4m2 22.8H202l3.2 36.3 50.8 13.6v47.4l-93.2-26"/><path fill="#fff" d="M369.6 176.3H255.8v45.4h109.6m-4.1 46.5H255.8v45.4h56l-5.3 59-50.7 13.6v47.2l93-25.8"/></g><g transform="translate(-1797.966 304.917) scale(.63492)" style="fill:url(#j)"><path fill="#f7df1e" d="M0 0h630v630H0z"/><path d="M423.2 492.19c12.69 20.72 29.2 35.95 58.4 35.95 24.53 0 40.2-12.26 40.2-29.2 0-20.3-16.1-27.49-43.1-39.3l-14.8-6.35c-42.72-18.2-71.1-41-71.1-89.2 0-44.4 33.83-78.2 86.7-78.2 37.64 0 64.7 13.1 84.2 47.4l-46.1 29.6c-10.15-18.2-21.1-25.37-38.1-25.37-17.34 0-28.33 11-28.33 25.37 0 17.76 11 24.95 36.4 35.95l14.8 6.34c50.3 21.57 78.7 43.56 78.7 93 0 53.3-41.87 82.5-98.1 82.5-54.98 0-90.5-26.2-107.88-60.54zm-209.13 5.13c9.3 16.5 17.76 30.45 38.1 30.45 19.45 0 31.72-7.61 31.72-37.2v-201.3h59.2v202.1c0 61.3-35.94 89.2-88.4 89.2-47.4 0-74.85-24.53-88.81-54.075z" style="fill:url(#k)"/></g><g style="overflow:visible;fill:url(#l)" transform="matrix(2.0245 0 0 2.0245 -2339.277 304.917)" clip-rule="evenodd"><path style="fill:url(#m);fill-rule:evenodd" d="M153.5 130.41 40.38 197.58l146.469-9.939L198.13 39.95z"/><path style="fill:url(#n);fill-rule:evenodd" d="m174.5 100.65-34.291 45.28 46.88 41.61z"/><path style="fill:url(#o);fill-rule:evenodd" d="m95.03 180.3-54.16 17.091 146.389-9.851z"/><path style="fill:url(#p);fill-rule:evenodd" d="m64.04 121.93-50.7 10.841L41 197.41z"/><path style="fill:url(#q);fill-rule:evenodd" d="m119 63.14-60.67 56.87 81.87 26.17z"/><path style="fill:url(#r);fill-rule:evenodd" d="M135.97 17.47 120 69.1l73.32-4.79z"/><path style="fill:url(#s);fill-rule:evenodd" d="M132.77 19.41 111.49.52l55.01.25z"/><path style="fill:url(#t);fill-rule:evenodd" d="M14.13 132.32 2.7 101.62 0 158.09z"/><path style="fill:#fff;fill-rule:evenodd" d="m1.94 100.65 11.5 32.62 49.97-11.211 57.05-53.02 16.1-51.139L111.209 0l-43.1 16.13C54.53 28.76 28.18 53.75 27.23 54.22c-.94.48-17.4 31.59-25.29 46.43Z"/><path style="fill:url(#u);fill-rule:evenodd" d="M42.32 42.05c29.43-29.18 67.37-46.42 81.93-31.73 14.551 14.69-.88 50.39-30.31 79.56s-66.9 47.36-81.45 32.67c-14.56-14.68.4-51.33 29.83-80.5z"/><path style="fill:url(#v);fill-rule:evenodd" d="m41 197.38 22.86-75.72 75.92 24.39c-27.45 25.74-57.98 47.5-98.78 51.33Z"/><path style="fill:url(#w);fill-rule:evenodd" d="m120.56 68.89 19.49 77.2c22.93-24.11 43.51-50.03 53.589-82.09Z"/><path style="fill:url(#x);fill-rule:evenodd" d="M193.44 64.39c7.8-23.54 9.6-57.31-27.181-63.58l-30.18 16.67z"/><path style="fill:#9e1209;fill-rule:evenodd" d="M0 157.75c1.08 38.851 29.11 39.43 41.05 39.771L13.47 133.11Z"/><path style="fill:url(#y);fill-rule:evenodd" d="M120.669 69.01c17.62 10.83 53.131 32.58 53.851 32.98 1.119.63 15.31-23.93 18.53-37.81z"/><path style="fill:url(#z);fill-rule:evenodd" d="m63.83 121.66 30.56 58.96c18.07-9.8 32.22-21.74 45.18-34.53z"/><path style="fill:url(#A);fill-rule:evenodd" d="m13.35 133.19-4.33 51.56c8.17 11.16 19.41 12.13 31.2 11.26-8.53-21.23-25.57-63.68-26.87-62.82z"/><path style="fill:url(#B);fill-rule:evenodd" d="m135.9 17.61 60.71 8.52C193.37 12.4 183.42 3.54 166.46.77Z"/></g></g><path d="M2443.346 0h48.394l257.225 447.802-106.537.533L2443.346 0" style="fill:#e5e8e9;fill-opacity:1;fill-rule:nonzero;stroke:none;stroke-width:.13333"/><path d="m2748.965 447.802 36.295 62.265c13.799 23.68 7.57 53.932-14.455 70.225l-62.275 4.907-66.102-136.864 106.537-.533" style="fill:#28a0f9;fill-opacity:1;fill-rule:nonzero;stroke:none;stroke-width:.13333"/><path d="m2770.805 580.292 457.038-42.985a458.112 458.112 0 0 1-181.772-110.931l-381.94-379.644A160.188 160.188 0 0 0 2548.371.173l-56.631 1 293.8 508.974c13.653 23.653 7.384 53.786-14.57 70.025l-.165.12" style="fill:#f60;fill-opacity:1;fill-rule:nonzero;stroke:none;stroke-width:.13333"/><path d="m3978.281 918.164 35.72-22.346 5.72 1.173-33.88 23.893-7.56-2.72" style="fill:#e6e6e6;fill-opacity:1;fill-rule:nonzero;stroke:none;stroke-width:.13333"/><path d="M5367.9 723.662c-22.373-20.56-46.119-39.332-70.918-56.412l-63.879-38.786c-70.985-37.665-148.716-62.145-229.487-71.438 0 0-107.051-14.373-142.957-16.466-407.51-23.8-1632.816-3.253-1632.816-3.253l-519.313 47.892-178.1 22.24v61.344s590.935 178.17 1028.258 213.168c249.104 19.933 681.413 23.666 908.488 17.24 157.81-4.48 630.597-33.2 630.597-33.2a787.21 787.21 0 0 0 199.022-30.652l45.732-13.2c43.172-12.466 57.145-66.691 25.373-98.477" style="fill:#e5e8e9;fill-opacity:1;fill-rule:nonzero;stroke:none;stroke-width:.13333"/><g clip-path="url(#C)" transform="matrix(.13333 0 0 -.13333 2280.99 2123.014)"><path d="M1296.67 10404.8H23461v247l-22164.33 71.5v-318.5" style="fill:#28a0f9;fill-opacity:1;fill-rule:nonzero;stroke:none"/></g><path d="M5091.187 647.757a17.338 17.338 0 0 0 11.853 16.453l41.026 13.666a85.555 85.555 0 0 0 62.145-3.12 85.705 85.705 0 0 1 35.065-7.506h55.706a647.795 647.795 0 0 0-63.879-38.786H5110.48c-10.653 0-19.293 8.64-19.293 19.293m-238.62-10.28h17.585c3.707 0 6.72 3 6.72 6.72v28.506c0 3.72-3.013 6.72-6.72 6.72h-17.586c-3.706 0-6.72-3-6.72-6.72v-28.506c0-3.72 3.014-6.72 6.72-6.72m-54.185 0h17.586c3.707 0 6.72 3 6.72 6.72v28.506c0 3.72-3.013 6.72-6.72 6.72h-17.586c-3.72 0-6.72-3-6.72-6.72v-28.506c0-3.72 3-6.72 6.72-6.72m-54.199 0h17.6c3.706 0 6.706 3 6.706 6.72v28.506c0 3.72-3 6.72-6.706 6.72h-17.6c-3.706 0-6.72-3-6.72-6.72v-28.506c0-3.72 3.013-6.72 6.72-6.72m-54.185 0h17.586c3.72 0 6.72 3 6.72 6.72v28.506c0 3.72-3 6.72-6.72 6.72h-17.586c-3.707 0-6.72-3-6.72-6.72v-28.506c0-3.72 3.013-6.72 6.72-6.72m-54.186 0h17.587c3.706 0 6.72 3 6.72 6.72v28.506c0 3.72-3.014 6.72-6.72 6.72h-17.587c-3.706 0-6.72-3-6.72-6.72v-28.506c0-3.72 3.014-6.72 6.72-6.72m-54.185 0h17.586c3.707 0 6.72 3 6.72 6.72v28.506c0 3.72-3.013 6.72-6.72 6.72h-17.586c-3.72 0-6.72-3-6.72-6.72v-28.506c0-3.72 3-6.72 6.72-6.72m-54.185 0h17.586c3.707 0 6.72 3 6.72 6.72v28.506c0 3.72-3.013 6.72-6.72 6.72h-17.586c-3.72 0-6.72-3-6.72-6.72v-28.506c0-3.72 3-6.72 6.72-6.72m-54.199 0h17.586c3.72 0 6.72 3 6.72 6.72v28.506c0 3.72-3 6.72-6.72 6.72h-17.586c-3.706 0-6.72-3-6.72-6.72v-28.506c0-3.72 3.014-6.72 6.72-6.72m-54.185 0h17.586c3.72 0 6.72 3 6.72 6.72v28.506c0 3.72-3 6.72-6.72 6.72h-17.586c-3.707 0-6.72-3-6.72-6.72v-28.506c0-3.72 3.013-6.72 6.72-6.72m-54.185 0h17.586c3.706 0 6.72 3 6.72 6.72v28.506c0 3.72-3.014 6.72-6.72 6.72h-17.586c-3.707 0-6.72-3-6.72-6.72v-28.506c0-3.72 3.013-6.72 6.72-6.72m-54.186 0h17.586c3.707 0 6.72 3 6.72 6.72v28.506c0 3.72-3.013 6.72-6.72 6.72h-17.586c-3.72 0-6.72-3-6.72-6.72v-28.506c0-3.72 3-6.72 6.72-6.72m-54.198 0h17.6c3.706 0 6.719 3 6.719 6.72v28.506c0 3.72-3.013 6.72-6.72 6.72h-17.6c-3.706 0-6.706-3-6.706-6.72v-28.506c0-3.72 3-6.72 6.707-6.72m-54.186 0h17.587c3.72 0 6.72 3 6.72 6.72v28.506c0 3.72-3 6.72-6.72 6.72h-17.587c-3.706 0-6.72-3-6.72-6.72v-28.506c0-3.72 3.014-6.72 6.72-6.72m-54.185 0h17.586c3.72 0 6.72 3 6.72 6.72v28.506c0 3.72-3 6.72-6.72 6.72h-17.586c-3.707 0-6.72-3-6.72-6.72v-28.506c0-3.72 3.013-6.72 6.72-6.72m-54.185 0h17.586c3.706 0 6.72 3 6.72 6.72v28.506c0 3.72-3.014 6.72-6.72 6.72h-17.586c-3.707 0-6.72-3-6.72-6.72v-28.506c0-3.72 3.013-6.72 6.72-6.72m-229.861 0h17.586c3.707 0 6.72 3 6.72 6.72v28.506c0 3.72-3.013 6.72-6.72 6.72h-17.586c-3.72 0-6.72-3-6.72-6.72v-28.506c0-3.72 3-6.72 6.72-6.72m-54.199 0h17.6c3.706 0 6.72 3 6.72 6.72v28.506c0 3.72-3.014 6.72-6.72 6.72h-17.6c-3.706 0-6.706-3-6.706-6.72v-28.506c0-3.72 3-6.72 6.706-6.72m-54.185 0h17.586c3.72 0 6.72 3 6.72 6.72v28.506c0 3.72-3 6.72-6.72 6.72h-17.586c-3.707 0-6.72-3-6.72-6.72v-28.506c0-3.72 3.013-6.72 6.72-6.72m-54.186 0h17.587c3.72 0 6.72 3 6.72 6.72v28.506c0 3.72-3 6.72-6.72 6.72H3701.5c-3.706 0-6.72-3-6.72-6.72v-28.506c0-3.72 3.014-6.72 6.72-6.72m-54.185 0h17.586c3.707 0 6.72 3 6.72 6.72v28.506c0 3.72-3.013 6.72-6.72 6.72h-17.586c-3.72 0-6.72-3-6.72-6.72v-28.506c0-3.72 3-6.72 6.72-6.72m-54.19 0h17.588c3.71 0 6.723 3 6.723 6.72v28.506c0 3.72-3.013 6.72-6.723 6.72h-17.588c-3.711 0-6.72-3-6.72-6.72v-28.506c0-3.72 3.009-6.72 6.72-6.72m-54.188 0h17.588c3.711 0 6.719 3 6.719 6.72v28.506c0 3.72-3.008 6.72-6.719 6.72h-17.588c-3.711 0-6.72-3-6.72-6.72v-28.506c0-3.72 3.009-6.72 6.72-6.72m-54.188 0h17.588c3.711 0 6.719 3 6.719 6.72v28.506c0 3.72-3.008 6.72-6.719 6.72h-17.588c-3.711 0-6.72-3-6.72-6.72v-28.506c0-3.72 3.009-6.72 6.72-6.72m-54.188 0h17.588c3.711 0 6.719 3 6.719 6.72v28.506c0 3.72-3.008 6.72-6.719 6.72h-17.588c-3.71 0-6.72-3-6.72-6.72v-28.506c0-3.72 3.01-6.72 6.72-6.72m-54.188 0h17.588c3.711 0 6.719 3 6.719 6.72v28.506c0 3.72-3.008 6.72-6.719 6.72h-17.588c-3.712 0-6.72-3-6.72-6.72v-28.506c0-3.72 3.008-6.72 6.72-6.72m-54.188 0h17.589c3.71 0 6.718 3 6.718 6.72v28.506c0 3.72-3.008 6.72-6.718 6.72h-17.59c-3.711 0-6.72-3-6.72-6.72v-28.506c0-3.72 3.009-6.72 6.72-6.72m-54.189 0h17.59c3.711 0 6.718 3 6.718 6.72v28.506c0 3.72-3.007 6.72-6.719 6.72h-17.589c-3.71 0-6.718-3-6.718-6.72v-28.506c0-3.72 3.008-6.72 6.718-6.72m-54.188 0h17.59c3.71 0 6.718 3 6.718 6.72v28.506c0 3.72-3.008 6.72-6.719 6.72h-17.589c-3.71 0-6.718-3-6.718-6.72v-28.506c0-3.72 3.008-6.72 6.718-6.72m-54.188 0h17.59c3.71 0 6.718 3 6.718 6.72v28.506c0 3.72-3.008 6.72-6.719 6.72h-17.589c-3.71 0-6.718-3-6.718-6.72v-28.506c0-3.72 3.008-6.72 6.718-6.72m-54.188 0h17.59c3.71 0 6.718 3 6.718 6.72v28.506c0 3.72-3.008 6.72-6.719 6.72h-17.589c-3.712 0-6.718-3-6.718-6.72v-28.506c0-3.72 3.006-6.72 6.718-6.72" style="fill:#646568;fill-opacity:1;fill-rule:nonzero;stroke:none;stroke-width:.13333"/><path d="m3303.84 691.37-147.646-123.504-98.488.906 50.386 124.397 195.748-1.8" style="fill:#9e9e9e;fill-opacity:1;fill-rule:nonzero;stroke:none;stroke-width:.13333"/><path d="m4589.733 813.593 55.825-21.92s-133.383-44.758-357.445-42.718c-224.06 2.053-565.679 12.92-774.975-22.333 0 0 472.89 109.144 515.995 110.33 43.106 1.2 560.6-23.359 560.6-23.359" style="fill:#f60;fill-opacity:1;fill-rule:nonzero;stroke:none;stroke-width:.13333"/><path d="M4645.558 791.674s-890.205-2.96-1341.719-100.305l-195.747 1.8s462.034 170.183 949.56 165.73c0 0 588.773 27.906 587.906-67.225M2444.305 617.97l491.982 14.04c25.894.733 35.22 34.532 13.372 48.439a26.245 26.245 0 0 1-17.665 3.88l-487.689-66.359" style="fill:#b1b3b5;fill-opacity:1;fill-rule:nonzero;stroke:none;stroke-width:.13333"/><path d="M4106.505 890.138v7.306l42.612 24.693v-57.065l-42.612 25.066" style="fill:#1a1a1a;fill-opacity:1;fill-rule:nonzero;stroke:none;stroke-width:.13333"/><path d="M4149.117 865.072v-7.507l30.093-8.693v93.118l-30.093-11.707v-65.211" style="fill:#3d3c3c;fill-opacity:1;fill-rule:nonzero;stroke:none;stroke-width:.13333"/><path d="m4455.11 952.176-21.12 8.347v-135.73l21.12 8.346v119.037" style="fill:#666;fill-opacity:1;fill-rule:nonzero;stroke:none;stroke-width:.13333"/><path d="M4386.938 814.273c31.292 0 46.932 10.52 46.932 10.52v135.73s-15.64 10.52-46.932 10.52c-41.04 0-135.637-10.294-184.182-15.907-17.067-1.987-29.92-16.013-29.92-32.692v-59.572c0-16.68 12.853-30.72 29.92-32.693 48.545-5.613 143.143-15.906 184.182-15.906" style="fill:#c2bbbe;fill-opacity:1;fill-rule:nonzero;stroke:none;stroke-width:.13333"/><g clip-path="url(#D)" transform="matrix(.13333 0 0 -.13333 2280.99 2123.014)"><path d="M15795 9815.8c234.7 0 352-78.9 352-78.9v-1018s-117.3-78.9-352-78.9c-307.8 0-1017.3 77.2-1381.4 119.3-128 14.9-224.4 120.1-224.4 245.2v446.8c0 125.1 96.4 230.4 224.4 245.2 364.1 42.1 1073.6 119.3 1381.4 119.3" style="fill:#d6d6d6;fill-opacity:1;fill-rule:nonzero;stroke:none"/></g><path d="M4388.351 814.273c2.867 0 5.546.12 8.133.293V970.75c-2.587.173-5.266.293-8.133.293-2.507 0-5.226-.04-8.12-.12V814.393c2.893-.08 5.613-.12 8.12-.12m-18.76.44c2.854 0 5.534-.32 8.134-.147V970.75c-2.6.173-5.28-.147-8.134-.147-2.506 0-5.226-.333-8.12-.4v-155.09c2.894-.08 5.614-.399 8.12-.399" style="fill:#e6e6e6;fill-opacity:1;fill-rule:nonzero;stroke:none;stroke-width:.13333"/><path d="M3843.405 857.792v7.32l42.625 24.692V832.74l-42.625 25.053" style="fill:#1a1a1a;fill-opacity:1;fill-rule:nonzero;stroke:none;stroke-width:.13333"/><path d="M3886.03 832.74v-7.507l30.08-8.707v93.131l-30.08-11.706v-65.212" style="fill:#3d3c3c;fill-opacity:1;fill-rule:nonzero;stroke:none;stroke-width:.13333"/><path d="m4192.01 919.844-21.12 8.333V792.46l21.12 8.333v119.05" style="fill:#666;fill-opacity:1;fill-rule:nonzero;stroke:none;stroke-width:.13333"/><path d="M4123.851 781.94c31.28 0 46.919 10.52 46.919 10.52v135.717s-15.64 10.52-46.919 10.52c-41.039 0-135.637-10.294-184.182-15.907-17.08-1.973-29.92-16.013-29.92-32.679V830.54c0-16.68 12.84-30.719 29.92-32.692 48.545-5.613 143.143-15.907 184.182-15.907" style="fill:#c2bbbe;fill-opacity:1;fill-rule:nonzero;stroke:none;stroke-width:.13333"/><g clip-path="url(#E)" transform="matrix(.13333 0 0 -.13333 2280.99 2123.014)"><path d="M13821.8 10058.3c234.6 0 351.9-78.9 351.9-78.9V8961.5s-117.3-78.9-351.9-78.9c-307.8 0-1017.3 77.2-1381.4 119.3-128.1 14.8-224.4 120.1-224.4 245.1v446.8c0 125.1 96.3 230.4 224.4 245.2 364.1 42.1 1073.6 119.3 1381.4 119.3" style="fill:#d6d6d6;fill-opacity:1;fill-rule:nonzero;stroke:none"/></g><path d="M4125.264 781.94c2.853 0 5.533.12 8.133.28v156.197c-2.6.173-5.28.28-8.133.28-2.506 0-5.226-.04-8.12-.12V782.06c2.894-.08 5.614-.12 8.12-.12m-18.76.44c2.854 0 5.534-.32 8.12-.16v156.197c-2.586.173-5.266-.147-8.12-.147-2.52 0-5.24-.333-8.132-.413V782.78c2.893-.08 5.613-.4 8.133-.4" style="fill:#e6e6e6;fill-opacity:1;fill-rule:nonzero;stroke:none;stroke-width:.13333"/><path d="M4953.137 596.358h14.786c17.733 0 32.106 14.373 32.106 32.106v59.972c0 17.733-14.373 32.106-32.106 32.106h-14.786c-17.733 0-32.106-14.373-32.106-32.106v-59.972c0-17.733 14.373-32.106 32.106-32.106" style="fill:#dedde2;fill-opacity:1;fill-rule:nonzero;stroke:none;stroke-width:.13333"/><path d="M4953.137 597.185c-17.266 0-31.293 14.026-31.293 31.28v59.971c0 17.253 14.027 31.28 31.293 31.28h14.786c17.253 0 31.293-14.027 31.293-31.28v-59.972c0-17.253-14.04-31.279-31.293-31.279zm14.786 124.17h-14.786c-18.16 0-32.933-14.773-32.933-32.919v-59.972c0-18.146 14.773-32.919 32.933-32.919h14.786c18.146 0 32.92 14.773 32.92 32.92v59.971c0 18.146-14.774 32.92-32.92 32.92" style="fill:#999;fill-opacity:1;fill-rule:nonzero;stroke:none;stroke-width:.13333"/><path d="M4979.043 645.57c0 9.587-7.773 17.347-17.36 17.347-9.586 0-17.346-7.76-17.346-17.346 0-9.587 7.76-17.347 17.346-17.347 9.587 0 17.36 7.76 17.36 17.347" style="fill:#646568;fill-opacity:1;fill-rule:nonzero;stroke:none;stroke-width:.13333"/><path d="M3966.628 596.358h14.786c17.733 0 32.106 14.373 32.106 32.106v59.972c0 17.733-14.373 32.106-32.105 32.106h-14.787c-17.733 0-32.119-14.373-32.119-32.106v-59.972c0-17.733 14.386-32.106 32.12-32.106" style="fill:#dedde2;fill-opacity:1;fill-rule:nonzero;stroke:none;stroke-width:.13333"/><path d="M3966.628 597.185c-17.266 0-31.292 14.026-31.292 31.28v59.971c0 17.253 14.026 31.28 31.292 31.28h14.786c17.253 0 31.293-14.027 31.293-31.28v-59.972c0-17.253-14.04-31.279-31.292-31.279zm14.786 124.17h-14.786c-18.16 0-32.932-14.773-32.932-32.919v-59.972c0-18.146 14.773-32.919 32.932-32.919h14.786c18.147 0 32.92 14.773 32.92 32.92v59.971c0 18.146-14.773 32.92-32.92 32.92" style="fill:#999;fill-opacity:1;fill-rule:nonzero;stroke:none;stroke-width:.13333"/><path d="M3992.534 645.57c0 9.587-7.773 17.347-17.36 17.347-9.586 0-17.346-7.76-17.346-17.346 0-9.587 7.76-17.347 17.347-17.347 9.586 0 17.36 7.76 17.36 17.347" style="fill:#646568;fill-opacity:1;fill-rule:nonzero;stroke:none;stroke-width:.13333"/></svg>