<svg width="606.433" height="364.158" viewBox="0 0 160.452 96.35" xml:space="preserve" xmlns="http://www.w3.org/2000/svg"><path d="m796.26 588.255-604.698.421a.87 1.634 0 0 1 0-3.267l604.698-.421a.87 1.634 0 0 1 0 3.267z" fill="#cacaca" style="stroke-width:1.00173" transform="matrix(.26458 0 0 .26458 -50.455 -59.404)"/><g transform="matrix(.26458 0 0 .26458 -48.292 -59.404)"><path d="M259.398 238.297v287.024a13.806 13.806 0 0 0 13.795 13.795h425.34a13.806 13.806 0 0 0 13.794-13.795V238.297a13.812 13.812 0 0 0-13.794-13.78h-425.34a13.812 13.812 0 0 0-13.795 13.78z" fill="#3f3d56"/><path d="M269.376 241.869V521.78a7.385 7.385 0 0 0 7.373 7.372h418.243a7.385 7.385 0 0 0 7.373-7.372V241.869a7.389 7.389 0 0 0-7.373-7.388H276.749a7.389 7.389 0 0 0-7.373 7.388z" fill="#fff"/><path d="M250.502 581.299a8.272 8.272 0 0 0 6.509 3.114h455.44a8.38 8.38 0 0 0 8.191-10.1l-7.07-33.581a8.396 8.396 0 0 0-5.218-6.088 8.12 8.12 0 0 0-2.974-.561H264.053a8.12 8.12 0 0 0-2.974.56 8.395 8.395 0 0 0-5.218 6.089l-7.07 33.581a8.374 8.374 0 0 0 1.711 6.986z" fill="#2f2e41"/><rect x="873.553" y="696.293" width="14.027" height="8.416" rx=".488" transform="rotate(180 787.85 622.42)" fill="#3f3d56"/><rect x="845.498" y="696.293" width="14.027" height="8.416" rx=".488" transform="rotate(180 759.794 622.42)" fill="#3f3d56"/><rect x="817.443" y="696.293" width="14.027" height="8.416" rx=".488" transform="rotate(180 731.74 622.42)" fill="#3f3d56"/><rect x="789.389" y="696.293" width="14.027" height="8.416" rx=".488" transform="rotate(180 703.685 622.42)" fill="#3f3d56"/><rect x="761.334" y="696.293" width="14.027" height="8.416" rx=".488" transform="rotate(180 675.63 622.42)" fill="#3f3d56"/><rect x="733.279" y="696.293" width="14.027" height="8.416" rx=".488" transform="rotate(180 647.576 622.42)" fill="#3f3d56"/><rect x="705.225" y="696.293" width="14.027" height="8.416" rx=".488" transform="rotate(180 619.521 622.42)" fill="#3f3d56"/><rect x="677.17" y="696.293" width="14.027" height="8.416" rx=".488" transform="rotate(180 591.467 622.42)" fill="#3f3d56"/><rect x="649.115" y="696.293" width="14.027" height="8.416" rx=".488" transform="rotate(180 563.412 622.42)" fill="#3f3d56"/><rect x="621.061" y="696.293" width="14.027" height="8.416" rx=".488" transform="rotate(180 535.357 622.42)" fill="#3f3d56"/><rect x="593.006" y="696.293" width="14.027" height="8.416" rx=".488" transform="rotate(180 507.303 622.42)" fill="#3f3d56"/><rect x="564.952" y="696.293" width="14.027" height="8.416" rx=".488" transform="rotate(180 479.248 622.42)" fill="#3f3d56"/><rect x="536.897" y="696.293" width="14.027" height="8.416" rx=".488" transform="rotate(180 451.193 622.42)" fill="#3f3d56"/><rect x="508.842" y="696.293" width="14.027" height="8.416" rx=".488" transform="rotate(180 423.139 622.42)" fill="#3f3d56"/><rect x="480.788" y="696.293" width="14.027" height="8.416" rx=".488" transform="rotate(180 395.084 622.42)" fill="#3f3d56"/><rect x="452.733" y="696.293" width="14.027" height="8.416" rx=".488" transform="rotate(180 367.03 622.42)" fill="#3f3d56"/><rect x="873.884" y="710.32" width="14.027" height="8.416" rx=".488" transform="rotate(180 788.18 636.447)" fill="#3f3d56"/><rect x="845.829" y="710.32" width="14.027" height="8.416" rx=".488" transform="rotate(180 760.126 636.447)" fill="#3f3d56"/><rect x="817.775" y="710.32" width="14.027" height="8.416" rx=".488" transform="rotate(180 732.071 636.447)" fill="#3f3d56"/><rect x="789.72" y="710.32" width="14.027" height="8.416" rx=".488" transform="rotate(180 704.017 636.447)" fill="#3f3d56"/><rect x="761.666" y="710.32" width="14.027" height="8.416" rx=".488" transform="rotate(180 675.962 636.447)" fill="#3f3d56"/><rect x="733.611" y="710.32" width="14.027" height="8.416" rx=".488" transform="rotate(180 647.907 636.447)" fill="#3f3d56"/><rect x="705.556" y="710.32" width="14.027" height="8.416" rx=".488" transform="rotate(180 619.853 636.447)" fill="#3f3d56"/><rect x="677.502" y="710.32" width="14.027" height="8.416" rx=".488" transform="rotate(180 591.798 636.447)" fill="#3f3d56"/><rect x="649.447" y="710.32" width="14.027" height="8.416" rx=".488" transform="rotate(180 563.743 636.447)" fill="#3f3d56"/><rect x="621.392" y="710.32" width="14.027" height="8.416" rx=".488" transform="rotate(180 535.689 636.447)" fill="#3f3d56"/><rect x="593.338" y="710.32" width="14.027" height="8.416" rx=".488" transform="rotate(180 507.634 636.447)" fill="#3f3d56"/><rect x="565.283" y="710.32" width="14.027" height="8.416" rx=".488" transform="rotate(180 479.58 636.447)" fill="#3f3d56"/><rect x="537.228" y="710.32" width="14.027" height="8.416" rx=".488" transform="rotate(180 451.525 636.447)" fill="#3f3d56"/><rect x="509.174" y="710.32" width="14.027" height="8.416" rx=".488" transform="rotate(180 423.47 636.447)" fill="#3f3d56"/><rect x="481.119" y="710.32" width="14.027" height="8.416" rx=".488" transform="rotate(180 395.416 636.447)" fill="#3f3d56"/><rect x="453.065" y="710.32" width="14.027" height="8.416" rx=".488" transform="rotate(180 367.361 636.447)" fill="#3f3d56"/><rect x="610.031" y="727.153" width="112.219" height="8.416" rx=".488" transform="rotate(180 573.423 653.28)" fill="#3f3d56"/><path d="M679.532 285.154H292.21a1.016 1.016 0 0 1 0-2.03h387.323a1.016 1.016 0 0 1 0 2.03z" fill="#cacaca"/><ellipse cx="314.564" cy="259.771" rx="10.925" ry="11.169" fill="#3f3d56"/><ellipse cx="352.306" cy="259.771" rx="10.925" ry="11.169" fill="#3f3d56"/><ellipse cx="390.048" cy="259.771" rx="10.925" ry="11.169" fill="#3f3d56"/><path d="M656.915 251.37h-26.81a2.03 2.03 0 0 0 0 4.06h26.81a2.03 2.03 0 0 0 0-4.06zM656.915 258.99h-26.81a2.03 2.03 0 0 0 0 4.06h26.81a2.03 2.03 0 0 0 0-4.06zM656.915 266.6h-26.81a2.03 2.03 0 0 0 0 4.06h26.81a2.03 2.03 0 0 0 0-4.06zM673.802 488.011h-162.85a3.17 3.17 0 0 1-3.168-3.166V316.178a3.17 3.17 0 0 1 3.167-3.167h162.85a3.17 3.17 0 0 1 3.167 3.167v168.667a3.17 3.17 0 0 1-3.166 3.166Zm-162.85-173.895a2.065 2.065 0 0 0-2.064 2.062v168.667a2.065 2.065 0 0 0 2.063 2.062h162.85a2.065 2.065 0 0 0 2.063-2.062V316.178a2.065 2.065 0 0 0-2.062-2.062Z" fill="#3f3d56"/><path d="M884.428 336.406a63.22 63.22 0 1 1-55.603-33.119c.501 0 1.001.007 1.5.02l-.669-27.006c-.277-.002-.553-.01-.831-.01a90.184 90.184 0 1 0 77.35 43.772z" transform="translate(134.823 198.185) scale(.55205)" fill="#6c63ff" style="fill:#1e3a8a"/><path d="m623.072 383.898 12.006-9.022a49.77 49.77 0 0 0-42.243-24.159l.37 14.908a34.891 34.891 0 0 1 29.867 18.273z" fill="#e6e6e6"/><path fill="#3f3d56" d="m617.11 443.87.616-.611 17.488 17.653-.616.61zM616.798 356.871l12.156-21.673.756.425-12.155 21.672z"/><path d="M929.57 488.815h-46.75a3.138 3.138 0 0 1-3.135-3.133v-6.584a3.138 3.138 0 0 1 3.134-3.134h46.75a3.138 3.138 0 0 1 3.135 3.134v6.584a3.138 3.138 0 0 1-3.135 3.133z" transform="translate(134.823 198.185) scale(.55205)" fill="#6c63ff" style="fill:#1e3a8a"/><path d="M641.45 335.72h-25.81a1.732 1.732 0 0 1-1.73-1.73v-3.635a1.732 1.732 0 0 1 1.73-1.73h25.81a1.732 1.732 0 0 1 1.73 1.73v3.635a1.732 1.732 0 0 1-1.73 1.73z" fill="#e6e6e6"/><path d="M481.752 393.54H297.716a3.02 3.02 0 0 1-3.017-3.016V316.58a3.02 3.02 0 0 1 3.017-3.016h184.036a3.02 3.02 0 0 1 3.017 3.016v73.944a3.02 3.02 0 0 1-3.017 3.016zm-184.036-78.872a1.915 1.915 0 0 0-1.913 1.912v73.944a1.915 1.915 0 0 0 1.913 1.912h184.036a1.915 1.915 0 0 0 1.913-1.912V316.58a1.915 1.915 0 0 0-1.913-1.912Z" fill="#3f3d56"/><path d="M369.456 375.19h-17.831a1.924 1.924 0 0 1-1.895-1.613 74.9 74.9 0 0 1 0-22.796 1.924 1.924 0 0 1 1.895-1.613h17.83a1.9 1.9 0 0 1 1.501.727 1.932 1.932 0 0 1 .361 1.657 45.762 45.762 0 0 0 0 21.253 1.932 1.932 0 0 1-.36 1.657 1.9 1.9 0 0 1-1.501.727zM429.157 375.19h-17.831a1.924 1.924 0 0 1-1.895-1.613 74.9 74.9 0 0 1 0-22.796 1.924 1.924 0 0 1 1.895-1.613h17.831a1.9 1.9 0 0 1 1.5.727 1.931 1.931 0 0 1 .362 1.657 45.763 45.763 0 0 0 0 21.253 1.931 1.931 0 0 1-.361 1.657 1.9 1.9 0 0 1-1.5.727z" fill="#e6e6e6"/><path d="M370.08 289.377h-32.299a3.485 3.485 0 0 1-3.432-2.92 135.677 135.677 0 0 1 0-41.294 3.485 3.485 0 0 1 3.432-2.921h32.3a3.441 3.441 0 0 1 2.718 1.317 3.5 3.5 0 0 1 .654 3.001 82.888 82.888 0 0 0 0 38.5 3.5 3.5 0 0 1-.654 3 3.441 3.441 0 0 1-2.718 1.317zM479.314 289.377h-32.3a3.44 3.44 0 0 1-2.718-1.317 3.498 3.498 0 0 1-.654-3 82.894 82.894 0 0 0 0-38.5 3.499 3.499 0 0 1 .654-3 3.44 3.44 0 0 1 2.718-1.318h32.3a3.485 3.485 0 0 1 3.432 2.92 135.677 135.677 0 0 1 0 41.295 3.485 3.485 0 0 1-3.432 2.92z" transform="translate(134.823 198.185) scale(.55205)" fill="#6c63ff" style="fill:#1e3a8a"/><path d="M585.724 289.377h-32.3a3.44 3.44 0 0 1-2.718-1.317 3.498 3.498 0 0 1-.654-3 82.894 82.894 0 0 0 0-38.5 3.499 3.499 0 0 1 .654-3 3.44 3.44 0 0 1 2.718-1.318h32.3a3.485 3.485 0 0 1 3.432 2.92 135.693 135.693 0 0 1 0 41.295 3.485 3.485 0 0 1-3.432 2.92z" transform="translate(134.823 198.185) scale(.55205)" fill="#ff6584" style="fill:#fa9826"/></g></svg>