<svg xml:space="preserve" width="46.007" height="75.736" xmlns="http://www.w3.org/2000/svg"><path d="M.487 46.89C-.817 55.331.183 63.715 7.405 69.162c5.844 4.407 13.567 5.874 20.714 6.369 5.053.35 10.273.281 15.296-.448 2.313-.336 4.086-3.189.742-2.703-12.31 1.787-32.678 1.355-38.078-12.384-4.843-12.32 2.663-28.76 9.576-38.83 2.94-4.283 6.365-8.46 10.226-12.083l-2.6 9.064c-.702 2.444 3.695 4.405 4.519 1.534L32.57 3.05c.442-1.536-1.641-3.386-3.106-2.998L12.74 4.482c-2.888.765-.775 5.116 1.695 4.462l9.397-2.49C11.844 16.494 2.838 31.665.487 46.89Z"/></svg>