<svg class="custom-logo style-svg lazyloaded replaced-svg svg-replaced-0" height="51" width="183" xmlns="http://www.w3.org/2000/svg"><path d="m108.345 42.5-2.608 8.383h-1.417l-1.757-6.045-.227-.741c0-.057-.057-.171-.113-.4l-.114-.399-.113.4-.114.399-.226.741-1.758 6.045h-1.417L95.93 42.5h.964l1.814 5.988.227.798c0 .057.056.229.113.4l.113.399.114-.4.113-.399.227-.798 1.757-5.988h1.36l1.758 6.045.227.798.17.4.113.399.114-.4.113-.399.227-.798 1.814-5.988h1.077zm5.84-.05c1.587 0 2.55.228 2.948.684.396.457.566 1.597.566 3.48 0 1.995-.17 3.193-.566 3.706-.397.456-1.361.684-2.948.684-1.588 0-2.608-.228-2.948-.684-.397-.456-.567-1.654-.567-3.593v-1.369c0-1.083.227-1.881.737-2.28.51-.457 1.417-.628 2.778-.628zm0 .798c-1.304 0-2.098.171-2.325.457-.226.285-.34 1.311-.34 3.022 0 1.711.114 2.738.34 3.023.227.285 1.02.456 2.325.456 1.304 0 2.097-.171 2.324-.456.227-.285.34-1.312.34-3.023v-1.369c0-.912-.17-1.482-.453-1.767-.34-.229-1.077-.343-2.211-.343zm6.575 7.635V42.5h3.968c.907 0 1.53.171 1.871.513.34.342.567.97.567 1.825 0 .799-.113 1.312-.284 1.597-.226.285-.566.513-1.133.57.907.057 1.304.628 1.304 1.597v2.281h-.964v-1.939c0-.97-.397-1.482-1.247-1.482h-3.118v3.421zm3.685-4.22c.737 0 1.19-.114 1.474-.342.283-.228.397-.627.397-1.255 0-.741-.114-1.254-.284-1.482-.17-.229-.623-.343-1.247-.343h-3.005v3.422zm7.022-4.163v7.47h4.308v.913h-5.215V42.5zm7.143 8.383V42.5h3.855c1.19 0 1.984.285 2.438.798.396.514.623 1.54.623 3.023 0 1.825-.17 3.022-.567 3.65-.397.627-1.134.912-2.267.912zm.907-.798h2.721c1.02 0 1.644-.228 1.928-.627.283-.4.453-1.312.453-2.68 0-1.54-.113-2.51-.397-2.91-.227-.399-.85-.627-1.814-.627h-2.891zm20.868-7.585-2.608 8.383h-1.417l-1.757-6.045-.227-.741c0-.057-.057-.171-.114-.4l-.113-.399-.113.4-.114.399-.226.741-1.758 6.045h-1.417L147.97 42.5h.964l1.814 5.988.227.798c0 .057.056.229.113.4l.113.399.114-.4.113-.399.227-.798 1.757-5.988h1.36l1.758 6.045.227.798.113.4.114.399.113-.4.113-.399.227-.798 1.814-5.988h1.134zm3.739 0h-.964v8.383h.964zm3.566 8.383V42.5h3.855c1.19 0 1.984.285 2.438.798.396.514.623 1.54.623 3.023 0 1.825-.17 3.022-.567 3.65-.397.627-1.134.912-2.267.912zm.964-.798h2.72c1.021 0 1.645-.228 1.928-.627.284-.4.454-1.312.454-2.68 0-1.54-.114-2.51-.397-2.91-.227-.399-.85-.627-1.814-.627h-2.891zm9.81-6.787v2.852h4.195v.798h-4.195v3.137h4.421v.798H177.5V42.5h5.385v.798z" fill="#fff" style="fill:#666"/><path d="M16.96 3.153c1.305 2.338.454 5.246-1.813 6.5A4.711 4.711 0 0 1 8.684 7.83c-1.304-2.338-.453-5.247 1.814-6.501 2.268-1.312 5.159-.456 6.463 1.825z" fill="#96ca54" class="color-green"/><path d="M20.018 44.33C13.16 39.54 4.542 25.17 22.06 11.997c.397-.285.68-.913-.17-.514-15.59 7.015-17.914 0-18.027-4.277-.057-1.597-.623-.855-.964.057-9.75 25.036 7.483 35.13 16.554 37.81 1.303.4 1.53-.057.566-.741z" fill="#96ca54" class="color-green"/><path d="M37.595 30.754h2.608v.97c0 3.82-2.494 5.76-7.483 5.76-3.175 0-5.329-.628-6.35-1.826-1.02-1.197-1.53-3.707-1.53-7.47 0-3.536.51-5.931 1.587-7.186 1.02-1.255 3.062-1.882 5.953-1.882 2.89 0 4.875.456 5.895 1.255 1.077.855 1.588 2.452 1.588 4.79h-2.608v-.513c0-1.369-.34-2.281-1.02-2.795-.68-.456-2.041-.684-4.082-.684-1.984 0-3.231.456-3.798 1.312-.567.855-.85 2.851-.85 5.874 0 2.965.34 4.847.963 5.645.624.799 2.154 1.198 4.479 1.198 1.984 0 3.23-.285 3.798-.798.567-.457.85-1.711.85-3.65zM48.758 11.65H46.15v25.549h2.608zm19.217 20.134h2.665v.628c0 1.882-.567 3.136-1.701 3.878-1.134.741-3.061 1.14-5.896 1.14-3.288 0-5.442-.627-6.462-1.825-1.02-1.197-1.531-3.706-1.531-7.584 0-3.593.51-5.931 1.53-7.186 1.021-1.198 3.062-1.825 6.066-1.825 3.288 0 5.443.513 6.406 1.597 1.02 1.083 1.53 3.307 1.53 6.672v1.426H57.829c0 2.794.283 4.62.907 5.36.623.799 1.984 1.141 4.195 1.141 2.097 0 3.458-.17 4.081-.57.624-.342.964-1.14.964-2.395zm0-5.075v-.856c0-1.939-.34-3.193-.964-3.763-.623-.57-1.984-.856-4.081-.856-2.098 0-3.458.342-4.082 1.027-.623.684-.964 2.167-.964 4.448zm9.012-7.414h2.607l-.056 2.68.056.058c1.02-1.996 2.948-3.023 5.783-3.023 3.004 0 4.818 1.027 5.498 3.023h.057c1.134-1.996 3.175-3.023 6.123-3.023 4.195 0 6.292 2.167 6.292 6.444v11.748h-2.607V25.226c0-1.597-.284-2.623-.85-3.193-.568-.57-1.588-.856-3.175-.856-2.041 0-3.458.4-4.195 1.14-.737.8-1.078 2.282-1.078 4.449v10.436h-2.607v-11.69l-.057-.8c0-2.28-1.304-3.478-3.912-3.478-3.57 0-5.328 1.94-5.328 5.817v10.151H76.93V19.295zm48.753 12.109v.628c0 1.882-.567 3.136-1.701 3.878-1.134.741-3.061 1.14-5.896 1.14-3.288 0-5.442-.627-6.462-1.825-1.02-1.197-1.531-3.707-1.531-7.584 0-3.593.51-5.931 1.53-7.186 1.021-1.198 3.062-1.825 6.066-1.825 3.288 0 5.443.513 6.406 1.597 1.02 1.083 1.53 3.307 1.53 6.672v1.426h-12.81c0 2.794.283 4.62.906 5.36.624.799 1.984 1.141 4.195 1.141 2.098 0 3.458-.17 4.082-.57.623-.342.964-1.14.964-2.395v-.457zm-2.665-5.075v-.856c0-1.939-.34-3.193-.964-3.763-.623-.57-1.984-.856-4.081-.856-2.098 0-3.458.342-4.082 1.027-.623.684-.964 2.167-.964 4.448zm9.075-7.041h2.494l-.056 2.452.056.057c.794-1.825 2.778-2.737 5.896-2.737 2.551 0 4.252.456 5.159 1.369.907.912 1.36 2.623 1.36 5.132v11.634h-2.607v-12.09c0-1.54-.284-2.566-.85-3.08-.568-.513-1.701-.798-3.345-.798-3.629 0-5.5 1.711-5.5 5.19v10.778h-2.607zm31.295-.001v2.167h-6.86v10.95c0 1.882.85 2.851 2.551 2.851s2.495-.855 2.495-2.566v-.855l.056-.97h2.438v1.312c0 3.535-1.644 5.246-4.989 5.246-3.458 0-5.158-1.482-5.158-4.39V21.453h-2.438v-2.167h2.438V15.01h2.607v4.277zm19.045 4.686h-2.609c0-1.255-.226-1.996-.736-2.339-.51-.285-1.815-.456-3.855-.456-1.928 0-3.175.171-3.685.456-.51.343-.794 1.084-.794 2.282 0 1.824.85 2.794 2.608 2.851l2.097.114 2.665.114c3.231.171 4.818 1.882 4.818 5.076 0 1.996-.51 3.364-1.587 4.106-1.077.741-3.004 1.14-5.839 1.14-2.891 0-4.932-.342-6.009-1.083-1.077-.685-1.644-1.996-1.644-3.935v-.97h2.721v.856c0 1.197.284 1.939.907 2.338.567.4 1.757.57 3.515.57 2.154 0 3.571-.228 4.252-.627.68-.4 1.02-1.255 1.02-2.566 0-1.882-.85-2.852-2.551-2.852-3.968 0-6.576-.342-7.823-1.026-1.247-.685-1.87-2.053-1.87-4.163 0-1.996.51-3.365 1.473-3.992.964-.685 2.948-1.027 5.896-1.027 4.705 0 7.086 1.426 7.086 4.277v.856z" fill="#fff" style="fill:#666"/></svg>