<svg version="1.1" id="Layer_1" x="0" y="0" xml:space="preserve" width="365.4" height="365.4" xmlns="http://www.w3.org/2000/svg"><style type="text/css" id="style2">.st0{fill:#fff}</style><g id="g10" style="fill:#62bb46;fill-opacity:1" transform="translate(-135.8 -222)"><path class="st0" d="M176.1 398.3c-6.2 0-12.5 8-14.1 22.4h27.3c-.5-14.1-6.9-22.4-13.2-22.4z" id="path4" style="fill:#62bb46;fill-opacity:1"/><path class="st0" d="M448.8 399.3c-10.1 0-19.2 11.5-19.2 28.1 0 15.8 7.5 25.7 16.4 25.7 8.1 0 18.7-13.2 18.7-33.5 0-3.2-.2-6.3-.3-9.3-3.9-7.3-9.2-11-15.6-11z" id="path6" style="fill:#62bb46;fill-opacity:1"/><path class="st0" d="M318.5 222c-100.9 0-182.7 81.8-182.7 182.7 0 100.9 81.8 182.7 182.7 182.7 100.9 0 182.7-81.8 182.7-182.7 0-100.9-81.8-182.7-182.7-182.7Zm75.1 140.7c3.6 0 7.1 3.4 7.1 7.3 0 3.7-3.4 7.1-7.1 7.1-3.7 0-7.2-3.4-7.2-7.1 0-3.9 3.4-7.3 7.2-7.3zm-212.8 98.5c-18.4 0-32.8-15.1-32.8-35.4 0-19.2 13.3-34.1 28.3-34.1 14.6 0 26.8 13.8 26.8 36.1H162c1.3 16.1 10.7 25.7 21.6 25.7 6 0 12.2-2.9 16.7-8.5l4.7 4.4c-6.5 7.7-14.9 11.8-24.2 11.8zm92-1.1h-13.2v-17.2l-2.9 5c-4.9 8.5-12.4 13.3-20.5 13.3-10.6 0-17.1-7-17.1-18.7v-39.8h-12.7v-5.4l25.8-4.7V444c0 5.7 2.9 9.1 7.2 9.1 5.5 0 11.4-5.7 17.1-17.1l3.1-6.2v-37.1h13.2zm47.5 1.1c-18.5 0-32.5-15-32.5-34.8 0-19.5 14.3-34.8 31.5-34.8 7.3 0 13.8 2.8 18.9 8l-4.2 4.2c-3.4-3.1-7-4.7-10.9-4.7-11.1 0-21.3 11.5-21.3 27.8 0 15.6 10.1 26.5 21.8 26.5 6.5 0 12.8-2.9 17.4-8.5l4.7 4.4c-6.4 7.7-15.2 11.9-25.4 11.9zm45.6-1.1h-13.2V358.3H340V353l25.8-4.7v111.8zm35.1 0h-13.2v-57.4h-12.7v-5.4l25.8-4.7v67.5zm63.4 0v-14.6c-5.5 10.4-13 15.8-22.3 15.8-14.6 0-26.2-13.5-26.2-33.3 0-21.1 13.5-36.2 30.4-36.2 7.6 0 14 3.4 18 9.9v-43.2h-12.7V353l25.8-4.7v104.5H489v7.3z" id="path8" style="fill:#62bb46;fill-opacity:1"/></g></svg>