<svg xmlns="http://www.w3.org/2000/svg" width="159" aria-labelledby="svg-logo-title" viewBox="0 0 433.988 108"><title>FS-ISAC</title><defs><linearGradient id="a" x1="63.637" x2="118.088" y1="17.4" y2="71.851" gradientUnits="userSpaceOnUse"><stop offset=".212" stop-color="#494cdb"/><stop offset=".347" stop-color="#4447cf"/><stop offset=".585" stop-color="#393cb1"/><stop offset=".897" stop-color="#272981"/><stop offset="1" stop-color="#212370"/></linearGradient><linearGradient id="b" x1="105.829" x2="54.588" y1="79.568" y2="28.327" gradientUnits="userSpaceOnUse"><stop offset="0" stop-color="#00bcff"/><stop offset=".935" stop-color="#1c3e5e"/></linearGradient><linearGradient id="c" x1="37.704" x2="88.931" y1="77.815" y2="26.589" gradientUnits="userSpaceOnUse"><stop offset=".217" stop-color="#75e078"/><stop offset=".328" stop-color="#71db74"/><stop offset=".454" stop-color="#67cd6a"/><stop offset=".587" stop-color="#56b759"/><stop offset=".724" stop-color="#3f9741"/><stop offset=".864" stop-color="#226f23"/><stop offset="1" stop-color="#004100"/></linearGradient></defs><path fill="#231f20" d="M153.22 30.084h36.421v9.566h-25.898v10.182h22.823v9.566h-22.823v18.518H153.22zm40.295 40.862 6.218-7.448c4.305 3.553 8.815 5.808 14.282 5.808 4.305 0 6.901-1.708 6.901-4.51v-.137c0-2.665-1.64-4.031-9.635-6.082-9.635-2.459-15.853-5.125-15.853-14.623v-.137c0-8.679 6.97-14.418 16.741-14.418 6.97 0 12.915 2.186 17.766 6.082l-5.467 7.927c-4.237-2.939-8.405-4.715-12.436-4.715s-6.15 1.845-6.15 4.168v.137c0 3.143 2.05 4.168 10.318 6.286 9.703 2.528 15.17 6.013 15.17 14.349v.137c0 9.498-7.243 14.828-17.561 14.828-7.243 0-14.554-2.528-20.294-7.653Zm43.652-19.201h21.046v9.976h-21.046zm26.841-21.661h10.523v47.832h-10.523zm17.285 40.862 6.218-7.448c4.305 3.553 8.815 5.808 14.281 5.808 4.305 0 6.902-1.708 6.902-4.51v-.137c0-2.665-1.64-4.031-9.635-6.082-9.635-2.459-15.853-5.125-15.853-14.623v-.137c0-8.679 6.97-14.418 16.741-14.418 6.97 0 12.915 2.186 17.766 6.082l-5.467 7.927c-4.237-2.939-8.405-4.715-12.436-4.715s-6.15 1.845-6.15 4.168v.137c0 3.143 2.05 4.168 10.318 6.286 9.703 2.528 15.169 6.013 15.169 14.349v.137c0 9.498-7.243 14.828-17.561 14.828-7.243 0-14.554-2.528-20.294-7.653Zm60.072-41.204h9.703l20.499 48.174h-11.001l-4.373-10.728h-20.226l-4.373 10.728h-10.728zm11.07 28.153-6.355-15.511-6.355 15.511zm18.417-3.758V54c0-13.598 10.25-24.736 24.941-24.736 9.02 0 14.418 3.007 18.86 7.38l-6.697 7.721c-3.69-3.348-7.448-5.398-12.232-5.398-8.063 0-13.871 6.697-13.871 14.896V54c0 8.199 5.671 15.033 13.871 15.033 5.467 0 8.815-2.187 12.573-5.603l6.697 6.765c-4.92 5.261-10.387 8.541-19.611 8.541-14.077 0-24.531-10.865-24.531-24.599"/><path fill="url(#a)" d="M125.873 45.579a44 44 0 0 1-2.793 4.204c-1.403 1.88-2.97 3.714-4.518 5.258l-.554.54c-.168.163-.341.318-.513.477a40 40 0 0 1-9.971 6.675 39.6 39.6 0 0 1-8.21 2.811 40 40 0 0 1-8.786.967 39.9 39.9 0 0 1-15.379-3.065A40.13 40.13 0 0 0 92.05 50.142a40 40 0 0 0 2.389-3.651 40.3 40.3 0 0 0-10.158-11.638 40 40 0 0 0-9.132-5.317 39.6 39.6 0 0 0-9.413-2.625 40 40 0 0 0-5.966-.44 39.8 39.8 0 0 0-17.509 4.028 63 63 0 0 1 4.159-2.266c8.709-4.332 18.526-6.766 28.915-6.766 11.62 0 22.526 3.051 31.967 8.391a61 61 0 0 1 3.356 2.039 64 64 0 0 1 7.769 5.903 71 71 0 0 1 7.447 7.778Z"/><path fill="url(#b)" d="M131.672 54.002c-11.143 19.253-31.858 32.28-55.646 32.525a41 41 0 0 0 3.782-.241 53 53 0 0 1-4.818.245h-.014c-.114 0-.222 0-.336-.005-12.61-.213-23.793-6.262-30.981-15.556a41 41 0 0 1-2.997-4.459 40 40 0 0 1 4.468-6.248 40.2 40.2 0 0 1 13.213-9.994 40.17 40.17 0 0 0 16.805 13.177 39.9 39.9 0 0 0 15.379 3.065c3.02 0 5.962-.331 8.786-.967a39.9 39.9 0 0 0 18.181-9.486c.172-.159.345-.313.513-.477q.28-.26.554-.54a40 40 0 0 0 4.518-5.258 44 44 0 0 0 2.793-4.204 65.4 65.4 0 0 1 5.799 8.423Z"/><path fill="url(#c)" d="M94.438 46.492a40 40 0 0 1-2.389 3.651 39.85 39.85 0 0 0-16.714-3.651 39.8 39.8 0 0 0-16.991 3.778 40.2 40.2 0 0 0-13.213 9.994 39 39 0 0 0-2.08 2.597 40 40 0 0 0-2.388 3.651 41 41 0 0 0 2.997 4.459c7.188 9.295 18.372 15.343 30.981 15.556a65 65 0 0 1-5.576-.295c-21.423-2.048-39.808-14.498-50.07-32.23a65 65 0 0 1 5.104-7.547 64 64 0 0 1 5.085-5.767 65.2 65.2 0 0 1 13.077-10.189 39.84 39.84 0 0 1 17.509-4.028c2.03 0 4.019.15 5.966.44a39.6 39.6 0 0 1 9.413 2.625 40 40 0 0 1 9.132 5.317 40.3 40.3 0 0 1 10.158 11.638Z"/></svg>