<svg xmlns="http://www.w3.org/2000/svg" height="138.99" viewBox="0 0 182 138.992" width="182"><path d="M75.827 15.242c-5.734 0-10.547 3.597-10.547 9.727 0 5.791 4.545 9.672 10.12 9.672 2.647 0 4.893-.656 6.743-1.715v-8.672h-7.43v2.776h4.39v4.2c-1.032.422-2.138.614-3.542.614-4.072 0-6.9-2.859-6.9-6.902 0-3.886 2.478-6.795 7.166-6.795 1.587 0 3.383.24 4.994.851v-3.037c-1.534-.506-3.12-.718-4.994-.718zm37.949 0c-5.371 0-9.518 4.148-9.518 9.7 0 5.55 3.962 9.699 9.352 9.699 5.371 0 9.517-4.15 9.517-9.7 0-5.55-3.961-9.699-9.351-9.699zm42.498 0c-5.74 0-10.547 3.597-10.547 9.727 0 5.791 4.543 9.672 10.119 9.672 2.644 0 4.886-.656 6.742-1.715v-8.672h-7.428v2.776h4.387v4.2c-1.027.422-2.141.614-3.545.614-4.067 0-6.898-2.859-6.898-6.902 0-3.886 2.482-6.795 7.17-6.795 1.577 0 3.374.24 4.988.851v-3.037c-1.526-.506-3.116-.718-4.988-.718zm-154.63.452v2.882h6.08v15.62h3.172v-15.62h6.08v-2.882H1.644zm19.508 0v18.502h3.146v-7.961h8.934v7.96h3.172V15.695h-3.172v7.714h-8.934v-7.714h-3.146zm21.539 0v18.502h12.344v-2.887h-9.168v-5.121h8.639v-2.78h-8.64v-4.832h9.169v-2.882H42.69zm44.898 0v18.502h12.34v-2.887h-9.174v-5.121H99.4v-2.78h-8.645v-4.832h9.174v-2.882h-12.34zm40.852 0v18.502h3.172V27.83h3.334l4.008 6.366h3.707l-4.676-7.065c2.429-.974 3.693-2.982 3.693-5.418 0-3.457-2.525-6.02-7.398-6.02h-5.84zm39.59 0v18.502h12.34v-2.887h-9.164v-5.121h8.64v-2.78h-8.64v-4.832h9.164v-2.882h-12.34zm-54.361 2.35c3.596 0 6.076 2.988 6.076 6.898 0 3.91-2.48 6.902-6.027 6.902-3.594 0-6.07-2.991-6.07-6.902 0-3.91 2.476-6.899 6.02-6.899zm17.943.501h2.861c2.611 0 3.88 1.247 3.88 3.256 0 2.005-1.269 3.227-3.88 3.227h-2.861v-6.483zm-83.557 26.79c-3.748 0-6.02 2.326-6.02 5.496 0 3.146 2.327 4.338 4.494 5.264 2.375 1.029 3.62 1.503 3.62 3.193 0 1.35-.762 2.643-2.801 2.643-1.586 0-3.202-.42-4.713-1.19h-.024v3.067c1.378.577 2.938.92 4.737.92 3.99 0 6.027-2.821 6.027-5.781 0-3.437-2.517-4.598-4.732-5.55-2.09-.9-3.39-1.406-3.39-2.91 0-1.347.878-2.351 2.802-2.351 1.3 0 2.86.469 3.941 1.004h.027v-3.063c-1.216-.455-2.59-.742-3.968-.742zm68.928 0c-5.628 0-10.328 3.596-10.328 9.725 0 5.788 4.467 9.668 9.935 9.668 2.598 0 4.783-.654 6.604-1.71v-8.67h-7.264v2.776h4.227v4.201c-.998.42-2.086.606-3.434.606-3.94 0-6.687-2.85-6.687-6.9 0-3.88 2.433-6.788 6.982-6.788 1.528 0 3.268.235 4.836.819h.025v-3.014c-1.506-.499-3.075-.713-4.896-.713zm34.547 0c-5.285 0-9.358 4.154-9.358 9.695 0 5.554 3.891 9.698 9.204 9.698 5.283 0 9.35-4.144 9.35-9.698 0-5.54-3.881-9.695-9.196-9.695zm-120.4.317-8.195 18.633h3.273l1.53-3.672h7.458l1.559 3.672h3.38l-8.193-18.633h-.812zm55.81 0v18.633h3.02V52.367l10.834 12.05h1.078V45.784h-3.007v11.971l-10.84-12.104h-1.084zm78.554 0v18.633h3.014V52.367l10.838 12.05h1.078V45.784h-3.012v11.971l-10.836-12.104h-1.082zm-164.35.133 5.73 18.63h.823l4.517-10.172 4.705 10.172h.823l5.685-18.63h-3.047l-3.46 11.73-4.303-9.325h-.536L7.83 57.543l-3.434-11.76h-3.25zm56.463 0v18.5h3.146V56.33h8.356v7.955h3.168v-18.5H69.11v7.717h-8.356v-7.717h-3.146zm20.422 0v18.5h3.166v-18.5H78.03zm47.504 0v2.881h5.892v15.619h3.168V48.666h5.899v-2.88h-14.96zm25.887 2.352c3.489 0 5.92 2.99 5.92 6.894 0 3.916-2.431 6.9-5.871 6.9-3.487 0-5.914-2.984-5.914-6.9 0-3.904 2.427-6.894 5.865-6.894zM31.46 51.783l2.627 6.184h-5.235l2.608-6.184zm93.02 23.645c-4.037 0-6.527 2.324-6.527 5.524 0 3.146 2.509 4.31 4.86 5.232 2.805 1.112 4.02 1.558 4.02 3.195 0 1.353-.818 2.645-3.145 2.645-1.799 0-3.649-.42-5.367-1.19h-.051v3.069c1.505.583 3.282.922 5.23.922 4.393 0 6.557-2.83 6.557-5.819 0-3.405-2.592-4.565-4.992-5.492-2.779-1.055-3.887-1.48-3.887-2.936 0-1.343.973-2.351 3.117-2.351 1.46 0 3.145.479 4.362 1.008h.052v-3.067c-1.324-.452-2.748-.74-4.228-.74zm-99.667.319v18.63h3.014V82.246L39.38 94.509h1.084V75.884h-3.016v12.18L25.894 75.748h-1.08zm-23.148.136v11.145c0 4.891 3.17 7.664 7.771 7.664 4.548 0 7.846-2.851 7.846-7.664V75.883h-3.17V86.87c0 3.225-1.747 4.998-4.62 4.998-2.937 0-4.657-1.743-4.657-4.998V75.883h-3.17zm46.584 0v18.494h3.176V75.883H48.25zm8.056 0 8.672 18.625h.815l8.674-18.625H71.11l-5.685 12.545-5.649-12.545h-3.47zm23.043 0v18.494h12.662v-2.88h-9.486v-5.124h8.957v-2.775h-8.957v-4.842h9.486v-2.873H79.35zm19.738 0v18.494h3.172v-6.37h3.565l4.152 6.37h3.695l-4.808-7.056c2.51-.948 3.808-2.989 3.808-5.42 0-3.459-2.585-6.018-7.53-6.018h-6.053zm37.578 0v18.494h3.165V75.883h-3.165zm8.772 0v2.873h6.158v15.621h3.166v-15.62h6.16v-2.874h-15.484zm18.301 0 6.928 10.914v7.58h3.148v-7.56l6.928-10.934h-3.576l-4.858 8.16-4.916-8.16h-3.654zm-61.479 2.85h3.062c2.695 0 4.024 1.243 4.024 3.246 0 2.011-1.329 3.225-4.024 3.225h-3.062v-6.471zM36.7 121.415c-2.608 0-4.205 1.476-4.205 3.676 0 2.228 1.734 3 3.412 3.724 2.077.893 3.137 1.322 3.137 2.955 0 1.46-1.012 2.358-2.733 2.358a7.962 7.962 0 0 1-3.601-.858h-.02v1.52c1.013.45 2.317.719 3.621.719 2.613 0 4.29-1.617 4.29-3.887 0-2.555-2.065-3.357-3.872-4.135-1.567-.661-2.677-1.186-2.677-2.549 0-1.368.994-2.14 2.648-2.14.954 0 1.931.215 2.871.543h.008v-1.446a8.757 8.757 0 0 0-2.88-.48zm52.797 0c-3.606 0-7.32 2.588-7.32 7.05 0 4.262 3.5 7.044 7.28 7.044 2.025 0 3.62-.555 4.983-1.594v-5.492h-5.08v1.402h3.602v3.406c-1.093.648-2.14.914-3.485.914-3.176 0-5.695-2.47-5.695-5.68 0-3.196 2.108-5.667 5.734-5.667 1.343 0 2.956.328 4.245.992h.013v-1.479c-1.277-.625-2.822-.896-4.277-.896zm26.424 0c-3.685 0-6.875 2.96-6.875 7.05 0 4.083 3.054 7.032 6.738 7.032 3.675 0 6.856-2.949 6.856-7.031 0-4.092-3.04-7.051-6.719-7.051zm60.809 0c-4.186 0-7.322 3.04-7.322 7.05 0 4.083 3.057 7.044 7.322 7.044 1.457 0 2.628-.252 3.697-.696v-1.422h-.02c-1.125.5-2.39.737-3.677.737-3.486 0-5.709-2.452-5.709-5.662 0-3.22 2.09-5.668 5.69-5.668 1.304 0 2.57.237 3.697.736h.02v-1.424c-1.07-.447-2.24-.695-3.698-.695zm-152.59.14-6.002 13.72h1.543l1.598-3.774h6.156l1.59 3.773h1.617l-6.012-13.719h-.49zm42.979.05v13.67h1.402v-10.396l8.528 10.44h.6v-13.675h-1.401v10.398l-8.531-10.439h-.598zm60.041 0v13.67h1.393v-10.396l8.529 10.44h.603v-13.675h-1.4v10.398l-8.531-10.439h-.594zm-125.94.04 4.17 13.732h.48l3.528-8.722 3.54 8.722h.495l4.148-13.732h-1.445l-3.078 10.303-3.385-8.312h-.49L5.8 132.024l-3.102-10.379H1.22zm43.639 0v13.63h1.498v-6.247h7.283v6.246h1.5v-13.629h-1.5v6.041h-7.283v-6.04h-1.498zm15.52 0v13.63h1.494v-13.63H60.38zm36.475 0v1.35h4.559v12.279h1.478v-12.28h4.553v-1.349h-10.59zm57.395 0v13.63h3.59c5.059 0 7.763-3.17 7.763-6.81 0-3.67-2.686-6.82-7.763-6.82h-3.59zm-38.391 1.115c3.02 0 5.158 2.486 5.158 5.706 0 3.21-2.138 5.703-5.158 5.703-3.038 0-5.2-2.493-5.2-5.703 0-3.22 2.162-5.706 5.2-5.706zm39.873.217h2.107c4.127 0 6.155 2.31 6.155 5.489 0 3.186-2.01 5.49-6.155 5.49h-2.107v-10.98zm-131.37 1.28 2.553 5.994h-5.1l2.547-5.994zm117.91 9.134-.47 4.332h.898l1.267-3.808v-.524h-1.695z" fill="#004065"/><path d="M1.01.734v2.897h180V.734h-180zm0 105.87v2.9h180v-2.9h-180z" fill="#c8b18b"/></svg>