<svg xmlns="http://www.w3.org/2000/svg" width="181.79" height="64.62" data-name="Layer 1"><g data-name="ISS Logo CMYK"><path d="M282 35.05v64.41l55.79-32.21zm24.13 18.59 3.48 2 16.63 9.6h-24.47l-1.16-2-11.07-19.17zM286 69.28V46.05l11.07 19.19 1.16 2-1.16 2L286 88.47Zm23.59 9.58-3.48 2-16.62 9.6L300.6 71.3l1.16-2h24.48zM156 98.55V35.92h13.9v62.63zM178.1 86.06a42.68 42.68 0 0 0 8.32 2.73 35.61 35.61 0 0 0 7.47.84 20.74 20.74 0 0 0 3.81-.37 11 11 0 0 0 3.51-1.26 8 8 0 0 0 2.64-2.53 7.11 7.11 0 0 0 1-3.94 6.63 6.63 0 0 0-2.63-5.41 33.79 33.79 0 0 0-7.89-4.27l-5.07-2.17a32.16 32.16 0 0 1-4.6-2.38 15.66 15.66 0 0 1-3.76-3.3 15.84 15.84 0 0 1-2.58-4.45 16 16 0 0 1-1-5.91 16.47 16.47 0 0 1 2.31-9 17.35 17.35 0 0 1 5.83-5.73 24.9 24.9 0 0 1 7.74-3 38.84 38.84 0 0 1 8.07-.89 67.13 67.13 0 0 1 8.07.47 29.81 29.81 0 0 1 6.67 1.5l-.47 10.8a33.18 33.18 0 0 0-6.7-2.07 35 35 0 0 0-6.7-.66 23.4 23.4 0 0 0-3.73.32 11.3 11.3 0 0 0-3.53 1.18 7.45 7.45 0 0 0-2.65 2.31 6.25 6.25 0 0 0-1 3.71 5.66 5.66 0 0 0 2.68 4.92 33.7 33.7 0 0 0 6.36 3.33l4.15 1.69a51.44 51.44 0 0 1 5.84 2.73 19.58 19.58 0 0 1 4.74 3.54 15.74 15.74 0 0 1 3.15 4.85 16.83 16.83 0 0 1 1.18 6.52 17.72 17.72 0 0 1-2.26 9.34 18 18 0 0 1-5.83 6 24.47 24.47 0 0 1-7.89 3.19 39.58 39.58 0 0 1-8.46.94 69.74 69.74 0 0 1-8.49-.52 50.89 50.89 0 0 1-9-2zM225.15 86.06a42.6 42.6 0 0 0 8.31 2.73 35.69 35.69 0 0 0 7.47.84 20.74 20.74 0 0 0 3.81-.37 11.27 11.27 0 0 0 3.52-1.26 7.94 7.94 0 0 0 2.63-2.53 7.11 7.11 0 0 0 1-3.94 6.63 6.63 0 0 0-2.63-5.41 33.79 33.79 0 0 0-7.89-4.27l-5.07-2.17a32.7 32.7 0 0 1-4.6-2.38 15.68 15.68 0 0 1-6.34-7.75 16.25 16.25 0 0 1-1-5.92 16.48 16.48 0 0 1 2.3-9 17.63 17.63 0 0 1 5.83-5.73 25.11 25.11 0 0 1 7.75-3 38.69 38.69 0 0 1 8.07-.89 69.08 69.08 0 0 1 8.06.47 30.24 30.24 0 0 1 6.67 1.5l-.47 10.8a33 33 0 0 0-6.7-2.07 35.6 35.6 0 0 0-6.69-.66 24.41 24.41 0 0 0-3.73.32 12.2 12.2 0 0 0-3.45 1.15 7.53 7.53 0 0 0-2.64 2.31 6.18 6.18 0 0 0-1 3.71 5.67 5.67 0 0 0 2.64 4.93 34.61 34.61 0 0 0 6.36 3.32l4.15 1.69a49.87 49.87 0 0 1 5.84 2.73 19.67 19.67 0 0 1 4.65 3.57 15.78 15.78 0 0 1 3.16 4.84 16.54 16.54 0 0 1 1.18 6.52 16.92 16.92 0 0 1-8.09 15.3 24.25 24.25 0 0 1-7.89 3.19 39.54 39.54 0 0 1-8.44.94 70.57 70.57 0 0 1-8.51-.52 49.94 49.94 0 0 1-9-2z" style="fill:#4e4f51" transform="translate(-156 -35.01)"/></g></svg>