<?xml version="1.0" encoding="UTF-8" standalone="no"?>
<svg
   id="canvas"
   viewBox="228.044 335.068 232.98355 97.463558"
   version="1.1"
   sodipodi:docname="jfd-no-shadow.svg"
   width="232.98355"
   height="97.463554"
   inkscape:version="1.1.2 (0a00cf5339, 2022-02-04)"
   xmlns:inkscape="http://www.inkscape.org/namespaces/inkscape"
   xmlns:sodipodi="http://sodipodi.sourceforge.net/DTD/sodipodi-0.dtd"
   xmlns="http://www.w3.org/2000/svg"
   xmlns:svg="http://www.w3.org/2000/svg">
  <defs
     id="defs43" />
  <sodipodi:namedview
     id="namedview41"
     pagecolor="#ffffff"
     bordercolor="#666666"
     borderopacity="1.0"
     inkscape:pageshadow="2"
     inkscape:pageopacity="0.0"
     inkscape:pagecheckerboard="0"
     showgrid="false"
     inkscape:zoom="3.4233807"
     inkscape:cx="114.94486"
     inkscape:cy="87.924781"
     inkscape:window-width="1500"
     inkscape:window-height="932"
     inkscape:window-x="0"
     inkscape:window-y="0"
     inkscape:window-maximized="1"
     inkscape:current-layer="canvas" />
  <g
     id="g409"
     transform="translate(1.2449735,-162.02361)"
     style="fill:#4d4d4d">
    <path
       d="m 253.77164,514.22953 c -0.5,0.67 -0.66,1.16 -0.52,2.28 0.13,1.13 0.4,1.95 1.21,3.33 0.81,1.39 1.5,2.14 2.85,3.61 1.35,1.47 2.31,2.22 3.9,3.76 1.59,1.53 2.39,2.26 4.04,3.89 1.64,1.64 2.61,2.57 4.18,4.29 1.57,1.73 2.21,2.53 3.66,4.34 1.44,1.8 2.31,2.8 3.58,4.69 1.27,1.88 1.86,2.94 2.76,4.73 0.91,1.8 1.44,2.59 1.77,4.25 0.33,1.66 0.2,2.48 -0.13,4.04 -0.32,1.56 -0.71,2.38 -1.5,3.78 -0.8,1.39 -1.23,2.02 -2.47,3.21 -1.25,1.2 -2.12,1.79 -3.75,2.77 -1.64,0.99 -2.47,1.53 -4.42,2.16 -1.96,0.63 -3.05,0.75 -5.37,0.99 -2.32,0.24 -3.79,0.22 -6.22,0.2 -2.44,-0.01 -3.82,-0.02 -5.94,-0.27 -2.12,-0.25 -3.09,-0.65 -4.66,-0.98 -1.57,-0.34 -2.16,-0.49 -3.2,-0.71 -1.03,-0.23 -1.35,-0.57 -1.99,-0.41 -0.63,0.17 -1.14,0.49 -1.17,1.23 -0.04,0.74 0.12,1.45 1.01,2.48 0.88,1.03 1.6,1.75 3.39,2.67 1.8,0.91 3.1,1.4 5.6,1.91 2.49,0.51 4.1,0.6 6.89,0.64 2.79,0.04 4.35,-0.06 7.07,-0.44 2.73,-0.39 4.09,-0.65 6.54,-1.49 2.44,-0.85 3.61,-1.43 5.7,-2.74 2.09,-1.32 3.14,-2.15 4.74,-3.84 1.61,-1.69 2.22,-2.62 3.29,-4.63 1.06,-2.02 1.61,-3.14 2.04,-5.44 0.43,-2.3 0.46,-3.68 0.1,-6.06 -0.35,-2.38 -0.87,-3.54 -1.85,-5.84 -0.99,-2.29 -1.65,-3.51 -3.06,-5.65 -1.41,-2.15 -2.45,-3.12 -3.99,-5.06 -1.55,-1.93 -2.15,-2.75 -3.72,-4.63 -1.58,-1.87 -2.53,-2.99 -4.16,-4.74 -1.62,-1.76 -2.52,-2.45 -3.97,-4.02 -1.45,-1.58 -2.09,-2.46 -3.26,-3.85 -1.16,-1.4 -1.59,-2.11 -2.58,-3.12 -0.98,-1.01 -1.47,-1.45 -2.35,-1.94 -0.89,-0.48 -1.25,-0.61 -2.06,-0.48 -0.8,0.12 -1.48,0.41 -1.98,1.09"
       style="fill:#4d4d4d;stroke:none"
       id="path2" />
    <g
       id="g175"
       transform="translate(-127.00835,159.93441)"
       style="fill:#4d4d4d;stroke:none">
      <path
         d="m 420.76425,349.50951 c -0.7,0.96 -1.04,2.15 -1.07,4.54 -0.03,2.39 0.32,4.06 0.93,7.43 0.6,3.37 1.24,5.52 2.11,9.41 0.86,3.9 1.38,6.19 2.22,10.07 0.84,3.88 1.23,5.83 1.98,9.34 0.74,3.52 1.08,5.18 1.75,8.22 0.67,3.04 0.8,4.56 1.6,6.99 0.79,2.43 1.46,3.55 2.38,5.15 0.92,1.6 1.35,2.09 2.22,2.86 0.86,0.76 1.44,0.98 2.1,0.97 0.65,-0.01 0.98,-0.48 1.16,-1.03 0.18,-0.55 -0.1,-0.76 -0.27,-1.72 -0.16,-0.96 -0.08,-1.51 -0.54,-3.1 -0.46,-1.59 -1.03,-2.56 -1.75,-4.84 -0.71,-2.27 -1.02,-3.63 -1.83,-6.54 -0.81,-2.91 -1.36,-4.56 -2.2,-8.01 -0.84,-3.45 -1.25,-5.37 -2,-9.24 -0.75,-3.86 -1.14,-6.18 -1.76,-10.08 -0.62,-3.91 -0.83,-6.11 -1.36,-9.43 -0.52,-3.32 -0.61,-4.93 -1.26,-7.18 -0.65,-2.25 -1.1,-3.3 -1.98,-4.07 -0.88,-0.76 -1.73,-0.7 -2.43,0.26"
         style="fill:#4d4d4d;stroke:none"
         id="path8" />
      <path
         d="m 400.12425,357.38951 c 1.14,0.58 2.43,0.71 5.32,0.51 2.88,-0.2 4.76,-0.85 9.09,-1.5 4.34,-0.64 7.27,-1.15 12.59,-1.73 5.33,-0.57 8.52,-0.89 14.05,-1.15 5.52,-0.26 8.64,-0.24 13.58,-0.13 4.93,0.11 7.41,0.32 11.09,0.68 3.69,0.37 5.12,0.9 7.33,1.15 2.21,0.24 2.95,0.16 3.73,0.07 0.77,-0.08 0.61,-0.29 0.16,-0.49 -0.46,-0.2 -1.12,-0.55 -2.44,-0.5 -1.32,0.04 -2.41,0.16 -4.15,0.74 -1.74,0.58 -2.73,1.26 -4.55,2.14 -1.81,0.87 -2.9,1.33 -4.53,2.24 -1.63,0.92 -2.48,1.36 -3.62,2.31 -1.14,0.95 -1.6,1.53 -2.09,2.44 -0.49,0.92 -0.55,1.5 -0.35,2.13 0.19,0.63 0.76,0.87 1.32,1.03 0.56,0.15 0.72,-0.1 1.49,-0.26 0.77,-0.15 1.18,-0.14 2.36,-0.5 1.17,-0.36 1.9,-0.73 3.52,-1.29 1.63,-0.55 2.74,-0.85 4.6,-1.47 1.87,-0.63 2.99,-0.8 4.74,-1.64 1.75,-0.84 2.83,-1.32 4,-2.55 1.18,-1.24 1.7,-2.26 1.88,-3.64 0.18,-1.37 0.08,-2.17 -0.97,-3.24 -1.06,-1.07 -1.88,-1.55 -4.3,-2.11 -2.43,-0.57 -4,-0.55 -7.84,-0.71 -3.83,-0.16 -6.33,-0.12 -11.35,-0.09 -5.02,0.03 -8.16,0.03 -13.75,0.23 -5.6,0.2 -8.84,0.42 -14.24,0.79 -5.41,0.36 -8.37,0.67 -12.78,1.05 -4.42,0.38 -6.45,0.22 -9.31,0.84 -2.86,0.63 -4.07,1.35 -4.99,2.28 -0.91,0.93 -0.74,1.8 0.41,2.37"
         style="fill:#4d4d4d;stroke:none"
         id="path10" />
      <path
         d="m 446.57425,399.56951 c -0.36,0.99 -0.28,2.18 0.57,3.4 0.85,1.22 1.88,2.06 3.68,2.69 1.79,0.63 3.14,0.72 5.27,0.44 2.13,-0.28 3.22,-0.93 5.36,-1.83 2.15,-0.89 3.43,-1.25 5.37,-2.66 1.93,-1.41 3.74,-2.94 4.31,-4.38 0.56,-1.43 0.02,-2.45 -1.47,-2.81 -1.49,-0.36 -3.77,0.31 -5.99,1.01 -2.21,0.71 -3.32,1.63 -5.11,2.52 -1.78,0.9 -2.6,1.53 -3.8,1.97 -1.19,0.43 -1.46,0.39 -2.17,0.21 -0.71,-0.18 -0.64,-0.68 -1.37,-1.1 -0.73,-0.42 -1.34,-1.11 -2.27,-1 -0.94,0.11 -2.02,0.55 -2.38,1.54"
         style="fill:#4d4d4d;stroke:none"
         id="path12" />
      <path
         d="m 486.29425,409.83951 c 0.58,0.66 0.79,0.95 1.25,1.13 0.46,0.17 0.66,0 1.06,-0.25 0.4,-0.25 0.88,-0.43 0.94,-0.99 0.07,-0.56 -0.05,-1.05 -0.63,-1.83 -0.58,-0.77 -1.45,-1.51 -2.25,-2.05 -0.79,-0.53 -1.33,-0.52 -1.72,-0.63 -0.38,-0.11 -0.09,-0.02 -0.2,0.1 -0.12,0.12 -0.35,0.03 -0.37,0.5 -0.01,0.47 -0.1,1.04 0.29,1.85 0.38,0.8 1.06,1.51 1.63,2.17"
         style="fill:#4d4d4d;stroke:none"
         id="path14" />
    </g>
    <g
       id="g179"
       transform="matrix(0.92933993,0,0,0.92933993,-127.31639,197.00632)"
       style="fill:#4d4d4d;stroke:none">
      <path
         d="m 547.69096,357.68951 c -0.77,0.71 -1.15,1.56 -1.51,3.56 -0.36,2 -0.52,3.45 -0.29,6.45 0.22,2.99 0.78,5.12 1.42,8.54 0.64,3.41 1.17,5.27 1.79,8.52 0.62,3.26 0.68,5.13 1.3,7.73 0.62,2.6 1.11,3.74 1.8,5.28 0.7,1.54 1.1,1.73 1.68,2.42 0.57,0.7 0.71,0.92 1.19,1.04 0.47,0.13 0.88,-0.06 1.18,-0.43 0.29,-0.37 0.17,-0.59 0.29,-1.41 0.11,-0.82 0.32,-1.08 0.28,-2.69 -0.03,-1.62 -0.05,-2.78 -0.46,-5.38 -0.41,-2.6 -0.97,-4.43 -1.57,-7.63 -0.6,-3.2 -1.04,-5.04 -1.43,-8.37 -0.38,-3.34 -0.14,-5.45 -0.5,-8.31 -0.35,-2.87 -0.71,-4.17 -1.27,-6.04 -0.56,-1.86 -0.75,-2.63 -1.52,-3.29 -0.78,-0.65 -1.6,-0.71 -2.38,0.01"
         style="fill:#4d4d4d;stroke:none"
         id="path16" />
      <path
         d="m 529.14096,350.00951 c 0.58,-0.82 0.3,-1.85 0.28,-2.91 -0.03,-1.07 -0.21,-1.53 -0.4,-2.41 -0.18,-0.88 -0.91,-1.48 -0.53,-1.98 0.39,-0.5 0.71,-0.26 2.46,-0.52 1.76,-0.26 3.19,-0.56 6.32,-0.79 3.13,-0.24 5.14,-0.58 9.33,-0.39 4.2,0.19 6.7,0.45 11.63,1.33 4.93,0.88 7.87,1.49 13.03,3.07 5.16,1.57 7.97,2.58 12.77,4.81 4.79,2.23 7.14,3.6 11.2,6.33 4.05,2.74 6.06,4.34 9.06,7.36 3,3.02 4.24,4.62 5.93,7.74 1.69,3.13 2.1,4.84 2.51,7.91 0.41,3.07 0.3,4.62 -0.46,7.45 -0.75,2.82 -1.5,4.08 -3.32,6.67 -1.83,2.59 -3.08,4 -5.81,6.27 -2.72,2.27 -4.52,3.35 -7.82,5.08 -3.31,1.74 -5.24,2.56 -8.7,3.58 -3.46,1.02 -5.45,1.22 -8.62,1.53 -3.18,0.31 -4.84,0.03 -7.24,0.02 -2.4,-0.01 -3.56,0.03 -4.76,-0.06 -1.2,-0.09 -1.16,-0.2 -1.23,-0.4 -0.07,-0.21 0.54,-0.19 0.88,-0.64 0.33,-0.44 1.02,-0.86 0.8,-1.58 -0.21,-0.72 -1.02,-1.9 -1.88,-2.02 -0.87,-0.11 -1.86,0.41 -2.44,1.45 -0.57,1.05 -0.9,2.32 -0.43,3.77 0.46,1.46 0.99,2.48 2.76,3.51 1.76,1.03 3.24,1.45 6.08,1.64 2.84,0.19 4.62,-0.13 8.11,-0.69 3.49,-0.55 5.58,-0.89 9.34,-2.1 3.76,-1.21 5.83,-2.05 9.45,-3.96 3.63,-1.9 5.59,-3.01 8.67,-5.54 3.08,-2.54 4.57,-4.07 6.71,-7.14 2.15,-3.07 3.14,-4.74 3.99,-8.24 0.86,-3.5 0.9,-5.57 0.28,-9.27 -0.62,-3.69 -1.33,-5.69 -3.38,-9.2 -2.05,-3.52 -3.55,-5.18 -6.88,-8.37 -3.32,-3.19 -5.45,-4.76 -9.74,-7.57 -4.28,-2.82 -6.71,-4.18 -11.68,-6.5 -4.96,-2.32 -7.84,-3.37 -13.13,-5.09 -5.28,-1.73 -8.25,-2.39 -13.3,-3.53 -5.05,-1.14 -7.57,-1.56 -11.95,-2.18 -4.38,-0.61 -6.44,-0.86 -9.95,-0.88 -3.51,-0.01 -5.09,0 -7.59,0.81 -2.51,0.81 -3.61,1.58 -4.92,3.26 -1.32,1.67 -1.51,3.28 -1.66,5.12 -0.15,1.85 0.18,2.82 0.9,4.11 0.73,1.29 1.64,2.12 2.71,2.35 1.06,0.23 2.04,-0.38 2.62,-1.21"
         style="fill:#4d4d4d;stroke:none"
         id="path18" />
    </g>
  </g>
</svg>
