<?xml version="1.0" encoding="UTF-8" standalone="no"?>
<svg
   id="canvas"
   viewBox="211.140 333.291 1033.696 144.382"
   version="1.1"
   sodipodi:docname="jfd.svg"
   inkscape:version="1.4.2 (ebf0e940d0, 2025-05-08)"
   xmlns:inkscape="http://www.inkscape.org/namespaces/inkscape"
   xmlns:sodipodi="http://sodipodi.sourceforge.net/DTD/sodipodi-0.dtd"
   xmlns="http://www.w3.org/2000/svg"
   xmlns:svg="http://www.w3.org/2000/svg">
  <defs
     id="defs12" />
  <sodipodi:namedview
     id="namedview12"
     pagecolor="#ffffff"
     bordercolor="#000000"
     borderopacity="0.25"
     inkscape:showpageshadow="2"
     inkscape:pageopacity="0.0"
     inkscape:pagecheckerboard="0"
     inkscape:deskcolor="#d1d1d1"
     inkscape:zoom="0.95579354"
     inkscape:cx="500.10801"
     inkscape:cy="71.668197"
     inkscape:window-width="1536"
     inkscape:window-height="792"
     inkscape:window-x="0"
     inkscape:window-y="0"
     inkscape:window-maximized="1"
     inkscape:current-layer="canvas" />
  <path
     d="M 241.35,343.04 C 240.48 343.54, 239.97 344.01, 239.61 345.63 C 239.24 347.24, 238.77 348.47, 239.53 351.14 C 240.28 353.80, 241.75 355.38, 243.38 358.97 C 245.02 362.55, 245.96 364.69, 247.70 369.06 C 249.45 373.42, 250.38 376.04, 252.11 380.78 C 253.85 385.52, 254.87 388.02, 256.37 392.77 C 257.88 397.52, 258.54 399.96, 259.65 404.52 C 260.75 409.08, 261.28 411.46, 261.88 415.57 C 262.48 419.68, 262.73 421.62, 262.65 425.07 C 262.58 428.53, 262.33 430.10, 261.51 432.84 C 260.69 435.57, 260.01 436.76, 258.56 438.76 C 257.11 440.77, 256.25 441.48, 254.26 442.88 C 252.28 444.28, 251.14 444.96, 248.62 445.77 C 246.11 446.57, 244.65 446.88, 241.69 446.90 C 238.73 446.92, 236.85 446.67, 233.82 445.87 C 230.79 445.07, 229.01 444.34, 226.54 442.90 C 224.07 441.46, 223.32 440.54, 221.49 438.67 C 219.65 436.81, 218.81 434.29, 217.35 433.58 C 215.89 432.86, 214.42 433.24, 214.19 435.10 C 213.97 436.95, 214.45 440.11, 216.23 442.83 C 218.02 445.54, 219.95 446.78, 223.12 448.67 C 226.30 450.56, 228.39 451.30, 232.11 452.30 C 235.82 453.30, 237.97 453.64, 241.69 453.66 C 245.41 453.68, 247.36 453.43, 250.70 452.40 C 254.03 451.38, 255.69 450.52, 258.37 448.54 C 261.05 446.55, 262.29 445.32, 264.09 442.48 C 265.89 439.65, 266.58 437.85, 267.38 434.36 C 268.18 430.87, 268.22 428.96, 268.09 425.04 C 267.97 421.12, 267.55 419.09, 266.76 414.76 C 265.96 410.43, 265.33 408.07, 264.12 403.39 C 262.91 398.72, 262.20 396.24, 260.70 391.41 C 259.20 386.58, 258.18 384.06, 256.62 379.23 C 255.06 374.40, 254.21 371.77, 252.88 367.26 C 251.56 362.75, 250.92 360.47, 250.00 356.68 C 249.09 352.89, 249.19 350.75, 248.30 348.31 C 247.41 345.87, 246.42 345.53, 245.55 344.50 C 244.68 343.46, 244.80 343.43, 243.96 343.14 C 243.12 342.85, 242.22 342.55, 241.35 343.04"
     style="stroke:none;fill:#f9f9f9"
     id="path1" />
  <path
     d="M 296.52,392.19 C 295.28 392.23, 294.33 392.58, 292.80 394.14 C 291.26 395.70, 289.95 396.96, 288.84 400.00 C 287.73 403.03, 287.45 405.48, 287.25 409.30 C 287.05 413.12, 287.07 415.37, 287.84 419.11 C 288.60 422.86, 289.19 424.98, 291.07 428.03 C 292.95 431.09, 294.36 432.55, 297.24 434.39 C 300.13 436.23, 302.05 436.72, 305.51 437.25 C 308.97 437.78, 310.91 437.68, 314.55 437.04 C 318.18 436.39, 320.24 435.71, 323.70 434.01 C 327.15 432.32, 329.02 431.20, 331.84 428.57 C 334.65 425.94, 336.13 424.23, 337.77 420.87 C 339.40 417.51, 340.08 415.35, 340.03 411.77 C 339.97 408.19, 339.37 406.04, 337.47 402.96 C 335.58 399.89, 333.90 398.33, 330.54 396.38 C 327.17 394.43, 324.77 393.77, 320.63 393.24 C 316.49 392.70, 313.97 393.01, 309.85 393.70 C 305.73 394.39, 303.38 395.20, 300.03 396.67 C 296.69 398.15, 295.07 399.28, 293.13 401.08 C 291.19 402.89, 290.91 404.07, 290.33 405.71 C 289.75 407.35, 289.90 408.24, 290.24 409.29 C 290.58 410.34, 291.33 410.92, 292.02 410.96 C 292.71 410.99, 293.41 409.89, 293.69 409.47 C 293.98 409.05, 293.27 409.06, 293.44 408.85 C 293.60 408.63, 293.71 408.89, 294.51 408.40 C 295.30 407.91, 295.74 407.50, 297.42 406.39 C 299.09 405.27, 300.16 404.14, 302.87 402.83 C 305.58 401.52, 307.58 400.51, 310.97 399.82 C 314.36 399.14, 316.56 398.98, 319.83 399.40 C 323.09 399.83, 324.89 400.55, 327.29 401.96 C 329.68 403.37, 330.59 404.47, 331.79 406.45 C 333.00 408.43, 333.30 409.54, 333.31 411.85 C 333.32 414.15, 333.02 415.58, 331.84 417.97 C 330.66 420.36, 329.61 421.78, 327.41 423.80 C 325.22 425.82, 323.65 426.77, 320.85 428.08 C 318.05 429.39, 316.26 429.88, 313.40 430.35 C 310.53 430.82, 309.02 430.79, 306.52 430.43 C 304.02 430.08, 302.83 429.75, 300.90 428.57 C 298.97 427.39, 298.12 426.66, 296.88 424.54 C 295.64 422.41, 295.09 420.80, 294.70 417.92 C 294.32 415.04, 294.42 413.13, 294.95 410.12 C 295.47 407.12, 296.56 405.41, 297.34 402.89 C 298.12 400.37, 298.52 399.31, 298.86 397.52 C 299.19 395.73, 299.47 395.00, 299.00 393.93 C 298.54 392.86, 297.76 392.15, 296.52 392.19"
     style="stroke:none;fill:#f9f9f9"
     id="path2" />
  <path
     d="M 374.30,390.81 C 373.58 389.85, 372.80 389.55, 371.03 389.15 C 369.26 388.75, 367.95 388.47, 365.45 388.79 C 362.94 389.12, 361.04 389.54, 358.52 390.77 C 356.01 392.01, 354.58 393.03, 352.87 394.95 C 351.17 396.87, 350.43 398.09, 349.99 400.36 C 349.55 402.63, 349.62 404.07, 350.69 406.29 C 351.75 408.51, 352.80 409.82, 355.32 411.47 C 357.84 413.11, 359.94 413.33, 363.28 414.51 C 366.61 415.68, 368.67 416.11, 372.01 417.34 C 375.35 418.57, 377.23 419.40, 379.99 420.65 C 382.75 421.90, 384.09 422.77, 385.81 423.59 C 387.53 424.41, 388.15 424.46, 388.58 424.75 C 389.01 425.04, 388.79 424.91, 387.95 425.02 C 387.11 425.13, 386.33 424.96, 384.36 425.31 C 382.39 425.66, 380.89 426.16, 378.08 426.77 C 375.28 427.38, 373.33 428.02, 370.35 428.37 C 367.37 428.71, 365.66 428.47, 363.17 428.50 C 360.68 428.53, 359.42 428.58, 357.91 428.50 C 356.39 428.42, 356.17 428.20, 355.61 428.10 C 355.05 428.00, 355.24 428.20, 355.11 428.01 C 354.97 427.82, 355.45 427.51, 354.94 427.16 C 354.44 426.81, 353.31 426.05, 352.59 426.25 C 351.87 426.46, 351.43 427.13, 351.36 428.19 C 351.29 429.26, 351.32 430.25, 352.24 431.58 C 353.17 432.92, 353.88 433.87, 355.99 434.88 C 358.09 435.89, 359.76 436.34, 362.78 436.64 C 365.80 436.93, 367.66 436.58, 371.08 436.34 C 374.51 436.09, 376.62 436.08, 379.89 435.43 C 383.16 434.77, 385.05 434.44, 387.43 433.06 C 389.81 431.69, 390.72 430.51, 391.78 428.56 C 392.84 426.61, 393.12 425.41, 392.73 423.32 C 392.33 421.23, 391.76 419.96, 389.83 418.11 C 387.89 416.26, 386.12 415.54, 383.07 414.07 C 380.01 412.60, 377.93 412.12, 374.55 410.76 C 371.18 409.39, 369.21 408.61, 366.18 407.24 C 363.16 405.87, 361.58 404.80, 359.43 403.91 C 357.28 403.01, 356.30 403.13, 355.42 402.75 C 354.53 402.37, 354.60 402.34, 355.02 402.00 C 355.43 401.67, 356.05 401.51, 357.48 401.07 C 358.90 400.63, 360.11 400.39, 362.13 399.81 C 364.16 399.22, 365.65 398.86, 367.62 398.14 C 369.60 397.43, 370.60 397.06, 372.00 396.22 C 373.40 395.38, 374.16 395.03, 374.62 393.95 C 375.08 392.86, 375.02 391.77, 374.30 390.81"
     style="stroke:none;fill:#f9f9f9"
     id="path3" />
  <path
     d="M 409.79,417.26 C 410.70 417.97, 411.39 418.08, 413.14 418.05 C 414.89 418.02, 416.20 417.91, 418.53 417.11 C 420.86 416.31, 422.35 415.47, 424.77 414.05 C 427.20 412.63, 428.45 411.71, 430.65 410.02 C 432.84 408.34, 434.13 407.53, 435.75 405.62 C 437.37 403.72, 438.19 402.56, 438.76 400.50 C 439.32 398.43, 439.27 397.17, 438.58 395.30 C 437.89 393.43, 437.18 392.35, 435.32 391.13 C 433.45 389.91, 431.99 389.30, 429.25 389.21 C 426.52 389.12, 424.79 389.58, 421.63 390.69 C 418.48 391.79, 416.67 392.77, 413.49 394.75 C 410.31 396.72, 408.42 397.92, 405.73 400.54 C 403.04 403.16, 401.58 404.76, 400.05 407.84 C 398.51 410.92, 398.03 412.75, 398.07 415.95 C 398.10 419.15, 398.54 421.07, 400.22 423.84 C 401.90 426.62, 403.39 428.01, 406.47 429.80 C 409.55 431.60, 411.64 432.04, 415.60 432.83 C 419.55 433.62, 421.83 433.74, 426.26 433.76 C 430.69 433.78, 433.18 433.47, 437.73 432.93 C 442.28 432.40, 444.72 432.00, 449.01 431.09 C 453.30 430.17, 455.46 429.64, 459.20 428.36 C 462.94 427.09, 465.03 426.55, 467.70 424.72 C 470.37 422.89, 471.95 420.80, 472.54 419.21 C 473.13 417.61, 472.21 416.69, 470.65 416.77 C 469.09 416.85, 467.42 418.36, 464.75 419.61 C 462.08 420.86, 460.67 421.76, 457.30 423.02 C 453.92 424.28, 451.89 424.98, 447.86 425.91 C 443.83 426.83, 441.44 427.21, 437.15 427.65 C 432.86 428.08, 430.43 428.28, 426.40 428.09 C 422.37 427.90, 420.29 427.55, 417.01 426.68 C 413.73 425.81, 412.23 425.03, 410.02 423.73 C 407.80 422.44, 407.00 421.75, 405.93 420.20 C 404.85 418.66, 404.58 417.82, 404.66 416.02 C 404.75 414.21, 405.17 413.24, 406.35 411.17 C 407.54 409.10, 408.43 407.64, 410.59 405.65 C 412.74 403.67, 414.39 402.59, 417.13 401.25 C 419.86 399.91, 421.75 399.66, 424.28 398.95 C 426.82 398.23, 428.06 398.05, 429.80 397.67 C 431.53 397.29, 432.12 397.21, 432.95 397.07 C 433.77 396.93, 433.89 396.79, 433.93 396.95 C 433.97 397.12, 433.82 397.26, 433.13 397.90 C 432.45 398.54, 431.94 399.13, 430.51 400.15 C 429.08 401.17, 428.04 401.87, 426.00 402.98 C 423.96 404.09, 422.61 404.60, 420.33 405.69 C 418.04 406.77, 416.58 407.25, 414.58 408.40 C 412.59 409.56, 411.56 410.26, 410.36 411.48 C 409.16 412.70, 408.70 413.34, 408.59 414.49 C 408.47 415.65, 408.88 416.55, 409.79 417.26"
     style="stroke:none;fill:#f9f9f9"
     id="path4" />
  <path
     d="M 473.53,402.59 C 472.62 403.00, 472.25 403.18, 471.61 404.65 C 470.96 406.13, 470.21 407.29, 470.32 409.97 C 470.42 412.65, 471.34 414.35, 472.13 418.06 C 472.92 421.77, 473.38 424.14, 474.25 428.52 C 475.13 432.91, 475.68 435.51, 476.49 439.99 C 477.30 444.47, 477.72 446.81, 478.31 450.93 C 478.89 455.05, 479.11 457.14, 479.41 460.60 C 479.72 464.06, 479.43 465.81, 479.84 468.23 C 480.25 470.65, 480.64 471.70, 481.48 472.68 C 482.32 473.66, 483.26 473.91, 484.04 473.12 C 484.82 472.34, 485.74 471.26, 485.39 468.75 C 485.04 466.23, 483.58 464.52, 482.29 460.55 C 481.00 456.57, 480.08 453.79, 478.93 448.87 C 477.79 443.95, 477.25 440.94, 476.58 435.92 C 475.90 430.91, 475.59 428.31, 475.56 423.79 C 475.52 419.27, 475.71 417.06, 476.40 413.32 C 477.09 409.58, 477.77 407.85, 479.01 405.09 C 480.26 402.33, 481.15 401.26, 482.64 399.52 C 484.13 397.79, 484.77 397.11, 486.46 396.42 C 488.15 395.72, 489.09 395.77, 491.10 396.03 C 493.10 396.30, 494.29 396.77, 496.48 397.75 C 498.67 398.73, 500.06 399.49, 502.04 400.92 C 504.02 402.34, 505.07 403.22, 506.38 404.86 C 507.70 406.50, 508.17 407.47, 508.61 409.12 C 509.04 410.77, 509.18 411.56, 508.55 413.12 C 507.93 414.69, 507.11 415.34, 505.50 416.94 C 503.89 418.53, 502.83 419.58, 500.52 421.11 C 498.21 422.63, 496.69 423.52, 493.93 424.57 C 491.18 425.63, 489.36 425.78, 486.74 426.38 C 484.13 426.97, 482.74 427.14, 480.86 427.54 C 478.98 427.93, 478.43 428.26, 477.35 428.34 C 476.26 428.43, 476.14 427.73, 475.44 427.96 C 474.74 428.20, 473.82 428.54, 473.86 429.52 C 473.90 430.50, 474.19 431.83, 475.65 432.87 C 477.10 433.91, 478.58 434.48, 481.13 434.71 C 483.68 434.94, 485.30 434.66, 488.40 434.01 C 491.50 433.36, 493.39 432.78, 496.64 431.47 C 499.89 430.17, 501.71 429.34, 504.63 427.49 C 507.56 425.63, 509.16 424.66, 511.26 422.22 C 513.35 419.77, 514.29 418.15, 515.12 415.26 C 515.95 412.36, 515.90 410.69, 515.40 407.74 C 514.90 404.78, 514.32 403.12, 512.61 400.47 C 510.90 397.82, 509.48 396.52, 506.85 394.49 C 504.22 392.47, 502.54 391.47, 499.46 390.33 C 496.38 389.20, 494.57 388.79, 491.44 388.81 C 488.31 388.84, 486.58 389.15, 483.80 390.45 C 481.02 391.74, 479.59 392.78, 477.55 395.28 C 475.51 397.77, 474.83 399.47, 473.59 402.93 C 472.36 406.38, 471.92 408.35, 471.37 412.54 C 470.83 416.73, 470.77 419.07, 470.88 423.86 C 470.99 428.65, 471.35 431.29, 471.92 436.49 C 472.48 441.69, 472.95 444.71, 473.71 449.85 C 474.46 455.00, 474.89 457.94, 475.68 462.22 C 476.48 466.50, 476.43 468.77, 477.69 471.24 C 478.96 473.71, 480.43 474.24, 482.02 474.58 C 483.61 474.92, 484.67 474.32, 485.64 472.92 C 486.62 471.52, 486.95 470.21, 486.90 467.58 C 486.84 464.95, 486.04 463.27, 485.38 459.77 C 484.72 456.27, 484.32 454.22, 483.59 450.09 C 482.87 445.96, 482.45 443.59, 481.74 439.10 C 481.04 434.61, 480.53 432.02, 480.06 427.63 C 479.59 423.25, 479.50 420.83, 479.38 417.17 C 479.26 413.50, 479.73 411.82, 479.45 409.31 C 479.18 406.79, 478.67 405.94, 478.01 404.60 C 477.35 403.27, 477.03 403.02, 476.14 402.62 C 475.24 402.21, 474.43 402.18, 473.53 402.59"
     style="stroke:none;fill:#f9f9f9"
     id="path5" />
  <path
     d="M 534.02,358.88 C 533.13 359.54, 532.82 360.16, 532.45 361.99 C 532.09 363.83, 531.93 364.96, 532.19 368.05 C 532.45 371.14, 533.25 373.26, 533.75 377.45 C 534.24 381.65, 534.46 384.43, 534.65 389.03 C 534.85 393.63, 534.77 396.17, 534.72 400.45 C 534.66 404.72, 534.30 406.95, 534.38 410.42 C 534.46 413.88, 534.29 415.55, 535.11 417.77 C 535.93 419.99, 536.84 420.74, 538.49 421.52 C 540.13 422.30, 541.34 422.18, 543.34 421.67 C 545.33 421.16, 546.55 420.56, 548.46 418.95 C 550.37 417.33, 551.06 415.74, 552.89 413.61 C 554.72 411.49, 555.68 410.19, 557.63 408.32 C 559.57 406.45, 560.84 405.61, 562.60 404.27 C 564.36 402.92, 565.18 402.15, 566.41 401.61 C 567.64 401.07, 567.96 401.10, 568.73 401.58 C 569.51 402.06, 569.70 402.63, 570.29 404.00 C 570.89 405.37, 571.07 406.37, 571.72 408.44 C 572.38 410.51, 572.69 411.94, 573.55 414.35 C 574.42 416.76, 575.00 418.14, 576.06 420.48 C 577.13 422.82, 577.68 424.02, 578.87 426.04 C 580.06 428.06, 580.76 429.05, 582.02 430.57 C 583.28 432.09, 583.99 432.77, 585.16 433.63 C 586.33 434.48, 586.89 434.60, 587.87 434.83 C 588.85 435.05, 589.38 435.16, 590.06 434.76 C 590.74 434.36, 591.13 433.56, 591.29 432.82 C 591.44 432.09, 591.10 431.84, 590.84 431.08 C 590.57 430.32, 590.56 430.03, 589.97 429.03 C 589.38 428.04, 588.78 427.43, 587.88 426.11 C 586.98 424.79, 586.33 424.16, 585.48 422.43 C 584.63 420.71, 584.36 419.67, 583.63 417.48 C 582.90 415.30, 582.62 413.97, 581.83 411.52 C 581.03 409.07, 580.79 407.58, 579.65 405.23 C 578.52 402.89, 577.85 401.59, 576.16 399.78 C 574.47 397.97, 573.42 397.07, 571.20 396.18 C 568.97 395.29, 567.57 395.04, 565.03 395.33 C 562.50 395.62, 561.11 396.30, 558.53 397.62 C 555.95 398.94, 554.65 399.96, 552.14 401.91 C 549.63 403.85, 548.07 405.11, 545.97 407.32 C 543.86 409.53, 542.80 411.01, 541.61 412.96 C 540.41 414.91, 540.31 415.89, 539.98 417.07 C 539.65 418.25, 539.81 418.92, 539.97 418.87 C 540.12 418.82, 540.59 418.52, 540.74 416.80 C 540.88 415.07, 540.78 413.52, 540.67 410.24 C 540.57 406.97, 540.29 404.69, 540.20 400.43 C 540.12 396.16, 540.23 393.59, 540.24 388.92 C 540.25 384.25, 540.23 381.40, 540.26 377.09 C 540.28 372.78, 540.62 370.50, 540.35 367.36 C 540.08 364.22, 539.61 363.14, 538.92 361.40 C 538.23 359.66, 537.87 359.15, 536.89 358.65 C 535.91 358.14, 534.91 358.21, 534.02 358.88"
     style="stroke:none;fill:#f9f9f9"
     id="path6" />
  <path
     d="M 712.23,354.05 C 711.36 355.25, 710.94 356.73, 711.05 359.61 C 711.16 362.49, 711.96 364.41, 712.80 368.44 C 713.63 372.46, 714.22 375.19, 715.21 379.73 C 716.21 384.26, 716.81 386.75, 717.77 391.09 C 718.74 395.43, 719.21 397.62, 720.06 401.42 C 720.90 405.22, 721.05 407.04, 721.99 410.10 C 722.93 413.16, 723.59 415.53, 724.75 416.72 C 725.91 417.91, 727.22 417.64, 727.79 416.06 C 728.35 414.49, 728.04 412.02, 727.56 408.84 C 727.09 405.66, 726.33 403.95, 725.40 400.17 C 724.48 396.40, 723.86 394.27, 722.94 389.96 C 722.02 385.65, 721.57 383.16, 720.80 378.64 C 720.03 374.11, 719.65 371.36, 719.09 367.35 C 718.53 363.33, 718.74 361.30, 717.99 358.55 C 717.25 355.81, 716.52 354.52, 715.36 353.61 C 714.21 352.71, 713.09 352.85, 712.23 354.05"
     style="stroke:none;fill:#f9f9f9"
     id="path7" />
  <path
     d="M 689.90,364.01 C 690.93 363.29, 691.00 362.02, 691.63 360.52 C 692.26 359.02, 692.15 358.24, 693.05 356.52 C 693.94 354.79, 694.19 353.53, 696.10 351.88 C 698.02 350.23, 699.29 349.33, 702.63 348.26 C 705.97 347.18, 708.35 346.69, 712.81 346.51 C 717.27 346.34, 719.89 346.44, 724.94 347.37 C 729.98 348.31, 732.93 349.13, 738.02 351.17 C 743.11 353.22, 745.86 354.59, 750.39 357.61 C 754.93 360.63, 757.22 362.59, 760.69 366.28 C 764.17 369.97, 765.64 372.11, 767.76 376.08 C 769.89 380.05, 770.60 382.18, 771.32 386.13 C 772.05 390.08, 772.02 392.06, 771.38 395.84 C 770.74 399.62, 769.97 401.52, 768.13 405.05 C 766.28 408.57, 764.99 410.33, 762.16 413.46 C 759.33 416.60, 757.43 418.15, 753.97 420.73 C 750.51 423.30, 748.46 424.51, 744.86 426.32 C 741.25 428.14, 739.24 428.81, 735.94 429.79 C 732.64 430.78, 730.82 430.69, 728.37 431.26 C 725.93 431.83, 724.86 432.16, 723.70 432.64 C 722.54 433.12, 722.43 433.34, 722.57 433.66 C 722.72 433.97, 723.80 434.52, 724.42 434.22 C 725.05 433.91, 726.05 433.18, 725.69 432.12 C 725.34 431.07, 723.79 429.23, 722.63 428.94 C 721.47 428.66, 720.44 429.51, 719.89 430.71 C 719.35 431.91, 719.22 433.48, 719.92 434.94 C 720.62 436.41, 721.42 437.38, 723.40 438.04 C 725.38 438.70, 726.91 438.77, 729.82 438.23 C 732.72 437.69, 734.43 436.79, 737.93 435.34 C 741.43 433.89, 743.51 433.11, 747.33 430.99 C 751.14 428.87, 753.30 427.59, 757.01 424.75 C 760.72 421.91, 762.77 420.28, 765.88 416.79 C 768.98 413.31, 770.48 411.36, 772.54 407.32 C 774.60 403.29, 775.52 401.02, 776.18 396.60 C 776.84 392.19, 776.78 389.77, 775.85 385.25 C 774.93 380.73, 774.00 378.36, 771.57 374.00 C 769.13 369.64, 767.46 367.40, 763.67 363.45 C 759.88 359.50, 757.44 357.48, 752.63 354.26 C 747.81 351.04, 744.95 349.61, 739.59 347.36 C 734.23 345.10, 731.19 344.17, 725.83 342.99 C 720.46 341.80, 717.71 341.56, 712.77 341.45 C 707.83 341.34, 705.33 341.55, 701.11 342.44 C 696.89 343.33, 694.76 343.85, 691.68 345.91 C 688.59 347.96, 687.11 349.97, 685.70 352.71 C 684.28 355.46, 684.43 357.36, 684.58 359.63 C 684.74 361.91, 685.42 363.20, 686.48 364.08 C 687.54 364.95, 688.87 364.72, 689.90 364.01"
     style="stroke:none;fill:#f9f9f9"
     id="path8" />
  <path
     d="M 811.85,416.63 C 812.65 417.42, 813.34 417.64, 814.84 417.66 C 816.33 417.67, 817.40 417.49, 819.33 416.70 C 821.25 415.91, 822.41 415.21, 824.46 413.69 C 826.51 412.18, 827.78 411.14, 829.57 409.13 C 831.36 407.12, 832.25 405.87, 833.40 403.64 C 834.55 401.42, 835.05 400.25, 835.33 398.01 C 835.61 395.78, 835.60 394.52, 834.82 392.47 C 834.03 390.42, 833.33 389.21, 831.39 387.75 C 829.45 386.29, 827.97 385.55, 825.12 385.17 C 822.28 384.79, 820.41 384.92, 817.17 385.85 C 813.93 386.77, 812.07 387.76, 808.92 389.80 C 805.78 391.83, 803.95 393.18, 801.44 396.01 C 798.92 398.85, 797.63 400.66, 796.36 403.98 C 795.09 407.30, 794.72 409.27, 795.07 412.60 C 795.42 415.93, 796.10 417.91, 798.10 420.64 C 800.10 423.38, 801.79 424.50, 805.07 426.27 C 808.35 428.04, 810.43 428.49, 814.48 429.49 C 818.54 430.50, 821.00 430.91, 825.34 431.29 C 829.69 431.66, 831.95 431.64, 836.21 431.36 C 840.48 431.08, 842.76 430.72, 846.68 429.91 C 850.61 429.10, 852.52 428.59, 855.84 427.32 C 859.16 426.05, 860.88 425.25, 863.30 423.57 C 865.73 421.89, 866.72 420.68, 867.98 418.93 C 869.24 417.17, 869.67 415.96, 869.62 414.79 C 869.57 413.62, 868.84 413.09, 867.74 413.05 C 866.64 413.02, 865.81 413.71, 864.12 414.61 C 862.42 415.50, 861.40 416.12, 859.25 417.51 C 857.10 418.90, 856.11 420.19, 853.34 421.55 C 850.58 422.92, 848.93 423.49, 845.44 424.35 C 841.94 425.20, 839.76 425.58, 835.86 425.84 C 831.95 426.09, 829.86 426.07, 825.91 425.62 C 821.95 425.16, 819.60 424.60, 816.07 423.57 C 812.55 422.54, 810.76 421.88, 808.28 420.47 C 805.80 419.06, 804.95 418.22, 803.66 416.51 C 802.38 414.81, 801.99 413.94, 801.83 411.96 C 801.67 409.98, 801.92 408.84, 802.88 406.60 C 803.84 404.36, 804.68 402.84, 806.64 400.76 C 808.61 398.68, 810.18 397.54, 812.72 396.21 C 815.26 394.87, 816.98 394.63, 819.36 394.06 C 821.73 393.49, 822.89 393.44, 824.60 393.35 C 826.32 393.26, 827.01 393.38, 827.94 393.61 C 828.87 393.84, 829.08 393.95, 829.26 394.51 C 829.43 395.08, 829.30 395.46, 828.81 396.44 C 828.32 397.43, 827.87 398.16, 826.79 399.45 C 825.72 400.73, 824.99 401.58, 823.42 402.87 C 821.85 404.16, 820.66 404.74, 818.93 405.90 C 817.21 407.07, 816.17 407.63, 814.80 408.70 C 813.42 409.78, 812.85 410.27, 812.06 411.28 C 811.27 412.29, 810.90 412.67, 810.85 413.74 C 810.81 414.81, 811.05 415.85, 811.85 416.63"
     style="stroke:none;fill:#f9f9f9"
     id="path9" />
  <path
     d="M 881.55,367.41 C 880.69 368.23, 880.35 369.06, 880.20 371.08 C 880.05 373.10, 880.08 374.42, 880.79 377.53 C 881.51 380.65, 882.56 382.76, 883.77 386.65 C 884.99 390.55, 885.78 392.98, 886.86 396.99 C 887.95 401.01, 888.47 403.06, 889.21 406.72 C 889.95 410.39, 890.05 412.33, 890.54 415.34 C 891.03 418.35, 891.11 419.76, 891.66 421.77 C 892.21 423.79, 892.51 424.64, 893.29 425.40 C 894.07 426.16, 894.83 426.15, 895.56 425.58 C 896.28 425.01, 896.95 424.29, 896.89 422.55 C 896.83 420.81, 896.48 419.59, 895.27 416.90 C 894.06 414.20, 892.51 412.63, 890.84 409.07 C 889.16 405.52, 888.31 403.31, 886.91 399.11 C 885.50 394.91, 884.78 392.48, 883.83 388.06 C 882.87 383.64, 882.42 381.32, 882.11 377.00 C 881.80 372.68, 881.76 370.39, 882.29 366.46 C 882.82 362.52, 883.38 360.58, 884.77 357.31 C 886.17 354.04, 887.13 352.54, 889.27 350.11 C 891.41 347.67, 892.77 346.60, 895.49 345.14 C 898.20 343.68, 899.80 343.24, 902.83 342.80 C 905.86 342.36, 907.64 342.39, 910.64 342.93 C 913.64 343.47, 915.31 344.10, 917.83 345.50 C 920.35 346.90, 921.61 348.00, 923.25 349.91 C 924.89 351.83, 925.39 352.97, 926.04 355.07 C 926.69 357.17, 926.80 358.25, 926.48 360.40 C 926.17 362.55, 925.80 363.61, 924.46 365.82 C 923.13 368.03, 922.07 369.29, 919.83 371.46 C 917.58 373.63, 916.11 374.77, 913.24 376.65 C 910.37 378.54, 908.50 379.49, 905.47 380.89 C 902.43 382.29, 900.55 382.61, 898.06 383.65 C 895.58 384.69, 894.56 385.21, 893.04 386.08 C 891.52 386.95, 890.99 387.24, 890.47 388.01 C 889.95 388.79, 890.29 389.48, 890.44 389.95 C 890.58 390.42, 891.24 390.48, 891.20 390.35 C 891.16 390.22, 890.43 389.30, 890.24 389.32 C 890.04 389.34, 889.95 389.92, 890.22 390.44 C 890.50 390.96, 890.65 391.59, 891.61 391.94 C 892.57 392.28, 893.16 392.39, 895.02 392.16 C 896.89 391.93, 898.25 391.84, 900.94 390.79 C 903.64 389.74, 905.33 388.64, 908.50 386.90 C 911.68 385.16, 913.64 384.20, 916.82 382.09 C 920.01 379.98, 921.69 378.87, 924.43 376.35 C 927.16 373.82, 928.69 372.46, 930.50 369.47 C 932.31 366.48, 933.04 364.70, 933.49 361.39 C 933.95 358.09, 933.79 356.14, 932.77 352.94 C 931.75 349.74, 930.74 348.04, 928.37 345.40 C 926.00 342.75, 924.24 341.47, 920.90 339.74 C 917.56 338.01, 915.47 337.34, 911.67 336.75 C 907.86 336.15, 905.69 336.12, 901.87 336.77 C 898.06 337.42, 895.99 338.04, 892.61 339.98 C 889.23 341.92, 887.54 343.39, 884.98 346.45 C 882.43 349.51, 881.39 351.41, 879.84 355.29 C 878.30 359.16, 877.79 361.41, 877.27 365.82 C 876.74 370.23, 876.87 372.70, 877.20 377.35 C 877.53 381.99, 878.03 384.40, 878.91 389.06 C 879.79 393.72, 880.48 396.19, 881.60 400.65 C 882.72 405.11, 883.44 407.40, 884.50 411.37 C 885.55 415.34, 885.69 417.59, 886.87 420.48 C 888.04 423.38, 888.87 424.48, 890.37 425.84 C 891.88 427.20, 892.96 427.36, 894.40 427.28 C 895.84 427.20, 896.78 426.75, 897.58 425.45 C 898.39 424.15, 898.51 423.05, 898.42 420.77 C 898.33 418.49, 897.82 417.13, 897.14 414.06 C 896.45 411.00, 895.90 409.15, 895.01 405.44 C 894.11 401.74, 893.60 399.64, 892.68 395.55 C 891.75 391.46, 891.16 388.96, 890.38 384.98 C 889.60 381.00, 889.52 378.68, 888.79 375.65 C 888.06 372.62, 887.59 371.58, 886.73 369.85 C 885.88 368.13, 885.55 367.50, 884.51 367.02 C 883.47 366.53, 882.41 366.60, 881.55 367.41"
     style="stroke:none;fill:#f9f9f9"
     id="path10" />
  <path
     d="M 935.26,394.15 C 934.08 394.59, 933.29 395.42, 932.48 397.19 C 931.68 398.95, 931.23 400.34, 931.23 402.96 C 931.24 405.59, 931.46 407.56, 932.53 410.30 C 933.59 413.04, 934.65 414.48, 936.55 416.67 C 938.45 418.85, 939.62 419.79, 942.04 421.22 C 944.46 422.65, 945.86 423.28, 948.66 423.81 C 951.45 424.35, 953.07 424.29, 956.00 423.89 C 958.94 423.49, 960.49 423.04, 963.33 421.80 C 966.17 420.56, 967.60 419.59, 970.19 417.67 C 972.78 415.76, 974.11 414.59, 976.28 412.24 C 978.45 409.89, 979.53 408.49, 981.04 405.95 C 982.54 403.41, 983.25 401.88, 983.80 399.54 C 984.34 397.19, 984.36 395.90, 983.78 394.24 C 983.21 392.58, 982.37 391.74, 980.90 391.22 C 979.43 390.70, 978.04 390.68, 976.44 391.64 C 974.84 392.59, 973.66 393.77, 972.89 396.00 C 972.12 398.23, 972.25 400.07, 972.60 402.79 C 972.94 405.51, 973.47 407.02, 974.61 409.60 C 975.75 412.18, 976.55 413.56, 978.30 415.70 C 980.06 417.83, 981.18 418.82, 983.38 420.26 C 985.59 421.69, 986.88 422.18, 989.34 422.89 C 991.80 423.60, 993.21 423.84, 995.68 423.79 C 998.16 423.74, 999.43 423.37, 1001.70 422.65 C 1003.97 421.92, 1005.01 421.43, 1007.03 420.15 C 1009.06 418.87, 1010.08 418.05, 1011.81 416.25 C 1013.54 414.45, 1014.34 413.29, 1015.69 411.16 C 1017.04 409.03, 1017.78 407.74, 1018.57 405.60 C 1019.36 403.46, 1019.83 402.07, 1019.66 400.47 C 1019.49 398.86, 1018.67 397.93, 1017.71 397.57 C 1016.75 397.21, 1015.75 397.53, 1014.86 398.66 C 1013.97 399.80, 1013.38 401.00, 1013.25 403.24 C 1013.11 405.48, 1013.36 407.26, 1014.20 409.87 C 1015.03 412.48, 1016.00 414.03, 1017.43 416.28 C 1018.87 418.54, 1019.64 419.59, 1021.36 421.15 C 1023.09 422.71, 1024.09 423.39, 1026.05 424.07 C 1028.00 424.75, 1029.18 424.82, 1031.16 424.54 C 1033.14 424.27, 1034.11 423.80, 1035.96 422.69 C 1037.81 421.58, 1038.74 420.77, 1040.41 419.00 C 1042.07 417.23, 1042.92 415.93, 1044.29 413.83 C 1045.67 411.73, 1046.46 410.38, 1047.30 408.51 C 1048.14 406.64, 1048.34 405.50, 1048.49 404.46 C 1048.63 403.42, 1048.24 403.09, 1048.03 403.31 C 1047.81 403.52, 1047.33 404.20, 1047.40 405.53 C 1047.48 406.86, 1047.54 408.08, 1048.40 409.97 C 1049.26 411.86, 1050.11 413.14, 1051.70 414.98 C 1053.29 416.81, 1054.35 417.77, 1056.35 419.13 C 1058.36 420.49, 1059.53 421.05, 1061.74 421.79 C 1063.96 422.52, 1065.09 422.71, 1067.43 422.82 C 1069.77 422.93, 1071.00 422.90, 1073.42 422.34 C 1075.84 421.78, 1077.23 421.26, 1079.55 420.02 C 1081.87 418.77, 1083.12 417.78, 1085.01 416.11 C 1086.91 414.45, 1087.89 413.25, 1089.02 411.68 C 1090.15 410.12, 1090.40 409.14, 1090.65 408.29 C 1090.90 407.44, 1090.49 407.13, 1090.28 407.45 C 1090.06 407.77, 1089.54 408.39, 1089.58 409.87 C 1089.63 411.35, 1089.66 412.76, 1090.50 414.83 C 1091.34 416.91, 1092.24 418.22, 1093.78 420.26 C 1095.31 422.29, 1096.25 423.34, 1098.17 425.01 C 1100.09 426.68, 1101.19 427.46, 1103.37 428.61 C 1105.55 429.76, 1106.83 430.30, 1109.06 430.74 C 1111.28 431.18, 1112.69 431.10, 1114.50 430.81 C 1116.32 430.52, 1117.05 430.06, 1118.14 429.30 C 1119.23 428.55, 1119.77 427.96, 1119.95 427.03 C 1120.13 426.09, 1119.67 425.25, 1119.04 424.62 C 1118.41 424.00, 1117.76 424.14, 1116.79 423.90 C 1115.82 423.65, 1115.43 423.57, 1114.19 423.41 C 1112.95 423.25, 1112.05 423.40, 1110.60 423.10 C 1109.15 422.80, 1108.33 422.66, 1106.93 421.91 C 1105.54 421.16, 1104.77 420.64, 1103.62 419.35 C 1102.47 418.07, 1102.07 417.18, 1101.20 415.48 C 1100.32 413.77, 1100.17 412.62, 1099.24 410.83 C 1098.31 409.04, 1097.88 407.97, 1096.54 406.54 C 1095.20 405.12, 1094.30 404.35, 1092.54 403.72 C 1090.77 403.09, 1089.57 402.98, 1087.70 403.42 C 1085.83 403.85, 1084.85 404.65, 1083.18 405.91 C 1081.51 407.18, 1080.89 408.35, 1079.34 409.74 C 1077.79 411.14, 1077.03 411.89, 1075.44 412.90 C 1073.86 413.90, 1072.98 414.27, 1071.40 414.78 C 1069.83 415.28, 1069.04 415.38, 1067.58 415.42 C 1066.11 415.45, 1065.37 415.42, 1064.08 414.96 C 1062.80 414.50, 1062.19 414.18, 1061.17 413.11 C 1060.15 412.05, 1059.88 411.21, 1058.99 409.65 C 1058.09 408.08, 1057.79 406.87, 1056.69 405.29 C 1055.59 403.71, 1054.97 402.89, 1053.49 401.73 C 1052.01 400.57, 1051.12 399.82, 1049.29 399.50 C 1047.47 399.18, 1046.19 399.29, 1044.36 400.13 C 1042.53 400.97, 1041.71 402.00, 1040.15 403.69 C 1038.58 405.38, 1037.89 406.64, 1036.53 408.59 C 1035.18 410.53, 1034.45 411.74, 1033.38 413.43 C 1032.30 415.12, 1031.85 415.98, 1031.15 417.03 C 1030.45 418.09, 1030.41 418.44, 1029.88 418.71 C 1029.35 418.99, 1029.15 418.85, 1028.51 418.40 C 1027.87 417.95, 1027.35 417.62, 1026.68 416.46 C 1026.01 415.30, 1025.66 414.47, 1025.14 412.62 C 1024.62 410.76, 1024.53 409.33, 1024.08 407.19 C 1023.63 405.05, 1023.59 403.80, 1022.89 401.93 C 1022.20 400.05, 1021.85 398.97, 1020.61 397.80 C 1019.37 396.63, 1018.24 396.06, 1016.70 396.10 C 1015.16 396.13, 1014.12 396.76, 1012.91 397.98 C 1011.70 399.21, 1011.52 400.43, 1010.64 402.22 C 1009.76 404.00, 1009.47 405.15, 1008.51 406.90 C 1007.56 408.66, 1006.99 409.58, 1005.88 411.00 C 1004.76 412.42, 1004.20 413.09, 1002.93 414.01 C 1001.66 414.93, 1001.00 415.17, 999.53 415.59 C 998.07 416.02, 997.24 416.14, 995.60 416.13 C 993.97 416.13, 992.98 415.99, 991.35 415.57 C 989.72 415.15, 988.83 414.95, 987.45 414.04 C 986.07 413.13, 985.42 412.48, 984.46 411.03 C 983.49 409.57, 983.04 408.58, 982.62 406.76 C 982.20 404.94, 982.42 403.78, 982.36 401.92 C 982.29 400.05, 982.51 398.86, 982.30 397.43 C 982.09 396.00, 981.80 395.52, 981.30 394.76 C 980.80 394.01, 980.36 393.78, 979.78 393.67 C 979.20 393.55, 978.99 393.54, 978.40 394.20 C 977.80 394.87, 977.65 395.49, 976.81 397.00 C 975.96 398.50, 975.43 399.75, 974.16 401.73 C 972.89 403.71, 972.18 404.99, 970.45 406.90 C 968.72 408.81, 967.59 409.78, 965.51 411.28 C 963.43 412.79, 962.20 413.46, 960.05 414.44 C 957.89 415.42, 956.78 415.78, 954.75 416.19 C 952.72 416.59, 951.69 416.71, 949.91 416.46 C 948.13 416.22, 947.28 415.89, 945.85 414.97 C 944.41 414.05, 943.69 413.36, 942.74 411.87 C 941.79 410.38, 941.56 409.41, 941.10 407.50 C 940.65 405.59, 940.76 404.22, 940.46 402.33 C 940.16 400.44, 940.01 399.53, 939.60 398.06 C 939.19 396.58, 939.28 395.74, 938.41 394.96 C 937.54 394.18, 936.45 393.70, 935.26 394.15"
     style="stroke:none;fill:#f9f9f9"
     id="path11" />
  <path
     d="M 1130.49,409.52 C 1129.54 410.31, 1129.06 411.12, 1128.72 413.29 C 1128.39 415.46, 1128.38 417.05, 1128.82 420.35 C 1129.26 423.66, 1130.05 425.89, 1130.92 429.83 C 1131.80 433.76, 1132.30 436.07, 1133.18 440.05 C 1134.07 444.03, 1134.55 446.09, 1135.35 449.72 C 1136.14 453.35, 1136.48 455.15, 1137.16 458.20 C 1137.84 461.25, 1138.03 462.73, 1138.74 464.99 C 1139.45 467.26, 1139.74 468.43, 1140.70 469.52 C 1141.66 470.62, 1142.60 470.79, 1143.54 470.46 C 1144.49 470.12, 1145.28 469.46, 1145.43 467.85 C 1145.59 466.23, 1145.37 465.16, 1144.32 462.38 C 1143.26 459.59, 1141.71 457.85, 1140.15 453.91 C 1138.60 449.98, 1137.77 447.40, 1136.53 442.71 C 1135.29 438.01, 1134.65 435.24, 1133.97 430.46 C 1133.29 425.68, 1133.06 423.11, 1133.12 418.82 C 1133.19 414.54, 1133.49 412.52, 1134.30 409.03 C 1135.11 405.55, 1135.71 403.94, 1137.16 401.39 C 1138.61 398.85, 1139.60 397.88, 1141.56 396.31 C 1143.52 394.74, 1144.64 394.20, 1146.96 393.53 C 1149.28 392.85, 1150.59 392.71, 1153.15 392.94 C 1155.72 393.17, 1157.30 393.57, 1159.78 394.67 C 1162.27 395.76, 1163.62 396.69, 1165.58 398.41 C 1167.54 400.13, 1168.41 401.30, 1169.59 403.27 C 1170.78 405.23, 1171.19 406.31, 1171.49 408.24 C 1171.79 410.17, 1171.76 411.20, 1171.11 412.93 C 1170.46 414.65, 1169.83 415.28, 1168.25 416.86 C 1166.68 418.45, 1165.59 419.51, 1163.24 420.86 C 1160.89 422.22, 1159.34 422.90, 1156.50 423.64 C 1153.66 424.39, 1151.78 424.41, 1149.03 424.61 C 1146.28 424.81, 1144.73 424.60, 1142.75 424.63 C 1140.78 424.65, 1139.97 424.66, 1139.16 424.74 C 1138.34 424.81, 1138.19 425.04, 1138.67 425.01 C 1139.16 424.99, 1139.85 425.25, 1141.58 424.61 C 1143.31 423.98, 1144.50 423.14, 1147.31 421.82 C 1150.12 420.50, 1151.84 419.40, 1155.64 418.01 C 1159.44 416.62, 1161.84 415.93, 1166.33 414.88 C 1170.81 413.82, 1173.44 413.43, 1178.07 412.74 C 1182.71 412.05, 1185.17 411.79, 1189.52 411.41 C 1193.88 411.02, 1196.16 410.92, 1199.84 410.82 C 1203.52 410.72, 1205.20 411.11, 1207.92 410.91 C 1210.64 410.71, 1211.76 410.45, 1213.44 409.84 C 1215.11 409.23, 1215.62 408.92, 1216.29 407.87 C 1216.95 406.82, 1217.07 405.94, 1216.76 404.58 C 1216.45 403.22, 1216.04 402.05, 1214.73 401.06 C 1213.42 400.07, 1212.24 399.60, 1210.20 399.64 C 1208.17 399.68, 1206.70 400.26, 1204.57 401.27 C 1202.44 402.28, 1201.33 403.00, 1199.54 404.70 C 1197.75 406.40, 1196.77 407.43, 1195.62 409.75 C 1194.47 412.08, 1193.88 413.63, 1193.79 416.31 C 1193.71 419.00, 1194.09 420.66, 1195.20 423.19 C 1196.31 425.72, 1197.24 426.96, 1199.35 428.97 C 1201.46 430.98, 1202.88 431.97, 1205.77 433.24 C 1208.66 434.52, 1210.52 434.88, 1213.78 435.35 C 1217.03 435.81, 1218.84 435.87, 1222.05 435.58 C 1225.26 435.29, 1226.97 434.98, 1229.84 433.90 C 1232.71 432.83, 1234.24 432.07, 1236.40 430.21 C 1238.55 428.35, 1239.54 427.10, 1240.62 424.61 C 1241.70 422.12, 1241.94 420.51, 1241.80 417.74 C 1241.67 414.98, 1241.28 413.40, 1239.95 410.78 C 1238.63 408.16, 1237.43 406.70, 1235.18 404.64 C 1232.93 402.59, 1231.36 401.64, 1228.71 400.48 C 1226.06 399.32, 1224.31 399.09, 1221.92 398.84 C 1219.52 398.60, 1218.36 398.75, 1216.73 399.25 C 1215.11 399.75, 1214.45 400.53, 1213.79 401.34 C 1213.12 402.15, 1213.29 402.74, 1213.41 403.30 C 1213.53 403.86, 1214.04 403.83, 1214.38 404.13 C 1214.72 404.44, 1214.55 404.47, 1215.11 404.81 C 1215.66 405.16, 1216.05 405.54, 1217.16 405.86 C 1218.27 406.18, 1219.03 406.00, 1220.65 406.43 C 1222.27 406.85, 1223.46 407.09, 1225.25 407.98 C 1227.04 408.87, 1228.06 409.53, 1229.62 410.88 C 1231.18 412.22, 1232.03 413.18, 1233.05 414.69 C 1234.07 416.20, 1234.43 416.99, 1234.71 418.44 C 1234.99 419.90, 1234.99 420.71, 1234.46 421.95 C 1233.93 423.19, 1233.46 423.72, 1232.05 424.65 C 1230.63 425.58, 1229.51 426.00, 1227.39 426.61 C 1225.27 427.21, 1223.92 427.53, 1221.45 427.67 C 1218.97 427.82, 1217.50 427.74, 1215.01 427.33 C 1212.51 426.91, 1211.09 426.42, 1208.98 425.60 C 1206.86 424.77, 1205.83 424.30, 1204.44 423.21 C 1203.05 422.13, 1202.61 421.45, 1202.02 420.16 C 1201.43 418.86, 1201.36 418.08, 1201.50 416.74 C 1201.64 415.40, 1202.02 414.67, 1202.72 413.46 C 1203.41 412.25, 1203.99 411.51, 1204.98 410.69 C 1205.96 409.87, 1206.53 409.57, 1207.64 409.35 C 1208.74 409.14, 1209.42 409.66, 1210.50 409.61 C 1211.57 409.56, 1212.12 409.62, 1213.00 409.10 C 1213.89 408.59, 1214.52 407.85, 1214.93 407.03 C 1215.35 406.21, 1215.53 405.59, 1215.08 405.00 C 1214.63 404.42, 1214.22 404.30, 1212.68 404.11 C 1211.15 403.93, 1210.07 403.87, 1207.42 404.07 C 1204.76 404.27, 1203.10 404.66, 1199.41 405.12 C 1195.72 405.57, 1193.40 405.81, 1188.99 406.35 C 1184.58 406.90, 1182.11 407.17, 1177.36 407.84 C 1172.62 408.52, 1169.95 408.87, 1165.26 409.72 C 1160.56 410.57, 1158.09 411.13, 1153.89 412.10 C 1149.70 413.07, 1147.61 413.34, 1144.29 414.58 C 1140.97 415.81, 1139.24 416.45, 1137.31 418.28 C 1135.38 420.10, 1134.83 421.61, 1134.64 423.72 C 1134.44 425.82, 1134.90 427.16, 1136.32 428.80 C 1137.74 430.44, 1139.08 431.23, 1141.73 431.91 C 1144.38 432.59, 1146.25 432.44, 1149.59 432.19 C 1152.93 431.94, 1154.95 431.63, 1158.42 430.66 C 1161.88 429.69, 1163.84 429.05, 1166.91 427.32 C 1169.99 425.59, 1171.65 424.44, 1173.80 422.01 C 1175.95 419.58, 1176.72 418.11, 1177.67 415.17 C 1178.62 412.24, 1178.87 410.49, 1178.54 407.36 C 1178.21 404.22, 1177.67 402.39, 1176.02 399.51 C 1174.36 396.63, 1172.95 395.22, 1170.27 392.95 C 1167.58 390.68, 1165.90 389.56, 1162.58 388.16 C 1159.26 386.76, 1157.22 386.18, 1153.68 385.95 C 1150.14 385.71, 1148.16 385.91, 1144.89 387.00 C 1141.63 388.09, 1139.93 389.08, 1137.35 391.41 C 1134.76 393.74, 1133.63 395.35, 1131.99 398.66 C 1130.35 401.98, 1129.91 403.94, 1129.16 407.97 C 1128.42 411.99, 1128.25 414.17, 1128.26 418.79 C 1128.27 423.42, 1128.58 426.08, 1129.21 431.10 C 1129.85 436.11, 1130.49 438.92, 1131.44 443.86 C 1132.39 448.80, 1133.00 451.45, 1133.95 455.79 C 1134.89 460.13, 1134.97 462.61, 1136.17 465.57 C 1137.37 468.54, 1138.43 469.50, 1139.95 470.60 C 1141.48 471.71, 1142.57 471.53, 1143.79 471.08 C 1145.01 470.64, 1145.67 469.95, 1146.06 468.37 C 1146.45 466.79, 1146.22 465.56, 1145.73 463.19 C 1145.25 460.81, 1144.53 459.47, 1143.62 456.50 C 1142.71 453.53, 1142.10 451.86, 1141.19 448.33 C 1140.29 444.80, 1139.81 442.78, 1139.09 438.85 C 1138.37 434.92, 1138.07 432.59, 1137.61 428.69 C 1137.15 424.78, 1137.19 422.51, 1136.78 419.32 C 1136.38 416.13, 1136.25 414.74, 1135.59 412.75 C 1134.93 410.76, 1134.49 410.02, 1133.47 409.38 C 1132.45 408.73, 1131.44 408.74, 1130.49 409.52"
     style="stroke:none;fill:#f9f9f9"
     id="path12" />
</svg>
