<svg viewBox="228.044 335.068 776.479 98.114" width="776.479" height="98.114" xmlns="http://www.w3.org/2000/svg"><path d="M241.939 353.96c-.5.67-.66 1.16-.52 2.28.13 1.13.4 1.95 1.21 3.33.81 1.39 1.5 2.14 2.85 3.61 1.35 1.47 2.31 2.22 3.9 3.76 1.59 1.53 2.39 2.26 4.04 3.89 1.64 1.64 2.61 2.57 4.18 4.29 1.57 1.73 2.21 2.53 3.66 4.34 1.44 1.8 2.31 2.8 3.58 4.69 1.27 1.88 1.86 2.94 2.76 4.73.91 1.8 1.44 2.59 1.77 4.25.33 1.66.2 2.48-.13 4.04-.32 1.56-.71 2.38-1.5 3.78-.8 1.39-1.23 2.02-2.47 3.21-1.25 1.2-2.12 1.79-3.75 2.77-1.64.99-2.47 1.53-4.42 2.16-1.96.63-3.05.75-5.37.99-2.32.24-3.79.22-6.22.2-2.44-.01-3.82-.02-5.94-.27-2.12-.25-3.09-.65-4.66-.98-1.57-.34-2.16-.49-3.2-.71-1.03-.23-1.35-.57-1.99-.41-.63.17-1.14.49-1.17 1.23-.04.74.12 1.45 1.01 2.48.88 1.03 1.6 1.75 3.39 2.67 1.8.91 3.1 1.4 5.6 1.91 2.49.51 4.1.6 6.89.64 2.79.04 4.35-.06 7.07-.44 2.73-.39 4.09-.65 6.54-1.49 2.44-.85 3.61-1.43 5.7-2.74 2.09-1.32 3.14-2.15 4.74-3.84 1.61-1.69 2.22-2.62 3.29-4.63 1.06-2.02 1.61-3.14 2.04-5.44.43-2.3.46-3.68.1-6.06-.35-2.38-.87-3.54-1.85-5.84-.99-2.29-1.65-3.51-3.06-5.65-1.41-2.15-2.45-3.12-3.99-5.06-1.55-1.93-2.15-2.75-3.72-4.63-1.58-1.87-2.53-2.99-4.16-4.74-1.62-1.76-2.52-2.45-3.97-4.02-1.45-1.58-2.09-2.46-3.26-3.85-1.16-1.4-1.59-2.11-2.58-3.12-.98-1.01-1.47-1.45-2.35-1.94-.89-.48-1.25-.61-2.06-.48-.8.12-1.48.41-1.98 1.09m53.44 35.23c-.32-.86-.79-1.46-1.96-1.95-1.17-.48-2.14-.61-3.9-.47-1.76.15-2.96.24-4.9 1.19-1.93.95-3.17 1.87-4.76 3.58-1.59 1.71-2.3 2.8-3.19 4.96-.88 2.15-1.34 3.47-1.24 5.82.09 2.34.47 3.83 1.71 5.91 1.25 2.08 2.38 3.04 4.52 4.47 2.14 1.43 3.53 1.97 6.19 2.66 2.67.68 4.3.84 7.14.77 2.84-.08 4.5-.39 7.08-1.14 2.58-.76 3.78-1.37 5.82-2.63 2.04-1.27 2.94-2.04 4.36-3.7 1.42-1.66 2.15-2.58 2.73-4.6.58-2.03.63-3.38.16-5.53-.46-2.15-1.16-3.46-2.51-5.21-1.35-1.76-2.37-2.53-4.25-3.56-1.88-1.04-3.3-1.6-5.16-1.61-1.86-.02-3.34.69-4.15 1.52-.82.83-.56 1.83.06 2.63.62.79 1.82.76 3.04 1.33 1.22.58 1.94.82 3.07 1.54 1.14.71 1.72 1.05 2.59 2.03.86.99 1.3 1.81 1.75 2.91.45 1.1.76 1.62.51 2.6s-.75 1.36-1.76 2.3c-1 .93-1.72 1.58-3.28 2.38-1.56.79-2.49 1.15-4.53 1.58-2.03.43-3.41.55-5.65.57-2.24.02-3.54-.06-5.55-.46-2.01-.41-3.03-.8-4.51-1.57-1.49-.78-2.17-1.27-2.91-2.31-.75-1.05-.9-1.7-.82-2.91.07-1.22.49-1.95 1.19-3.17.7-1.23 1.24-1.98 2.29-2.96 1.05-.97 1.76-1.43 2.95-1.92 1.19-.48 1.84-.22 3-.49s1.9-.42 2.8-.86c.89-.45 1.27-.61 1.68-1.35.42-.74.7-1.49.39-2.35m26.37 14.12c.73.37.97.16 2 .07s1.69-.06 3.14-.53c1.46-.47 2.36-.99 4.14-1.8 1.79-.8 2.83-1.25 4.79-2.23 1.96-.99 3.18-1.5 5-2.67 1.82-1.18 2.87-1.79 4.1-3.22 1.24-1.42 1.78-2.36 2.06-3.92.27-1.56.15-2.56-.68-3.87-.84-1.3-1.66-2.09-3.5-2.67-1.83-.58-3.23-.68-5.68-.23-2.44.45-4 1.14-6.55 2.5-2.56 1.36-3.99 2.4-6.23 4.32-2.25 1.92-3.41 3.06-4.99 5.28-1.59 2.22-2.42 3.47-2.92 5.83-.51 2.37-.54 3.8.37 6 .92 2.2 1.89 3.47 4.19 5 2.31 1.53 3.99 1.94 7.35 2.64 3.35.7 5.36.66 9.42.86 4.07.21 6.54.19 10.9.16 4.37-.03 6.84-.16 10.94-.32s5.99-.31 9.56-.48c3.57-.16 5.56-.07 8.28-.34 2.72-.28 3.64-.69 5.32-1.06 1.68-.36 2.24-.41 3.09-.76.84-.36.84-.71 1.13-1 .29-.3.21-.21.31-.47.1-.27.27-.57.18-.88-.09-.31-.24-.42-.64-.66-.39-.25-.43-.39-1.34-.57-.91-.18-1.47-.3-3.19-.33-1.72-.03-2.72-.07-5.42.2-2.7.27-4.6.75-8.1 1.15-3.49.39-5.36.62-9.38.82-4.02.21-6.46.29-10.71.2-4.24-.08-6.7-.17-10.51-.62-3.82-.45-5.68-.94-8.55-1.64-2.87-.7-4.08-1.11-5.81-1.87-1.74-.77-2.34-1.05-2.86-1.96-.52-.9-.38-1.36.25-2.55.62-1.2 1.39-1.97 2.86-3.43 1.47-1.45 2.51-2.45 4.48-3.85 1.97-1.4 3.29-2.12 5.37-3.14s3.34-1.34 5.04-1.97c1.7-.63 2.52-.76 3.47-1.16.96-.4 1.2-.68 1.33-.84.13-.17-.13-.27-.66 0s-.89.69-1.99 1.33c-1.09.63-1.85 1.07-3.49 1.84-1.64.78-2.81 1.24-4.71 2.04-1.91.8-3.03 1.18-4.82 1.97-1.79.79-2.69 1.13-4.12 1.99-1.43.86-2.26 1.29-3.04 2.31-.78 1.01-1.02 1.85-.85 2.76.16.91.93 1.4 1.67 1.77m99.015-53.8c-.7.96-1.04 2.15-1.07 4.54-.03 2.39.32 4.06.93 7.43.6 3.37 1.24 5.52 2.11 9.41.86 3.9 1.38 6.19 2.22 10.07.84 3.88 1.23 5.83 1.98 9.34.74 3.52 1.08 5.18 1.75 8.22.67 3.04.8 4.56 1.6 6.99.79 2.43 1.46 3.55 2.38 5.15.92 1.6 1.35 2.09 2.22 2.86.86.76 1.44.98 2.1.97.65-.01.98-.48 1.16-1.03.18-.55-.1-.76-.27-1.72-.16-.96-.08-1.51-.54-3.1s-1.03-2.56-1.75-4.84c-.71-2.27-1.02-3.63-1.83-6.54s-1.36-4.56-2.2-8.01c-.84-3.45-1.25-5.37-2-9.24-.75-3.86-1.14-6.18-1.76-10.08-.62-3.91-.83-6.11-1.36-9.43-.52-3.32-.61-4.93-1.26-7.18s-1.1-3.3-1.98-4.07c-.88-.76-1.73-.7-2.43.26" style="fill:#fff;stroke:#fff"/><path d="M400.124 357.39c1.14.58 2.43.71 5.32.51 2.88-.2 4.76-.85 9.09-1.5 4.34-.64 7.27-1.15 12.59-1.73 5.33-.57 8.52-.89 14.05-1.15 5.52-.26 8.64-.24 13.58-.13 4.93.11 7.41.32 11.09.68 3.69.37 5.12.9 7.33 1.15 2.21.24 2.95.16 3.73.07.77-.08.61-.29.16-.49-.46-.2-1.12-.55-2.44-.5-1.32.04-2.41.16-4.15.74-1.74.58-2.73 1.26-4.55 2.14-1.81.87-2.9 1.33-4.53 2.24-1.63.92-2.48 1.36-3.62 2.31-1.14.95-1.6 1.53-2.09 2.44-.49.92-.55 1.5-.35 2.13.19.63.76.87 1.32 1.03.56.15.72-.1 1.49-.26.77-.15 1.18-.14 2.36-.5 1.17-.36 1.9-.73 3.52-1.29 1.63-.55 2.74-.85 4.6-1.47 1.87-.63 2.99-.8 4.74-1.64 1.75-.84 2.83-1.32 4-2.55 1.18-1.24 1.7-2.26 1.88-3.64.18-1.37.08-2.17-.97-3.24-1.06-1.07-1.88-1.55-4.3-2.11-2.43-.57-4-.55-7.84-.71-3.83-.16-6.33-.12-11.35-.09s-8.16.03-13.75.23c-5.6.2-8.84.42-14.24.79-5.41.36-8.37.67-12.78 1.05-4.42.38-6.45.22-9.31.84-2.86.63-4.07 1.35-4.99 2.28-.91.93-.74 1.8.41 2.37m46.45 42.18c-.36.99-.28 2.18.57 3.4.85 1.22 1.88 2.06 3.68 2.69 1.79.63 3.14.72 5.27.44 2.13-.28 3.22-.93 5.36-1.83 2.15-.89 3.43-1.25 5.37-2.66 1.93-1.41 3.74-2.94 4.31-4.38.56-1.43.02-2.45-1.47-2.81-1.49-.36-3.77.31-5.99 1.01-2.21.71-3.32 1.63-5.11 2.52-1.78.9-2.6 1.53-3.8 1.97-1.19.43-1.46.39-2.17.21-.71-.18-.64-.68-1.37-1.1-.73-.42-1.34-1.11-2.27-1-.94.11-2.02.55-2.38 1.54m49.72 10.27c.58.66.79.95 1.25 1.13.46.17.66 0 1.06-.25s.88-.43.94-.99c.07-.56-.05-1.05-.63-1.83-.58-.77-1.45-1.51-2.25-2.05-.79-.53-1.33-.52-1.72-.63-.38-.11-.09-.02-.2.1-.12.12-.35.03-.37.5-.01.47-.1 1.04.29 1.85.38.8 1.06 1.51 1.63 2.17m51.397-52.15c-.77.71-1.15 1.56-1.51 3.56-.36 2-.52 3.45-.29 6.45.22 2.99.78 5.12 1.42 8.54.64 3.41 1.17 5.27 1.79 8.52.62 3.26.68 5.13 1.3 7.73.62 2.6 1.11 3.74 1.8 5.28.7 1.54 1.1 1.73 1.68 2.42.57.7.71.92 1.19 1.04.47.13.88-.06 1.18-.43.29-.37.17-.59.29-1.41.11-.82.32-1.08.28-2.69-.03-1.62-.05-2.78-.46-5.38-.41-2.6-.97-4.43-1.57-7.63-.6-3.2-1.04-5.04-1.43-8.37-.38-3.34-.14-5.45-.5-8.31-.35-2.87-.71-4.17-1.27-6.04-.56-1.86-.75-2.63-1.52-3.29-.78-.65-1.6-.71-2.38.01" style="fill:#fff;stroke:#fff"/><path d="M529.141 350.01c.58-.82.3-1.85.28-2.91-.03-1.07-.21-1.53-.4-2.41-.18-.88-.91-1.48-.53-1.98.39-.5.71-.26 2.46-.52 1.76-.26 3.19-.56 6.32-.79 3.13-.24 5.14-.58 9.33-.39 4.2.19 6.7.45 11.63 1.33 4.93.88 7.87 1.49 13.03 3.07 5.16 1.57 7.97 2.58 12.77 4.81 4.79 2.23 7.14 3.6 11.2 6.33 4.05 2.74 6.06 4.34 9.06 7.36 3 3.02 4.24 4.62 5.93 7.74 1.69 3.13 2.1 4.84 2.51 7.91.41 3.07.3 4.62-.46 7.45-.75 2.82-1.5 4.08-3.32 6.67-1.83 2.59-3.08 4-5.81 6.27-2.72 2.27-4.52 3.35-7.82 5.08-3.31 1.74-5.24 2.56-8.7 3.58-3.46 1.02-5.45 1.22-8.62 1.53-3.18.31-4.84.03-7.24.02-2.4-.01-3.56.03-4.76-.06-1.2-.09-1.16-.2-1.23-.4-.07-.21.54-.19.88-.64.33-.44 1.02-.86.8-1.58-.21-.72-1.02-1.9-1.88-2.02-.87-.11-1.86.41-2.44 1.45-.57 1.05-.9 2.32-.43 3.77.46 1.46.99 2.48 2.76 3.51 1.76 1.03 3.24 1.45 6.08 1.64 2.84.19 4.62-.13 8.11-.69 3.49-.55 5.58-.89 9.34-2.1s5.83-2.05 9.45-3.96c3.63-1.9 5.59-3.01 8.67-5.54 3.08-2.54 4.57-4.07 6.71-7.14 2.15-3.07 3.14-4.74 3.99-8.24.86-3.5.9-5.57.28-9.27-.62-3.69-1.33-5.69-3.38-9.2-2.05-3.52-3.55-5.18-6.88-8.37-3.32-3.19-5.45-4.76-9.74-7.57-4.28-2.82-6.71-4.18-11.68-6.5-4.96-2.32-7.84-3.37-13.13-5.09-5.28-1.73-8.25-2.39-13.3-3.53-5.05-1.14-7.57-1.56-11.95-2.18-4.38-.61-6.44-.86-9.95-.88-3.51-.01-5.09 0-7.59.81-2.51.81-3.61 1.58-4.92 3.26-1.32 1.67-1.51 3.28-1.66 5.12-.15 1.85.18 2.82.9 4.11.73 1.29 1.64 2.12 2.71 2.35 1.06.23 2.04-.38 2.62-1.21m100.17 42.71c.58.64 1.05.64 2.22.81 1.16.16 1.91.36 3.61.03 1.71-.33 2.97-.74 4.91-1.69 1.94-.96 3.18-1.63 4.78-3.1 1.6-1.47 2.41-2.51 3.21-4.26.81-1.75 1.02-2.78.83-4.51-.19-1.73-.53-2.79-1.78-4.15-1.25-1.37-2.32-2.06-4.46-2.68-2.13-.62-3.63-.71-6.21-.4-2.58.31-4.18.84-6.69 1.95-2.5 1.11-3.89 1.89-5.84 3.6-1.95 1.72-2.94 2.89-3.91 4.99-.97 2.1-1.15 3.44-.93 5.53.21 2.09.68 3.1 1.99 4.91 1.32 1.82 2.24 2.84 4.6 4.15 2.36 1.32 4.07 1.79 7.2 2.42 3.13.63 4.96.53 8.45.73 3.49.21 5.54.33 9 .28 3.47-.04 5.32-.07 8.32-.48s4.53-.85 6.67-1.56c2.15-.71 2.83-1.23 4.05-2 1.23-.76 1.76-1.13 2.07-1.82.31-.68.1-1.23-.54-1.6-.63-.37-1.28-.27-2.64-.24-1.36.02-2.09.08-4.17.35-2.08.27-3.46.62-6.23.99-2.77.36-4.41.76-7.62.82-3.21.07-5.22-.12-8.42-.49-3.19-.37-4.89-.74-7.56-1.37-2.68-.62-3.96-1.03-5.81-1.75-1.86-.73-2.54-1.11-3.48-1.86s-1.18-1.02-1.23-1.89c-.04-.87.2-1.43 1-2.46.8-1.04 1.47-1.74 3-2.7 1.52-.96 2.67-1.43 4.62-2.1 1.95-.68 3.28-.95 5.14-1.29 1.87-.35 2.87-.35 4.19-.42 1.32-.08 1.84-.09 2.42.05.58.14.58.23.46.64-.12.41-.32.78-1.05 1.41-.73.63-1.28 1.08-2.62 1.74-1.34.66-2.46.86-4.08 1.56-1.61.7-2.66 1.22-3.99 1.93-1.32.72-1.8.96-2.63 1.67-.84.71-1.36 1.03-1.53 1.88-.17.85.1 1.74.68 2.38m40.42-29.2c-.65.53-.73.95-1.01 2.27-.27 1.33-.57 2.16-.36 4.34.22 2.18.62 3.87 1.42 6.57.81 2.7 1.53 4.19 2.62 6.94s1.73 4.26 2.82 6.82c1.09 2.56 1.54 3.93 2.63 5.98 1.09 2.05 1.89 3.03 2.81 4.27.92 1.24 1.09 1.46 1.78 1.91.69.46 1.24.43 1.66.36.41-.07.39-.71.42-.71.03-.01-.41.65-.26.69.16.04.76-.07 1.03-.49.26-.42.33-.81.29-1.62-.03-.82 0-1.07-.45-2.46-.44-1.39-.97-2.42-1.76-4.48-.8-2.06-1.31-3.31-2.22-5.81-.92-2.49-1.57-3.98-2.37-6.67s-.97-4.2-1.62-6.77c-.66-2.58-.96-4.14-1.65-6.1-.7-1.95-1.12-2.57-1.83-3.66-.7-1.09-.91-1.5-1.71-1.78-.79-.27-1.59-.14-2.24.4" style="fill:#fff;stroke:#fff"/><path d="M671.261 361.67c.9-.49 1.19-1.39 1.87-2.64.69-1.26.91-2.32 1.56-3.63.65-1.32.66-2.06 1.68-2.95 1.03-.9 1.91-1.18 3.45-1.53 1.53-.34 2.44-.4 4.21-.21 1.78.2 2.84.47 4.67 1.18 1.82.7 2.96 1.35 4.46 2.35 1.49 1 2.2 1.52 3 2.66.8 1.13 1.03 1.75 1 3.01-.03 1.27-.41 1.93-1.17 3.3-.76 1.37-1.43 2.15-2.63 3.56-1.2 1.4-2.02 2.16-3.38 3.46-1.36 1.3-2.24 1.94-3.4 3.03-1.17 1.09-1.81 1.51-2.43 2.41-.61.91-.58 1.49-.65 2.11-.07.62.17.72.31 1 .15.27.18.2.41.37.23.18.19.39.76.5.58.11 1.03.38 2.1.07 1.06-.31 1.76-.68 3.22-1.62 1.47-.94 2.5-1.61 4.13-3.08 1.62-1.46 2.6-2.37 3.99-4.25 1.4-1.89 2.19-2.99 2.99-5.19.81-2.19 1.13-3.48 1.02-5.77-.1-2.29-.46-3.57-1.55-5.68-1.1-2.1-1.95-3.2-3.93-4.85-1.97-1.66-3.48-2.5-5.97-3.42-2.48-.93-3.94-1.06-6.45-1.22-2.51-.15-3.68-.15-6.09.43-2.41.58-3.98 1.01-5.94 2.47-1.96 1.46-2.8 2.78-3.85 4.82-1.04 2.03-1.37 3.54-1.37 5.36.01 1.83.59 2.96 1.38 3.75.8.79 1.71.69 2.6.2m30.65 15.63c-.78.58-1.08 1.25-1.42 2.69-.33 1.44-.51 2.55-.24 4.53.27 1.98.62 3.31 1.6 5.36.99 2.04 1.75 3.16 3.33 4.87 1.59 1.72 2.59 2.58 4.58 3.71 2 1.14 3.11 1.59 5.39 1.97 2.28.37 3.66.35 6.01-.11 2.35-.46 3.57-1.02 5.72-2.18 2.16-1.16 3.2-1.98 5.05-3.62 1.85-1.64 2.76-2.74 4.19-4.58 1.42-1.84 2.18-3.01 2.94-4.63.75-1.62.86-2.64.82-3.48-.03-.83-.68-1.09-1.02-.7-.34.38-.78 1.15-.67 2.63.1 1.48.3 2.78 1.21 4.77.91 1.98 1.77 3.26 3.32 5.15 1.55 1.89 2.62 2.85 4.43 4.31 1.81 1.46 2.75 2.06 4.61 2.97 1.87.91 2.94 1.26 4.73 1.58 1.79.32 2.89.21 4.24.04 1.35-.18 1.76-.54 2.5-.92.74-.37.88-.58 1.22-.95.34-.38.44-.43.49-.91.05-.49.01-1.08-.23-1.52-.23-.44-.46-.5-.93-.7-.48-.19-.79-.19-1.44-.28-.64-.09-.84-.08-1.81-.18-.96-.09-1.76-.05-3-.28-1.24-.24-1.97-.19-3.21-.87-1.24-.68-1.82-1.24-2.97-2.53-1.15-1.28-1.81-2.2-2.8-3.89-.98-1.69-1.17-2.85-2.11-4.55-.95-1.71-1.42-2.76-2.61-3.97-1.19-1.21-2-1.72-3.36-2.09-1.37-.37-2.13-.32-3.46.25-1.34.58-2.01 1.29-3.22 2.65-1.21 1.35-1.6 2.53-2.83 4.14-1.22 1.61-1.86 2.54-3.28 3.88-1.42 1.35-2.26 1.94-3.83 2.86-1.56.91-2.42 1.31-3.99 1.72-1.57.41-2.43.52-3.84.32-1.41-.19-2-.48-3.21-1.29-1.2-.82-1.87-1.53-2.82-2.79-.94-1.26-1.33-2.04-1.88-3.53-.56-1.48-.5-2.38-.87-3.91-.38-1.53-.43-2.53-.99-3.75-.57-1.23-.98-1.96-1.85-2.39-.87-.44-1.71-.38-2.49.2m63.04 8.24c-.58.46-.73.84-.8 1.8-.08.95-.15 1.66.42 2.99.56 1.34 1.15 2.3 2.39 3.68 1.25 1.37 2.36 2.08 3.84 3.2s2.22 1.58 3.57 2.39c1.34.81 1.91 1.29 3.17 1.66 1.25.38 1.93.41 3.11.23 1.17-.18 1.75-.46 2.76-1.13 1.02-.68 1.66-1.23 2.32-2.24.66-1.01.74-1.79.98-2.83.25-1.03.22-1.56.25-2.34.04-.78 0-1.17-.07-1.56-.06-.4-.24-.51-.26-.41-.02.1-.11.29.16.91.27.63.38 1.29 1.18 2.2.8.92 1.57 1.62 2.82 2.39 1.25.76 2.03 1.06 3.43 1.44 1.4.38 2.16.5 3.56.46 1.4-.05 2.14-.21 3.44-.67 1.3-.45 1.88-.84 3.06-1.61 1.18-.76 1.69-1.3 2.83-2.2 1.13-.9 1.74-1.42 2.84-2.3 1.1-.88 1.78-1.42 2.64-2.11.86-.69 1.1-1.16 1.66-1.34.56-.17.59-.02 1.13.45.55.47.91 1.1 1.6 1.9.69.8 1.11 1.17 1.86 2.1.74.93 1.13 1.59 1.87 2.57.73.98 1.12 1.54 1.81 2.34.68.8 1.08 1.1 1.6 1.66.53.57.63.78 1.02 1.17.39.39.62.52.93.78.31.26.31.42.62.51.3.09.39.31.9-.04.52-.35 1.32-1.2 1.67-1.71.36-.51.12-.59.11-.83-.01-.23-.08-.1-.15-.34-.08-.24-.05-.38-.21-.84-.16-.47-.27-.78-.59-1.51-.31-.72-.51-1.14-.99-2.1-.48-.96-.7-1.54-1.42-2.7-.72-1.15-1.21-1.94-2.17-3.08-.96-1.13-1.4-1.63-2.61-2.59-1.22-.95-1.95-1.65-3.47-2.18-1.51-.54-2.51-.58-4.11-.49-1.61.09-2.38.34-3.9.92-1.53.58-2.33 1.07-3.73 1.96-1.39.9-2.07 1.54-3.23 2.52-1.16.97-1.72 1.52-2.57 2.36-.84.84-1.14 1.3-1.66 1.83-.53.54-.58.82-.94.84-.35.02-.39-.18-.84-.74-.45-.57-.63-1.2-1.41-2.08-.77-.88-1.36-1.56-2.47-2.33-1.11-.76-1.77-1.15-3.09-1.5-1.31-.36-2.17-.47-3.49-.27-1.32.2-2.01.52-3.11 1.25s-1.64 1.27-2.4 2.39c-.76 1.11-1.13 2.02-1.4 3.17-.28 1.16-.08 1.81.01 2.61.09.81.25 1.06.45 1.43.2.36.52.51.55.4.03-.11.01-.34-.42-.94-.43-.61-.89-1.05-1.71-2.08-.83-1.02-1.36-1.74-2.41-3.05-1.05-1.31-1.74-2.29-2.85-3.48s-1.77-1.83-2.71-2.47c-.94-.65-1.34-.55-1.99-.73-.65-.19-.59-.25-1.27-.19-.67.07-1.52.04-2.11.5m69.16 10.21c-.6.51-.49.79-.74 1.78s-.56 1.49-.52 3.17c.05 1.69.34 2.96.74 5.23.39 2.28.76 3.58 1.23 6.14.47 2.57.62 4.1 1.11 6.7.49 2.59.84 4.14 1.33 6.28.49 2.15.57 3.02 1.12 4.44.55 1.42.83 2.14 1.63 2.66.81.52 1.61.45 2.39-.05.78-.51 1.22-1.02 1.53-2.48.31-1.47.35-2.45.03-4.85-.32-2.4-.99-4.02-1.64-7.15-.65-3.13-1.13-5.22-1.61-8.51-.48-3.29-.61-5.04-.79-7.94-.19-2.91-.18-4.22-.14-6.57.04-2.36-.05-3.54.36-5.21.4-1.66.78-2.11 1.65-3.11.86-1 1.52-1.38 2.68-1.88 1.15-.5 1.66-.67 3.11-.62 1.44.05 2.3.34 4.1.87 1.8.54 3.02.95 4.91 1.81 1.89.85 2.96 1.46 4.53 2.48 1.57 1.02 2.37 1.68 3.32 2.62.96.94 1.22 1.35 1.44 2.08.23.72.14 1.03-.31 1.53s-.78.6-1.94.97c-1.16.36-2.06.52-3.86.85-1.8.33-3.08.5-5.14.8-2.06.31-3.29.48-5.16.73s-2.97.25-4.2.53c-1.23.29-1.52.56-1.94.9-.41.34-.13.66-.13.81-.01.14.37.03.11-.1-.25-.14-1.05-.68-1.4-.59-.35.09-.44.44-.35 1.03.08.58.1 1.2.79 1.89.68.7 1.13 1.15 2.62 1.58 1.5.44 2.74.55 4.86.58 2.11.04 3.38-.11 5.72-.39s3.75-.29 5.96-1c2.21-.7 3.47-1.25 5.1-2.51 1.63-1.26 2.26-2.12 3.03-3.78.77-1.66.97-2.68.82-4.51-.16-1.84-.49-2.84-1.59-4.67-1.09-1.83-1.98-2.87-3.87-4.47-1.89-1.6-3.2-2.44-5.58-3.53-2.37-1.1-3.85-1.51-6.29-1.95-2.43-.44-3.68-.52-5.88-.26-2.2.26-3.24.58-5.11 1.56-1.87.98-2.84 1.67-4.24 3.33-1.4 1.66-2.02 2.7-2.76 4.97-.75 2.27-.77 3.69-.96 6.4-.18 2.71-.12 4.05.02 7.13.14 3.09.38 4.88.67 8.3.29 3.43.51 5.56.78 8.81.27 3.26.11 5.01.59 7.46.47 2.46.9 3.49 1.8 4.82.9 1.32 1.69 1.64 2.7 1.79 1 .16 1.75-.21 2.32-1.02.58-.81.52-1.53.57-3.04.04-1.51-.12-2.33-.32-4.5s-.38-3.72-.67-6.33c-.29-2.62-.48-4.12-.8-6.75-.32-2.63-.37-4.08-.79-6.4-.42-2.32-.72-3.56-1.3-5.2-.57-1.63-.9-2.1-1.59-2.98-.68-.89-1.01-1.3-1.82-1.43-.81-.14-1.64.25-2.23.75m68.56-12.79c-.11-.88-.41-1.5-1.56-2.26-1.15-.76-2.14-1.41-4.2-1.54-2.05-.13-3.69.04-6.1.89-2.41.86-3.79 1.66-5.93 3.37-2.14 1.71-3.4 2.96-4.78 5.19-1.38 2.22-1.95 3.61-2.14 5.95-.19 2.34.1 3.73 1.2 5.76 1.09 2.03 2.11 3 4.27 4.37 2.17 1.38 3.76 1.82 6.56 2.49 2.8.68 4.51.85 7.44.88 2.93.03 4.56-.2 7.23-.74 2.66-.53 3.95-.97 6.11-1.93 2.17-.95 3.19-1.46 4.72-2.85 1.53-1.38 2.27-2.36 2.93-4.07.65-1.71.56-2.84.34-4.49-.21-1.66-.62-2.4-1.4-3.78-.79-1.39-1.4-2.24-2.5-3.15-1.11-.92-2.03-1.16-3.04-1.44-1.02-.29-1.33-.04-2.03.03-.71.06-.99-.08-1.48.29-.5.38-.89.96-.98 1.58-.09.63.22.9.53 1.54.31.63.44 1 1.01 1.64.58.63 1.08.96 1.86 1.54.78.58 1.39.83 2.03 1.36.63.53.93.71 1.15 1.31.22.6.28.98-.06 1.7s-.63 1.21-1.66 1.92c-1.02.7-1.75 1.07-3.45 1.61-1.7.53-2.83.84-5.05 1.08-2.21.23-3.56.25-6.02.08-2.46-.16-3.96-.5-6.27-.89-2.32-.39-3.68-.54-5.31-1.05-1.63-.51-2.24-.72-2.85-1.5-.61-.79-.59-1.34-.2-2.43.39-1.1.96-1.77 2.16-3.05 1.21-1.28 2.27-2.27 3.87-3.37s2.52-1.58 4.13-2.13c1.6-.55 2.59-.41 3.91-.64 1.32-.22 1.78-.24 2.69-.47.91-.22 1.3-.1 1.87-.66.58-.56 1.12-1.26 1-2.14m43.748-30.07c-.48.45-.48.38-.73 1.31s-.65 1.49-.51 3.33c.14 1.83.54 3.15 1.2 5.83.65 2.68 1.27 4.34 2.08 7.57.8 3.24 1.35 5.24 1.95 8.61.59 3.36.55 5.14 1.01 8.21.46 3.07.89 4.5 1.28 7.14.4 2.65.35 3.81.7 6.08.34 2.27.61 3.4 1.01 5.27.39 1.86.41 2.78.96 4.07.55 1.28 1.13 1.75 1.78 2.34.65.6.96.61 1.48.62.52.01.8-.22 1.12-.58.32-.37.37-.53.51-1.26.13-.72.24-1.12.16-2.37-.07-1.25-.23-2.1-.54-3.88-.31-1.78-.68-2.79-1-5.01-.32-2.23-.18-3.47-.59-6.12-.4-2.65-.94-4.07-1.43-7.14-.49-3.07-.55-4.81-1.02-8.23-.47-3.41-.96-5.46-1.34-8.83-.38-3.38-.08-5.22-.55-8.03-.47-2.82-1-4.25-1.79-6.06-.79-1.81-1.34-2.24-2.15-3-.81-.76-1.18-.83-1.9-.81-.72.03-1.2.49-1.69.94" style="fill:#fff;stroke:#fff"/><path d="M972.499 357.35c-.74.886-.94 1.928-1.3 4.193-.36 2.28-.57 3.983-.52 7.164.06 3.167.52 5.32.81 8.698.28 3.392.42 5.137.61 8.22.2 3.082.25 4.433.38 7.205.13 2.773-.03 4.166.27 6.657.31 2.477.63 3.829 1.27 5.757.64 1.942 1.05 2.843 1.95 3.912.89 1.084 1.69 1.394 2.52 1.464.82.085 1.29-.408 1.61-1.055.32-.634.02-1.492-.01-2.14-.03-.633-.09-.52-.15-1.041-.06-.521.05-.732-.14-1.548-.19-.817-.46-1.225-.78-2.534-.33-1.309-.64-2.097-.83-4.025-.19-1.928-.16-3.082-.12-5.63.04-2.547.16-3.898.32-7.093.17-3.195.58-5.292.5-8.895-.07-3.603-.42-5.94-.86-9.092s-.7-4.56-1.32-6.657c-.61-2.111-.93-3.138-1.78-3.856-.84-.704-1.68-.605-2.43.295" style="fill:#fff;stroke:#fff;stroke-width:1.18634"/><path d="M995.099 358.698c-.7.955-.9 1.719-1.27 4.236-.37 2.535-.6 4.41-.58 8.386.02 3.993.13 6.875.68 11.545.54 4.67 1.23 7.361 2.03 11.789.8 4.427.93 6.58 1.97 10.312 1.03 3.75 2.05 7.032 3.2 8.403 1.15 1.39 2.12.712 2.56-1.51.44-2.24-.1-5.66-.36-9.618-.26-3.976-.55-5.903-.94-10.226-.39-4.306-.65-6.945-.99-11.355-.35-4.41-.3-6.927-.74-10.66-.43-3.75-.79-5.677-1.46-8.055-.67-2.362-1.06-3.108-1.88-3.768-.82-.642-1.52-.434-2.22.52" style="fill:#fff;stroke:#fff;stroke-width:1.31764"/></svg>
