<svg width="823.14" height="405.153" viewBox="0 0 217.789 107.197" xml:space="preserve" xmlns="http://www.w3.org/2000/svg"><g transform="matrix(.26458 0 0 .26458 11.246 0)"><path fill="#f2f2f2" d="M0 321.247 542.134 0l16.305 27.515L16.305 348.762zM117.831 348.18 659.965 26.933l16.305 27.515-542.134 321.247zM222.197 377.638 764.33 56.391l16.304 27.515L238.5 405.153z"/><circle cx="353.12" cy="206.844" r="169.736" fill="#fff"/><path d="M182.122 206.844c0-94.289 76.71-170.999 170.998-170.999 94.29 0 170.999 76.71 170.999 170.999 0 94.288-76.71 170.998-170.999 170.998-94.288 0-170.998-76.71-170.998-170.998zm2.525 0c0 92.896 75.577 168.473 168.473 168.473 92.897 0 168.474-75.577 168.474-168.473 0-92.897-75.577-168.474-168.474-168.474-92.896 0-168.473 75.577-168.473 168.474z" fill="#3f3d56"/><path d="M526.082 326.35a30.257 30.257 0 1 1 30.257 30.257 30.257 30.257 0 0 1-30.257-30.257Zm30.257-28.782a28.814 28.814 0 0 0-28.781 28.782 28.781 28.781 0 1 0 28.78-28.782z" transform="translate(-203.219 -118.768)" fill="#3f3d56" style="isolation:isolate"/><path d="M498.776 326.35a57.563 57.563 0 1 1 57.563 57.562 57.563 57.563 0 0 1-57.563-57.562zm57.563-56.087a56.087 56.087 0 1 0 56.087 56.087 56.15 56.15 0 0 0-56.087-56.087z" transform="translate(-203.219 -118.768)" fill="#ccc" style="isolation:isolate"/><path d="M444.166 326.35a112.173 112.173 0 1 1 112.173 112.173A112.3 112.3 0 0 1 444.166 326.35Zm112.173-110.697A110.697 110.697 0 1 0 667.036 326.35 110.823 110.823 0 0 0 556.34 215.653Z" transform="translate(-203.219 -118.768)" fill="#ccc" style="isolation:isolate"/><circle cx="353.12" cy="206.844" r="14.022" fill="#1e3a8a" style="isolation:isolate"/><circle cx="316.959" cy="247.433" r="14.022" fill="#1e3a8a" style="isolation:isolate"/><circle cx="458.035" cy="241.529" r="14.022" fill="#1e3a8a" style="isolation:isolate"/><circle cx="353.12" cy="206.844" r="6.642" fill="#2f2e41"/><circle cx="458.035" cy="241.529" r="6.642" fill="#2f2e41"/><circle cx="316.959" cy="248.171" r="6.642" fill="#2f2e41"/><path fill="#2f2e41" d="M354.228 207.212h-1.477v-74.535H61.248v-1.476h292.98z"/><path d="M23.98 132.308a19.188 19.188 0 1 1 19.188 19.187 19.188 19.188 0 0 1-19.188-19.187zm19.188-17.712a17.712 17.712 0 1 0 17.712 17.711 17.732 17.732 0 0 0-17.712-17.711zM458.773 241.529h-1.476v-76.001l188.174-2.963.023 1.475-186.721 2.941zM124.282 324.182v-1.475h192.067v-74.536h1.348v76.011z" fill="#2f2e41"/><path fill="#ccc" d="M2.579 166.993h81.178v5.166H2.579zM2.579 181.752h81.178v5.166H2.579zM2.579 196.512h81.178v5.166H2.579zM46.858 358.13h81.178v5.166H46.858zM46.858 372.889h81.178v5.166H46.858zM46.858 387.649h81.178v5.166H46.858zM623.343 198.726h81.178v5.166h-81.178zM623.343 213.485h81.178v5.166h-81.178zM623.343 228.245h81.178v5.166h-81.178z"/></g><path fill="#f9ab00" d="M203.84 43.094c0 1.785-1.45 3.29-3.235 3.29h-.39c-1.674-.223-2.9-1.728-2.845-3.402V23.573c-.056-1.673 1.171-3.123 2.845-3.402 1.784-.223 3.402 1.06 3.625 2.844v.39z"/><path fill="#e37400" d="M183.371 39.915a3.237 3.237 0 0 1 3.235 3.235 3.237 3.237 0 0 1-3.235 3.234 3.237 3.237 0 0 1-3.235-3.234c-.056-1.785 1.45-3.235 3.235-3.235zm8.533-9.872c-1.784.111-3.179 1.617-3.179 3.402v8.756c0 2.343 1.06 3.793 2.566 4.128 1.785.334 3.458-.781 3.848-2.566.056-.223.056-.446.056-.67v-9.76c0-1.784-1.45-3.29-3.235-3.29h-.056z"/><path d="M4.984 58.608C2.808 56.434.734 54.362.116 52.024c-.618 2.338-2.694 4.41-4.869 6.584-3.262 3.26-6.96 6.955-6.96 12.497 0 6.524 5.306 11.831 11.829 11.831 6.523 0 11.829-5.307 11.83-11.831 0-5.541-3.7-9.237-6.962-12.497m-11.67 15.253c-.725-.024-3.402-4.638 1.564-9.551l3.286 3.59s.202.19-.021.419c-.785.804-4.127 4.156-4.542 5.315-.086.239-.211.23-.287.227m6.802 6.081a4.068 4.068 0 0 1-4.068-4.068c0-1.03.409-1.948 1.014-2.687.733-.897 3.053-3.42 3.053-3.42s2.285 2.56 3.049 3.411a3.979 3.979 0 0 1 1.02 2.696 4.068 4.068 0 0 1-4.068 4.068m7.787-6.597c-.088.192-.287.512-.555.522-.479.017-.53-.228-.884-.752-.776-1.149-7.553-8.231-8.82-9.601-1.116-1.205-.158-2.054.287-2.5L.115 58.83s4.853 4.603 6.874 7.75c2.021 3.145 1.324 5.867.914 6.765" style="fill:#009cde;stroke-width:.0851849" transform="translate(34.283 16.17)"/><path d="M24.013 26.688V22.79a3.002 3.002 0 0 0 1.731-2.707v-.09a3.002 3.002 0 0 0-3.002-3.002h-.09a3.002 3.002 0 0 0-3.002 3.003v.09a3.002 3.002 0 0 0 1.73 2.706v3.898a8.502 8.502 0 0 0-4.042 1.78L6.645 20.14c.076-.276.116-.559.12-.843a3.383 3.383 0 1 0-3.387 3.376 3.346 3.346 0 0 0 1.666-.453l10.53 8.194a8.529 8.529 0 0 0 .13 9.606l-3.202 3.204a2.75 2.75 0 0 0-.8-.13 2.778 2.778 0 1 0 2.78 2.78 2.742 2.742 0 0 0-.13-.8l3.167-3.17a8.543 8.543 0 1 0 6.494-15.216M22.7 39.512a4.383 4.383 0 1 1 0-8.763 4.383 4.383 0 0 1 .004 8.76" fill="#ff7a59"/></svg>