<svg width="524.302" height="321.077" viewBox="0 0 138.722 84.952" xml:space="preserve" xmlns="http://www.w3.org/2000/svg"><g transform="matrix(.25503 0 0 .25503 23.655 -22.407)"><path d="M196.155 154.13c67.931 0 123 55.07 123 123 0 67.931-55.069 123-123 123-67.93 0-161.945-67.35-123-123 38.945-55.648 55.07-123 123-123z" fill="#f2f2f2"/><path d="M360.782 159.982c-1.103 0-2 .897-2 2v64c0 1.103.897 2 2 2s2-.897 2-2v-64c0-1.103-.897-2-2-2zM24.782 111.982c-1.103 0-2 .897-2 2v16c0 1.103.897 2 2 2s2-.897 2-2v-16c0-1.103-.897-2-2-2zM24.782 159.982c-1.103 0-2 .897-2 2v31c0 1.103.897 2 2 2s2-.897 2-2v-31c0-1.103-.897-2-2-2zM24.782 203.982c-1.103 0-2 .897-2 2v31c0 1.103.897 2 2 2s2-.897 2-2v-31c0-1.103-.897-2-2-2zM204.155 87.863c-1.103 0-2 .897-2 2v31c0 1.103.897 2 2 2s2-.897 2-2v-31c0-1.103-.897-2-2-2z" fill="#3f3d56"/><path d="M142.376 268.84h-69.22v-2h69.22c6.013 0 10.905-4.893 10.905-10.907V209.13h2v46.803c0 7.116-5.789 12.906-12.905 12.906zM117.019 370.294h157.436v2H117.019z" fill="#6c63ff"/><path d="M374.343 255.466h-84.092c-4.538 0-8.23-3.692-8.23-8.23V164.17c0-4.538 3.692-8.23 8.23-8.23h84.092c4.538 0 8.23 3.692 8.23 8.23v83.066c0 4.538-3.692 8.23-8.23 8.23z" fill="#e6e6e6"/><path d="M305.912 158.392c-11.84 0-21.439 9.598-21.439 21.439v65.643a7.54 7.54 0 0 0 7.54 7.54h51.42c20.262 0 36.688-16.426 36.688-36.688v-50.394a7.54 7.54 0 0 0-7.54-7.54h-66.67z" fill="#fff"/><g fill="#e6e6e6"><path d="M354.82 182.532h-45.221a1.567 1.567 0 0 1-1.565-1.565c0-.863.702-1.564 1.565-1.564h45.22c.863 0 1.565.701 1.565 1.564 0 .863-.702 1.565-1.565 1.565zM354.82 215.895h-45.221a1.567 1.567 0 0 1-1.565-1.565c0-.862.702-1.564 1.565-1.564h45.22c.863 0 1.565.702 1.565 1.565 0 .862-.702 1.564-1.565 1.564zM373.182 199.224h-81.947a1.567 1.567 0 0 1-1.564-1.564c0-.863.702-1.565 1.564-1.565h81.947c.863 0 1.565.702 1.565 1.565 0 .862-.702 1.564-1.565 1.564z"/></g><path d="M374.02 229.46h-29.604a1.567 1.567 0 0 1-1.565-1.564c0-.863.702-1.564 1.565-1.564h29.603c.863 0 1.565.701 1.565 1.564 0 .863-.702 1.565-1.565 1.565zM197.711 420.97h-66.774a6.542 6.542 0 0 1-6.535-6.535v-65.96a6.542 6.542 0 0 1 6.535-6.535h66.774a6.542 6.542 0 0 1 6.535 6.535v65.96a6.542 6.542 0 0 1-6.535 6.535z" fill="#e6e6e6"/><path d="M143.372 343.887c-9.402 0-17.023 7.622-17.023 17.024v52.125a5.987 5.987 0 0 0 5.987 5.987h40.831c16.09 0 29.132-13.043 29.132-29.132v-40.016a5.987 5.987 0 0 0-5.987-5.988h-52.94z" fill="#fff"/><g fill="#e6e6e6"><path d="M182.208 363.055H146.3a1.244 1.244 0 0 1-1.243-1.242c0-.685.558-1.242 1.243-1.242h35.908a1.244 1.244 0 0 1 0 2.484zM182.208 389.548H146.3a1.244 1.244 0 0 1-1.243-1.242c0-.685.558-1.242 1.243-1.242h35.908a1.244 1.244 0 0 1 0 2.484zM196.79 376.31h-65.072a1.244 1.244 0 0 1-1.242-1.242c0-.685.557-1.242 1.242-1.242h65.072a1.244 1.244 0 0 1 0 2.485z"/></g><path d="M197.454 400.32h-23.507a1.244 1.244 0 0 1-1.243-1.242c0-.685.558-1.242 1.243-1.242h23.507a1.244 1.244 0 0 1 0 2.484zM151.04 208.626h-49.383a4.838 4.838 0 0 1-4.833-4.833v-48.78a4.838 4.838 0 0 1 4.833-4.834h49.383a4.838 4.838 0 0 1 4.833 4.833v48.78a4.838 4.838 0 0 1-4.833 4.834z" fill="#e6e6e6"/><path d="M110.854 151.62c-6.953 0-12.59 5.636-12.59 12.589v38.549a4.428 4.428 0 0 0 4.428 4.428h30.196c11.9 0 21.545-9.646 21.545-21.545v-29.594a4.428 4.428 0 0 0-4.428-4.428h-39.151z" fill="#fff"/><g fill="#e6e6e6"><path d="M139.575 165.795h-26.556a.92.92 0 0 1 0-1.837h26.556a.92.92 0 0 1 0 1.837zM139.575 185.388h-26.556a.92.92 0 0 1 0-1.838h26.556a.92.92 0 0 1 0 1.838zM150.358 175.598h-48.123a.92.92 0 0 1 0-1.838h48.123a.92.92 0 0 1 0 1.838z"/></g><path d="M150.85 193.354h-17.385a.92.92 0 0 1 0-1.837h17.385a.92.92 0 0 1 0 1.837z" fill="#e6e6e6"/><circle cx="295.155" cy="260.13" r="10" fill="#6c63ff"/><circle cx="154.155" cy="209.13" r="10" fill="#6c63ff"/><circle cx="202.155" cy="346.13" r="10" fill="#6c63ff"/><g transform="translate(0 38.88)" fill="#f2f2f2"><ellipse cx="223.756" cy="66.652" rx="12.463" ry="12.201"/><path d="M323.67 62.478h-67.086a4.179 4.179 0 0 1-4.174-4.174 4.179 4.179 0 0 1 4.174-4.174h67.085a4.179 4.179 0 0 1 4.174 4.174 4.179 4.179 0 0 1-4.174 4.174zM376.023 76.605H256.584a4.179 4.179 0 0 1-4.174-4.174 4.179 4.179 0 0 1 4.174-4.174h119.439a4.179 4.179 0 0 1 4.173 4.174 4.179 4.179 0 0 1-4.173 4.174z"/></g><g fill="#f2f2f2"><ellipse cx="43.359" cy="122.234" rx="8.066" ry="7.896"/><path d="M108.021 119.533H64.605a2.704 2.704 0 0 1-2.701-2.701 2.704 2.704 0 0 1 2.7-2.702h43.417a2.704 2.704 0 0 1 2.702 2.702 2.704 2.704 0 0 1-2.702 2.701zM141.904 128.676h-77.3a2.704 2.704 0 0 1-2.7-2.701 2.704 2.704 0 0 1 2.7-2.702h77.3a2.704 2.704 0 0 1 2.7 2.702 2.704 2.704 0 0 1-2.7 2.7z"/></g><g fill="#f2f2f2"><ellipse cx="285.359" cy="403.234" rx="8.066" ry="7.896"/><path d="M350.021 400.533h-43.416a2.704 2.704 0 0 1-2.701-2.701 2.704 2.704 0 0 1 2.7-2.702h43.417a2.704 2.704 0 0 1 2.702 2.702 2.704 2.704 0 0 1-2.702 2.701zM383.904 409.676h-77.3a2.704 2.704 0 0 1-2.7-2.701 2.704 2.704 0 0 1 2.7-2.702h77.3a2.704 2.704 0 0 1 2.7 2.702 2.704 2.704 0 0 1-2.7 2.7z"/></g><path fill="#e6e6e6" d="M186.405 155.97h2v95h-2z"/><circle cx="187.405" cy="250.97" r="6" fill="#e6e6e6"/><circle cx="278.405" cy="319.97" r="6" fill="#e6e6e6"/><circle cx="116.405" cy="237.97" r="6" fill="#e6e6e6"/><path fill="#e6e6e6" d="m81.375 238.973 32.813-.993.06 2-32.812.993zM279.46 319.97v20.97h47.756v2H277.46v-22.97z"/><circle cx="113.942" cy="303.486" r="6" fill="#e6e6e6"/><path fill="#e6e6e6" d="M114.405 303.486v20.969h47.756v2h-49.756v-22.969zM75.423 280.655h238.982v2H75.423zM428.342 370.752h-49.383a4.838 4.838 0 0 1-4.833-4.833v-48.78a4.838 4.838 0 0 1 4.833-4.834h49.383a4.838 4.838 0 0 1 4.833 4.833v48.78a4.838 4.838 0 0 1-4.833 4.834z"/><path d="M388.156 313.745c-6.954 0-12.59 5.637-12.59 12.59v38.549a4.428 4.428 0 0 0 4.428 4.428h30.196c11.899 0 21.545-9.646 21.545-21.545v-29.594a4.428 4.428 0 0 0-4.428-4.428h-39.151z" fill="#fff"/><g fill="#e6e6e6"><path d="M416.876 327.921h-26.555a.92.92 0 0 1 0-1.837h26.555a.92.92 0 0 1 0 1.837zM416.876 347.514h-26.555a.92.92 0 0 1 0-1.838h26.555a.92.92 0 0 1 0 1.838zM427.66 337.724h-48.123a.92.92 0 0 1 0-1.838h48.123a.92.92 0 0 1 0 1.838z"/></g><path d="M428.151 355.48h-17.384a.92.92 0 0 1 0-1.837h17.384a.92.92 0 0 1 0 1.837z" fill="#e6e6e6"/><circle cx="-445.195" cy="-278.252" r="6" fill="#e6e6e6" transform="scale(-1)"/><path fill="#e6e6e6" d="M446.14 255.282v22.97h-2v-20.97h-47.756v-2z"/><path d="M-90.753 332.886c-1.103 0-2 .897-2 2v31c0 1.103.897 2 2 2s2-.897 2-2v-31c0-1.103-.897-2-2-2z" fill="#3f3d56"/><g transform="translate(-294.908 283.904)" fill="#f2f2f2"><ellipse cx="223.756" cy="66.652" rx="12.463" ry="12.201"/><path d="M323.67 62.478h-67.086a4.179 4.179 0 0 1-4.174-4.174 4.179 4.179 0 0 1 4.174-4.174h67.085a4.179 4.179 0 0 1 4.174 4.174 4.179 4.179 0 0 1-4.174 4.174zM376.023 76.605H256.584a4.179 4.179 0 0 1-4.174-4.174 4.179 4.179 0 0 1 4.174-4.174h119.439a4.179 4.179 0 0 1 4.173 4.174 4.179 4.179 0 0 1-4.173 4.174z"/></g><circle cx="54.944" cy="144.803" r="6" fill="#e6e6e6" transform="scale(-1 1)"/><path fill="#e6e6e6" d="m-19.914 145.805-32.813-.993-.06 2 32.812.993z"/></g></svg>